<?xml version="1.0" encoding="UTF-8"?>
<svg width="72px" height="72px" viewBox="0 0 72 72" version="1.1" xmlns="http://www.w3.org/2000/svg" xmlns:xlink="http://www.w3.org/1999/xlink">
    <!-- Generator: Sketch 51.2 (57519) - http://www.bohemiancoding.com/sketch -->
    <title>Group</title>
    <desc>Created with Sketch.</desc>
    <defs></defs>
    <g id="Welcome" stroke="none" stroke-width="1" fill="none" fill-rule="evenodd" stroke-linecap="round">
        <g id="Factoring-Page" transform="translate(-938.000000, -746.000000)" stroke="#CB6D35">
            <g id="CC-core-benefits" transform="translate(0.000000, 664.000000)">
                <g id="Icons" transform="translate(98.000000, 81.000000)">
                    <g id="Group" transform="translate(841.000000, 2.000000)">
                        <path d="M35,70 C15.6700338,70 0,54.3299662 0,35 C0,15.6700338 15.6700338,0 35,0 C54.3299662,0 70,15.6700338 70,35 C70,54.3299662 54.3299662,70 35,70 Z" id="Stroke-1"></path>
                        <path d="M53.877551,35.6552402 L47.3495103,32.621095 C45.7668841,31.8457024 44.8995956,33.9033826 45.9924726,34.5643928 L48.895902,36.3499632 C49.3096758,36.5438113 49.8005938,36.8929788 49.0840872,37.0482982 L38.8683171,37.086827 C37.5112794,37.086827 37.1723122,39.3792923 38.829745,39.4178211 L39.1324777,39.4178211 L39.169881,39.4178211 L46.8971644,39.4178211 C47.1239217,39.4178211 47.2747037,39.6116693 47.2361316,39.8440463 L47.2361316,39.8837791 C47.1987283,39.9993656 47.0479463,40.1161561 46.8971644,40.1161561 C46.6715758,40.1944178 46.3700119,40.1546849 45.9924726,40.1546849 L38.3411646,40.1546849 C37.5112794,40.1546849 36.5306122,40.2329466 36.5306122,41.3984437 C36.5306122,42.718056 37.7754401,42.6024695 38.4159712,42.6024695 L44.484653,42.6024695 C45.3145382,42.6024695 46.1058513,42.6409984 46.8971644,42.6409984 C47.010543,42.6409984 47.0853496,42.6795272 47.161325,42.7565848 C47.2361316,42.7963177 47.2361316,42.8348465 47.2361316,42.9119042 C47.2747037,43.1454852 47.1239217,43.3393334 46.8971644,43.3393334 L39.169881,43.3393334 C38.4533745,43.3393334 37.6994647,43.3008045 37.6994647,44.4650976 C37.6994647,45.553537 38.4159712,45.6305946 39.169881,45.6305946 L46.8971644,45.6305946 C47.3495103,45.6305946 47.3495103,46.3289296 46.8971644,46.3289296 L41.3568039,46.3289296 C41.1674498,46.3674585 41.0166678,46.3674585 40.9792646,46.3674585 C39.8104121,46.71783 39.6970335,48.7755102 41.4316104,48.7755102 L47.9900414,48.7755102" id="Stroke-3"></path>
                        <path d="M17.1428571,35.5107896 C17.1428571,25.3665005 25.3665005,17.1428571 35.5107896,17.1428571 C45.6539077,17.1428571 53.877551,25.3665005 53.877551,35.5107896 C53.877551,45.6539077 45.6539077,53.877551 35.5107896,53.877551 C25.3665005,53.877551 17.1428571,45.6539077 17.1428571,35.5107896 Z" id="Stroke-5" stroke-width="1.5"></path>
                        <path d="M57.7295365,24.2857143 C59.1871905,27.4790719 60,31.0302551 60,34.7721216 C60,48.704954 48.7287284,60 34.8252225,60 C31.0618675,60 27.4923182,59.1737055 24.2857143,57.6906127" id="Stroke-7" stroke-width="1.5"></path>
                        <path d="M12.4695693,46.7346939 C10.8859923,43.3907073 10,39.6486556 10,35.6991784 C10,21.50552 21.4427749,10 35.5578359,10 C39.565669,10 43.3576682,10.9280192 46.7346939,12.5814282" id="Stroke-9" stroke-width="1.5"></path>
                        <path d="M15.1020408,53.3667347 C15.1020408,51.9586841 16.2443984,50.8163265 17.652449,50.8163265 C19.061724,50.8163265 20.2040816,51.9586841 20.2040816,53.3667347 C20.2040816,54.7760098 19.061724,55.9183673 17.652449,55.9183673 C16.2443984,55.9183673 15.1020408,54.7760098 15.1020408,53.3667347 Z" id="Stroke-11" stroke-width="1.5"></path>
                        <path d="M49.7959184,17.6530612 C49.7959184,16.2446726 50.938276,15.1020408 52.3463266,15.1020408 C53.7556016,15.1020408 54.8979592,16.2446726 54.8979592,17.6530612 C54.8979592,19.0614498 53.7556016,20.2040816 52.3463266,20.2040816 C50.938276,20.2040816 49.7959184,19.0614498 49.7959184,17.6530612 Z" id="Stroke-13" stroke-width="1.5"></path>
                        <polyline id="Stroke-15" stroke-width="1.5" points="43.6734694 19.1836735 43.6734694 29.5523779 35.5102041 32.4489796"></polyline>
                        <polyline id="Stroke-17" stroke-width="1.5" points="28.3673469 51.8367347 28.3673469 44.9864339 36.5306122 41.6326531"></polyline>
                    </g>
                </g>
            </g>
        </g>
    </g>
</svg>