<?xml version="1.0" encoding="UTF-8"?>
<svg width="70px" height="70px" viewBox="0 0 70 70" version="1.1" xmlns="http://www.w3.org/2000/svg" xmlns:xlink="http://www.w3.org/1999/xlink">
    <!-- Generator: Sketch 51.2 (57519) - http://www.bohemiancoding.com/sketch -->
    <title>Group 2</title>
    <desc>Created with Sketch.</desc>
    <defs>
        <polygon id="path-1" points="0.000333333333 0.688043478 35.8956776 0.688043478 35.8956776 35.6201087 0.000333333333 35.6201087"></polygon>
    </defs>
    <g id="Welcome" stroke="none" stroke-width="1" fill="none" fill-rule="evenodd">
        <g id="Factoring-Page" transform="translate(-939.000000, -897.000000)">
            <g id="CC-core-benefits" transform="translate(0.000000, 664.000000)">
                <g id="Icons" transform="translate(98.000000, 81.000000)">
                    <g id="Group-2" transform="translate(841.000000, 152.000000)">
                        <circle id="Oval-2" fill="#FCF4F0" cx="35" cy="35" r="35"></circle>
                        <g id="Group" transform="translate(10.000000, 10.000000)">
                            <path d="M27.2558889,9.15630435 C27.2147778,9.15630435 27.1725556,9.15304348 27.1314444,9.1476087 C26.437,9.04543478 25.7281111,8.98673913 25.0247778,8.97152174 C24.5647778,8.96173913 24.2003333,8.58891304 24.2092222,8.13782609 C24.2203333,7.68782609 24.6481111,7.33565217 25.0603333,7.34108696 C25.8358889,7.35847826 26.6147778,7.4226087 27.3781111,7.53456522 C27.8336667,7.60086957 28.147,8.01608696 28.0792222,8.46173913 C28.017,8.86608696 27.6614444,9.15630435 27.2558889,9.15630435 M19.5636667,9.70521739 C19.2058889,9.70521739 18.8758889,9.47913043 18.767,9.12804348 C18.6325556,8.69652174 18.8803333,8.24108696 19.3214444,8.10956522 C20.0558889,7.89108696 20.817,7.71608696 21.5836667,7.58782609 C22.0425556,7.50847826 22.4681111,7.80956522 22.5458889,8.25413043 C22.6236667,8.6976087 22.3181111,9.11934783 21.8647778,9.19434783 C21.167,9.31173913 20.4736667,9.47152174 19.8058889,9.67043478 C19.7258889,9.69326087 19.6436667,9.70521739 19.5636667,9.70521739 M32.5225556,10.8041304 C32.3947778,10.8041304 32.2658889,10.7747826 32.1447778,10.716087 C31.5203333,10.4041304 30.867,10.1302174 30.2025556,9.89978261 C29.7692222,9.74869565 29.5425556,9.28130435 29.697,8.85847826 C29.8503333,8.4323913 30.327,8.21173913 30.7603333,8.36282609 C31.4925556,8.61717391 32.2114444,8.91934783 32.9003333,9.26173913 C33.3103333,9.46608696 33.4747778,9.95630435 33.2658889,10.3573913 C33.1181111,10.641087 32.8258889,10.8041304 32.5225556,10.8041304 M14.5992222,12.0856522 C14.3381111,12.0856522 14.0803333,11.966087 13.9181111,11.7421739 C13.6525556,11.3736957 13.7414444,10.865 14.117,10.6052174 C14.7447778,10.1715217 15.4103333,9.76934783 16.097,9.41173913 C16.5014444,9.19978261 17.007,9.35195652 17.2236667,9.74869565 C17.4403333,10.1454348 17.2858889,10.638913 16.8803333,10.8519565 C16.2558889,11.1758696 15.6503333,11.541087 15.0803333,11.9367391 C14.9336667,12.0367391 14.7658889,12.0856522 14.5992222,12.0856522 M36.997,13.9856522 C36.7836667,13.9856522 36.5692222,13.9063043 36.4058889,13.7465217 C35.9103333,13.2573913 35.377,12.7976087 34.8225556,12.3758696 C34.4592222,12.0986957 34.3936667,11.5867391 34.6758889,11.2313043 C34.9581111,10.8758696 35.4814444,10.8128261 35.8447778,11.0867391 C36.4558889,11.5508696 37.0425556,12.0595652 37.5881111,12.5954348 C37.9125556,12.915 37.9114444,13.4313043 37.5847778,13.7486957 C37.4225556,13.9073913 37.2092222,13.9856522 36.997,13.9856522 M10.6425556,15.8693478 C10.4703333,15.8693478 10.2958889,15.8171739 10.147,15.7084783 C9.77811111,15.44 9.70033333,14.9302174 9.97366667,14.5682609 C10.4336667,13.9617391 10.9392222,13.3769565 11.4758889,12.8302174 C11.7958889,12.5052174 12.3236667,12.4954348 12.6536667,12.8063043 C12.9858889,13.1193478 12.997,13.6345652 12.6781111,13.9595652 C12.1903333,14.4563043 11.7303333,14.9878261 11.3125556,15.538913 C11.1492222,15.7552174 10.8981111,15.8693478 10.6425556,15.8693478 M40.2314444,18.3736957 C39.9258889,18.3736957 39.6325556,18.2095652 39.4858889,17.9247826 C39.1714444,17.3117391 38.8114444,16.7106522 38.4192222,16.141087 C38.1614444,15.7671739 38.2625556,15.2606522 38.6447778,15.0095652 C39.0247778,14.7563043 39.5447778,14.8563043 39.8014444,15.2302174 C40.2336667,15.8573913 40.6281111,16.5171739 40.9747778,17.1932609 C41.1814444,17.5954348 41.0158889,18.0856522 40.6047778,18.2867391 C40.4847778,18.3465217 40.357,18.3736957 40.2314444,18.3736957 M8.09477778,20.6736957 C8.00922222,20.6736957 7.92144444,20.6606522 7.83477778,20.6323913 C7.397,20.4921739 7.16033333,20.0313043 7.30366667,19.6030435 C7.54477778,18.8856522 7.837,18.1747826 8.17366667,17.488913 C8.37144444,17.0834783 8.86922222,16.9117391 9.28477778,17.1052174 C9.69922222,17.2997826 9.87477778,17.7867391 9.67588889,18.1932609 C9.37144444,18.8171739 9.10588889,19.4617391 8.887,20.1128261 C8.77144444,20.4563043 8.44477778,20.6736957 8.09477778,20.6736957 M41.8903333,23.5356522 C41.4825556,23.5356522 41.127,23.2432609 41.067,22.8367391 C40.9658889,22.1584783 40.8192222,21.4780435 40.6292222,20.816087 C40.5047778,20.3823913 40.7636667,19.9323913 41.2058889,19.8117391 C41.6503333,19.6867391 42.1103333,19.9432609 42.2336667,20.3758696 C42.4425556,21.1052174 42.6047778,21.8552174 42.7158889,22.6030435 C42.7825556,23.0476087 42.4658889,23.4617391 42.0114444,23.5269565 C41.9703333,23.5323913 41.9303333,23.5356522 41.8903333,23.5356522 M7.22255556,26.015 C6.76255556,26.015 6.38922222,25.6497826 6.38922222,25.1997826 C6.38922222,24.438913 6.43811111,23.6747826 6.53477778,22.9302174 C6.59255556,22.4834783 7.00588889,22.163913 7.467,22.2236957 C7.92366667,22.2813043 8.247,22.688913 8.18811111,23.1356522 C8.10033333,23.8128261 8.05588889,24.5073913 8.05588889,25.1997826 C8.05588889,25.6497826 7.68255556,26.015 7.22255556,26.015 M41.8181111,28.9454348 C41.7714444,28.9454348 41.7236667,28.941087 41.6758889,28.9334783 C41.2214444,28.8563043 40.9181111,28.4345652 40.9958889,27.991087 C41.1158889,27.313913 41.1925556,26.6215217 41.2236667,25.9356522 C41.2436667,25.4845652 41.6347778,25.1193478 42.0936667,25.1573913 C42.5525556,25.1758696 42.9092222,25.5573913 42.8881111,26.0073913 C42.8547778,26.7617391 42.7703333,27.5226087 42.6392222,28.2693478 C42.5681111,28.666087 42.2158889,28.9454348 41.8181111,28.9454348 M7.67033333,29.8726087 C7.29144444,29.8726087 6.94811111,29.6171739 6.85922222,29.241087 C6.68477778,28.5030435 6.557,27.7476087 6.48033333,26.9943478 C6.43588889,26.5465217 6.77033333,26.1476087 7.22811111,26.1030435 C7.68255556,26.0508696 8.09366667,26.3867391 8.13922222,26.8334783 C8.20811111,27.5171739 8.32366667,28.2030435 8.48255556,28.8736957 C8.587,29.3117391 8.307,29.7486957 7.85922222,29.8508696 C7.79588889,29.866087 7.73255556,29.8726087 7.67033333,29.8726087 M40.0136667,34.0595652 C39.8803333,34.0595652 39.7458889,34.0291304 39.6203333,33.9628261 C39.2147778,33.7497826 39.0625556,33.2563043 39.2803333,32.8595652 C39.6125556,32.2530435 39.9081111,31.6204348 40.1592222,30.9769565 C40.3225556,30.5563043 40.8058889,30.3465217 41.2347778,30.5063043 C41.6647778,30.6671739 41.8803333,31.1378261 41.7158889,31.5584783 C41.4403333,32.266087 41.1147778,32.9628261 40.7492222,33.6302174 C40.5981111,33.9041304 40.3114444,34.0595652 40.0136667,34.0595652 M9.76144444,34.8791304 C9.48033333,34.8791304 9.20588889,34.74 9.04922222,34.488913 C8.64588889,33.8421739 8.28144444,33.163913 7.96811111,32.4747826 C7.78033333,32.0628261 7.96922222,31.5813043 8.39033333,31.3986957 C8.81033333,31.2117391 9.30255556,31.3986957 9.49033333,31.8106522 C9.77477778,32.4367391 10.1047778,33.0508696 10.4725556,33.638913 C10.7114444,34.0236957 10.5881111,34.5258696 10.1947778,34.7606522 C10.0592222,34.841087 9.90922222,34.8791304 9.76144444,34.8791304 M36.6614444,38.363913 C36.4414444,38.363913 36.2214444,38.2791304 36.057,38.1106522 C35.7403333,37.7845652 35.7536667,37.2682609 36.087,36.9573913 C36.5958889,36.4856522 37.0792222,35.9747826 37.5225556,35.44 C37.8136667,35.09 38.3381111,35.0378261 38.6947778,35.3215217 C39.0525556,35.6063043 39.107,36.1193478 38.8158889,36.4693478 C38.327,37.0563043 37.7958889,37.6193478 37.2347778,38.14 C37.0736667,38.29 36.867,38.363913 36.6614444,38.363913 M13.3514444,38.9954348 C13.1603333,38.9954348 12.9681111,38.9323913 12.8114444,38.7997826 C12.2203333,38.3073913 11.6581111,37.7758696 11.1392222,37.2171739 C10.8303333,36.8845652 10.8547778,36.3682609 11.1958889,36.066087 C11.5358889,35.763913 12.0625556,35.7878261 12.3725556,36.1204348 C12.8447778,36.6269565 13.3558889,37.1128261 13.8925556,37.5606522 C14.2425556,37.8519565 14.2847778,38.3671739 13.9858889,38.7084783 C13.8214444,38.8976087 13.587,38.9954348 13.3514444,38.9954348 M32.1047778,41.4269565 C31.7925556,41.4269565 31.4925556,41.2552174 31.3514444,40.9617391 C31.1536667,40.5541304 31.3314444,40.0671739 31.747,39.8758696 C32.3792222,39.5823913 33.0003333,39.2454348 33.5947778,38.8736957 C33.9803333,38.6291304 34.4958889,38.741087 34.7458889,39.1182609 C34.9936667,39.4976087 34.8814444,40.0019565 34.4936667,40.2454348 C33.8414444,40.6552174 33.157,41.0258696 32.4603333,41.3486957 C32.3458889,41.4019565 32.2236667,41.4269565 32.1047778,41.4269565 M18.077,41.8084783 C17.9725556,41.8084783 17.8658889,41.788913 17.7625556,41.7476087 C17.0425556,41.4617391 16.337,41.1269565 15.667,40.7541304 C15.2658889,40.5323913 15.1258889,40.0345652 15.3536667,39.6432609 C15.5803333,39.2519565 16.0903333,39.115 16.4892222,39.3367391 C17.097,39.6736957 17.7381111,39.9769565 18.3914444,40.238913 C18.8181111,40.4084783 19.0225556,40.8834783 18.8492222,41.3008696 C18.717,41.6171739 18.4058889,41.8084783 18.077,41.8084783 M26.7925556,42.9334783 C26.377,42.9334783 26.0181111,42.6313043 25.9658889,42.2182609 C25.9103333,41.7715217 26.2347778,41.363913 26.6914444,41.3095652 C27.3892222,41.2258696 28.0881111,41.0976087 28.7692222,40.9269565 C29.2158889,40.816087 29.6681111,41.0802174 29.7814444,41.516087 C29.8958889,41.9519565 29.6258889,42.3954348 29.1803333,42.5073913 C28.4314444,42.6932609 27.6625556,42.8345652 26.8947778,42.9269565 C26.8603333,42.9313043 26.8258889,42.9334783 26.7925556,42.9334783 M23.4681111,43.0226087 C23.4492222,43.0226087 23.4303333,43.0215217 23.4114444,43.0204348 C22.6458889,42.9704348 21.8703333,42.8726087 21.1058889,42.7269565 C20.6547778,42.641087 20.3592222,42.2128261 20.447,41.7704348 C20.5358889,41.3302174 20.9781111,41.0378261 21.4236667,41.1258696 C22.1203333,41.2584783 22.8258889,41.3486957 23.5225556,41.3943478 C23.9814444,41.4247826 24.3292222,41.8128261 24.2981111,42.2617391 C24.2692222,42.6932609 23.9025556,43.0226087 23.4681111,43.0226087" id="Fill-1" fill="#CB6D35"></path>
                            <path d="M24.6484444,49.3121739 C21.0473333,49.3121739 17.5751111,48.5686957 14.3295556,47.1034783 C13.9117778,46.9154348 13.7295556,46.4306522 13.9228889,46.0219565 C14.1151111,45.6132609 14.6084444,45.433913 15.0284444,45.6230435 C18.0528889,46.9893478 21.2906667,47.6817391 24.6484444,47.6817391 C37.3206667,47.6817391 47.6295556,37.5969565 47.6295556,25.1991304 C47.6295556,21.9393478 46.9328889,18.7958696 45.5573333,15.8567391 C45.3662222,15.4469565 45.5506667,14.9621739 45.9684444,14.7763043 C46.3873333,14.5871739 46.8817778,14.7676087 47.0728889,15.1773913 C48.5484444,18.3317391 49.2962222,21.7045652 49.2962222,25.1991304 C49.2962222,38.4958696 38.2395556,49.3121739 24.6484444,49.3121739" id="Fill-3" fill="#CB6D35"></path>
                            <g id="Group-7" transform="translate(0.000000, 0.399130)">
                                <mask id="mask-2" fill="white">
                                    <use xlink:href="#path-1"></use>
                                </mask>
                                <g id="Clip-6"></g>
                                <path d="M3.13588889,35.6201087 C2.82477778,35.6201087 2.52588889,35.4494565 2.38255556,35.1548913 C0.801444444,31.9081522 0.000333333333,28.4244565 0.000333333333,24.8005435 C0.000333333333,11.5038043 11.057,0.6875 24.6481111,0.6875 C28.427,0.6875 32.0525556,1.50271739 35.427,3.11141304 C35.8414444,3.30706522 36.0125556,3.79619565 35.8114444,4.20054348 C35.6092222,4.6048913 35.1092222,4.77228261 34.697,4.57554348 C31.5525556,3.07880435 28.1714444,2.31793478 24.6481111,2.31793478 C11.977,2.31793478 1.667,12.4038043 1.667,24.8005435 C1.667,28.1798913 2.41366667,31.4288043 3.88811111,34.4548913 C4.08588889,34.861413 3.90922222,35.3472826 3.49366667,35.5407609 C3.37811111,35.5951087 3.25588889,35.6201087 3.13588889,35.6201087" id="Fill-5" fill="#CB6D35" mask="url(#mask-2)"></path>
                            </g>
                            <path d="M7.77777778,39.9541304 C6.96111111,39.9541304 6.29666667,40.6052174 6.29666667,41.4041304 C6.29666667,42.2030435 6.96111111,42.8530435 7.77777778,42.8530435 C8.59444444,42.8530435 9.25888889,42.2030435 9.25888889,41.4041304 C9.25888889,40.6052174 8.59444444,39.9541304 7.77777778,39.9541304 M7.77777778,44.4834783 C6.04222222,44.4834783 4.63,43.1019565 4.63,41.4041304 C4.63,39.7052174 6.04222222,38.3236957 7.77777778,38.3236957 C9.51333333,38.3236957 10.9255556,39.7052174 10.9255556,41.4041304 C10.9255556,43.1019565 9.51333333,44.4834783 7.77777778,44.4834783" id="Fill-8" fill="#CB6D35"></path>
                            <path d="M41.1111111,7.54608696 C40.2944444,7.54608696 39.63,8.19608696 39.63,8.995 C39.63,9.79391304 40.2944444,10.445 41.1111111,10.445 C41.9277778,10.445 42.5922222,9.79391304 42.5922222,8.995 C42.5922222,8.19608696 41.9277778,7.54608696 41.1111111,7.54608696 M41.1111111,12.0754348 C39.3755556,12.0754348 37.9633333,10.693913 37.9633333,8.995 C37.9633333,7.29717391 39.3755556,5.91565217 41.1111111,5.91565217 C42.8466667,5.91565217 44.2588889,7.29717391 44.2588889,8.995 C44.2588889,10.693913 42.8466667,12.0754348 41.1111111,12.0754348" id="Fill-10" fill="#CB6D35"></path>
                            <path d="M29.0646667,31.4878261 C28.218,32.2726087 27.0968889,32.7443478 25.7035556,32.9063043 L25.7035556,34.5997826 C25.7035556,34.8486957 25.6324444,35.0465217 25.4902222,35.1932609 C25.348,35.34 25.1557778,35.4128261 24.9168889,35.4128261 C24.6768889,35.4128261 24.4857778,35.34 24.3435556,35.1932609 C24.2013333,35.0465217 24.1302222,34.8486957 24.1302222,34.5997826 L24.1302222,32.9280435 C23.2157778,32.8693478 22.3313333,32.6932609 21.4768889,32.4008696 C20.6235556,32.1073913 19.8968889,31.69 19.2968889,31.1476087 C19.0568889,30.9573913 18.9368889,30.7073913 18.9368889,30.3986957 C18.9368889,30.1943478 18.9968889,30.015 19.1168889,29.8606522 C19.2368889,29.7063043 19.3791111,29.6291304 19.5446667,29.6291304 C19.7235556,29.6291304 19.9413333,29.7095652 20.1968889,29.8715217 C21.6946667,30.8976087 23.2013333,31.4117391 24.7146667,31.4117391 C25.898,31.4117391 26.8202222,31.1693478 27.4802222,30.6856522 C28.1391111,30.2008696 28.4691111,29.5128261 28.4691111,28.6171739 C28.4691111,28.09 28.3002222,27.6606522 27.9624444,27.3313043 C27.6257778,27.0019565 27.1991111,26.7454348 26.6813333,26.5617391 C26.1646667,26.3791304 25.4635556,26.1845652 24.5791111,25.9791304 C23.4402222,25.7008696 22.5224444,25.4226087 21.8257778,25.1432609 C21.1291111,24.865 20.5335556,24.44 20.038,23.8671739 C19.5446667,23.2965217 19.2968889,22.5269565 19.2968889,21.5584783 C19.2968889,20.7671739 19.4991111,20.0519565 19.9035556,19.415 C20.3091111,18.7769565 20.8735556,18.2595652 21.6013333,17.863913 C22.328,17.4693478 23.1635556,17.2269565 24.108,17.138913 L24.108,15.4443478 C24.108,15.2106522 24.1824444,15.016087 24.3324444,14.8617391 C24.4813333,14.7073913 24.6691111,14.6313043 24.8946667,14.6313043 C25.1335556,14.6313043 25.3246667,14.7052174 25.468,14.8508696 C25.6102222,14.9976087 25.6813333,15.1965217 25.6813333,15.4443478 L25.6813333,17.138913 C26.4757778,17.2117391 27.2391111,17.3954348 27.9746667,17.688913 C28.708,17.9813043 29.3302222,18.3845652 29.8402222,18.8976087 C30.0946667,19.1030435 30.2224444,19.3519565 30.2224444,19.6454348 C30.2224444,19.8508696 30.158,20.0302174 30.0313333,20.1845652 C29.9035556,20.3378261 29.758,20.415 29.5924444,20.415 C29.398,20.415 29.188,20.3345652 28.9635556,20.1736957 C28.3035556,19.6454348 27.6635556,19.2573913 27.0413333,19.0084783 C26.4191111,18.7584783 25.6957778,18.6345652 24.8724444,18.6345652 C23.7324444,18.6345652 22.8302222,18.89 22.1635556,19.4041304 C21.4957778,19.916087 21.1624444,20.6128261 21.1624444,21.4932609 C21.1624444,22.1084783 21.3457778,22.5997826 21.7135556,22.966087 C22.0802222,23.3323913 22.5346667,23.615 23.0735556,23.8128261 C23.6135556,24.0106522 24.3546667,24.2269565 25.2991111,24.4617391 C26.3924444,24.7247826 27.2735556,24.988913 27.9402222,25.2541304 C28.6068889,25.5171739 29.1735556,25.9171739 29.638,26.4519565 C30.1024444,26.9867391 30.3346667,27.7019565 30.3346667,28.5965217 C30.3346667,29.74 29.9113333,30.7030435 29.0646667,31.4878261" id="Fill-12" fill="#CB6D35"></path>
                        </g>
                    </g>
                </g>
            </g>
        </g>
    </g>
</svg>