<?xml version="1.0" encoding="UTF-8"?>
<svg width="70px" height="70px" viewBox="0 0 70 70" version="1.1" xmlns="http://www.w3.org/2000/svg" xmlns:xlink="http://www.w3.org/1999/xlink">
    <!-- Generator: Sketch 51.2 (57519) - http://www.bohemiancoding.com/sketch -->
    <title>Group 4</title>
    <desc>Created with Sketch.</desc>
    <defs></defs>
    <g id="Welcome" stroke="none" stroke-width="1" fill="none" fill-rule="evenodd">
        <g id="Factoring-Page" transform="translate(-98.000000, -898.000000)">
            <g id="CC-core-benefits" transform="translate(0.000000, 664.000000)">
                <g id="Icons" transform="translate(98.000000, 81.000000)">
                    <g id="Group-4" transform="translate(0.000000, 153.000000)">
                        <circle id="Oval-2" fill="#FCF4F0" cx="35" cy="35" r="35"></circle>
                        <g id="Group" transform="translate(10.000000, 10.000000)" stroke="#CB6D35" stroke-linecap="round" stroke-width="1.5">
                            <path d="M32.6097727,25.5071591 C31.2097727,26.9117045 29.1211364,27.4867045 27.3552273,27.0276136 L23.2972727,29.7639773 C23.2290909,29.84125 23.1518182,29.8730682 23.0825,29.8730682 L22.2188636,30.0207955 L22.1120455,30.7378409 C22.1131818,30.8832955 22.0052273,30.9923864 21.8586364,31.0310227 L20.9268182,31.3173864 L20.8893182,32.0730682 C20.8893182,32.1821591 20.8586364,32.2582955 20.7813636,32.32875 L19.0586364,34.0582955 C18.9893182,34.1276136 18.9120455,34.16625 18.8040909,34.16625 L18.7734091,34.16625 L16.8302273,34.0617045 L16.2904545,33.5628409 L16.1790909,31.5821591 C16.1779545,31.4742045 16.2086364,31.3651136 16.2859091,31.2889773 L23.3540909,23.1503409 C22.7415909,21.3480682 23.3165909,19.1492045 24.7859091,17.6742045 C25.8245455,16.6310227 27.2268182,16.0514773 28.7063636,16.0480682 L28.745,16.0480682 C30.07,16.0457955 31.3279545,16.5253409 32.3154545,17.3617045 C32.4313636,17.4605682 32.5359091,17.5707955 32.6347727,17.6855682 C33.8075,19.0469318 34.4029545,20.8594318 34.0790909,22.6264773 C33.8836364,23.6957955 33.3961364,24.7139773 32.6097727,25.5071591 Z" id="Stroke-1"></path>
                            <path d="M16.1940909,34.2119318 L12.4372727,37.9357955" id="Stroke-3"></path>
                            <path d="M37.0997727,13.5098864 L32.8872727,17.6360227" id="Stroke-5"></path>
                            <path d="M26.8407955,21.2902273 C26.8407955,20.1606818 27.7567045,19.2459091 28.8851136,19.2459091 C30.0135227,19.2459091 30.9294318,20.1606818 30.9294318,21.2902273 C30.9294318,22.4186364 30.0135227,23.3345455 28.8851136,23.3345455 C27.7567045,23.3345455 26.8407955,22.4186364 26.8407955,21.2902273 Z" id="Stroke-7"></path>
                            <path d="M47.3675,15.0846591 C48.7777273,18.1676136 49.5640909,21.5960227 49.5640909,25.2085227 C49.5640909,38.6596591 38.6595455,49.5642045 25.2084091,49.5642045 C21.5675,49.5642045 18.1140909,48.7664773 15.0118182,47.3346591" id="Stroke-9"></path>
                            <path d="M3.20636364,35.6678409 C1.69727273,32.4985227 0.851818182,28.9519318 0.851818182,25.20875 C0.851818182,11.7564773 11.7563636,0.851931818 25.2086364,0.851931818 C29.0279545,0.851931818 32.6415909,1.73147727 35.8586364,3.29852273" id="Stroke-11"></path>
                            <path d="M5.58727273,42.14875 C5.58727273,40.8419318 6.6475,39.7817045 7.95431818,39.7817045 C9.26227273,39.7817045 10.3225,40.8419318 10.3225,42.14875 C10.3225,43.4567045 9.26227273,44.5169318 7.95431818,44.5169318 C6.6475,44.5169318 5.58727273,43.4567045 5.58727273,42.14875 Z" id="Stroke-13"></path>
                            <path d="M39.6781818,8.2675 C39.6781818,6.96068182 40.7384091,5.90045455 42.0452273,5.90045455 C43.3531818,5.90045455 44.4134091,6.96068182 44.4134091,8.2675 C44.4134091,9.57431818 43.3531818,10.6345455 42.0452273,10.6345455 C40.7384091,10.6345455 39.6781818,9.57431818 39.6781818,8.2675 Z" id="Stroke-15"></path>
                            <path d="M7.49988636,25.6293182 C7.49988636,15.7861364 15.4794318,7.80659091 25.3226136,7.80659091 C35.1646591,7.80659091 43.1442045,15.7861364 43.1442045,25.6293182 C43.1442045,35.4713636 35.1646591,43.4509091 25.3226136,43.4509091 C15.4794318,43.4509091 7.49988636,35.4713636 7.49988636,25.6293182 Z" id="Stroke-17"></path>
                        </g>
                    </g>
                </g>
            </g>
        </g>
    </g>
</svg>