<?xml version="1.0" encoding="UTF-8"?>
<svg width="70px" height="70px" viewBox="0 0 70 70" version="1.1" xmlns="http://www.w3.org/2000/svg" xmlns:xlink="http://www.w3.org/1999/xlink">
    <!-- Generator: Sketch 51.2 (57519) - http://www.bohemiancoding.com/sketch -->
    <title>Group 3</title>
    <desc>Created with Sketch.</desc>
    <defs></defs>
    <g id="Welcome" stroke="none" stroke-width="1" fill="none" fill-rule="evenodd">
        <g id="Factoring-Page" transform="translate(-511.000000, -898.000000)">
            <g id="CC-core-benefits" transform="translate(0.000000, 664.000000)">
                <g id="Icons" transform="translate(98.000000, 81.000000)">
                    <g id="Group-3" transform="translate(413.000000, 153.000000)">
                        <circle id="Oval-2" fill="#FCF4F0" cx="35" cy="35" r="35"></circle>
                        <g id="Group" transform="translate(10.000000, 11.000000)" stroke="#CB6D35" stroke-linecap="round" stroke-width="1.5">
                            <path d="M7.38659091,25.2086364 C7.38659091,15.3654545 15.365,7.38590909 25.2081818,7.38590909 C35.0513636,7.38590909 43.0309091,15.3654545 43.0309091,25.2086364 C43.0309091,35.0506818 35.0513636,43.0302273 25.2081818,43.0302273 C15.365,43.0302273 7.38659091,35.0506818 7.38659091,25.2086364 Z" id="Stroke-1"></path>
                            <path d="M47.3673864,15.0845455 C48.77875,18.1675 49.5651136,21.5959091 49.5651136,25.2084091 C49.5651136,38.6595455 38.6594318,49.5640909 25.2082955,49.5640909 C21.5673864,49.5640909 18.1139773,48.7663636 15.0128409,47.3345455" id="Stroke-3"></path>
                            <path d="M3.20625,35.6678409 C1.69715909,32.4985227 0.852840909,28.9519318 0.852840909,25.20875 C0.852840909,11.7564773 11.75625,0.851931818 25.2085227,0.851931818 C29.0278409,0.851931818 32.6414773,1.73147727 35.8585227,3.29852273" id="Stroke-5"></path>
                            <path d="M5.58715909,42.14875 C5.58715909,40.8419318 6.64738636,39.7817045 7.95420455,39.7817045 C9.26215909,39.7817045 10.3223864,40.8419318 10.3223864,42.14875 C10.3223864,43.4567045 9.26215909,44.5169318 7.95420455,44.5169318 C6.64738636,44.5169318 5.58715909,43.4567045 5.58715909,42.14875 Z" id="Stroke-7"></path>
                            <path d="M39.6780682,8.2675 C39.6780682,6.96068182 40.7382955,5.90045455 42.0451136,5.90045455 C43.3530682,5.90045455 44.4132955,6.96068182 44.4132955,8.2675 C44.4132955,9.57431818 43.3530682,10.6345455 42.0451136,10.6345455 C40.7382955,10.6345455 39.6780682,9.57431818 39.6780682,8.2675 Z" id="Stroke-9"></path>
                            <path d="M25.2082955,43.0297727 L25.2082955,19.2740909" id="Stroke-11"></path>
                            <path d="M16.7377273,40.7926136 L16.7377273,26.2517045" id="Stroke-13"></path>
                            <path d="M34.1382955,40.4019318 L34.1382955,16.43375" id="Stroke-15"></path>
                            <polyline id="Stroke-17" points="13.9251136 27.9752273 16.7376136 25.1627273 19.5501136 27.9752273"></polyline>
                            <polyline id="Stroke-19" points="22.39625 22.0859091 25.20875 19.2734091 28.02125 22.0859091"></polyline>
                            <polyline id="Stroke-21" points="31.3256818 18.2595455 34.1381818 15.4470455 36.9506818 18.2595455"></polyline>
                        </g>
                    </g>
                </g>
            </g>
        </g>
    </g>
</svg>