<?xml version="1.0" encoding="UTF-8"?>
<svg width="70px" height="70px" viewBox="0 0 70 70" version="1.1" xmlns="http://www.w3.org/2000/svg" xmlns:xlink="http://www.w3.org/1999/xlink">
    <!-- Generator: Sketch 51.2 (57519) - http://www.bohemiancoding.com/sketch -->
    <title>Group</title>
    <desc>Created with Sketch.</desc>
    <defs></defs>
    <g id="Welcome" stroke="none" stroke-width="1" fill="none" fill-rule="evenodd">
        <g id="Factoring-Page" transform="translate(-511.000000, -745.000000)">
            <g id="CC-core-benefits" transform="translate(0.000000, 664.000000)">
                <g id="Icons" transform="translate(98.000000, 81.000000)">
                    <g id="Group" transform="translate(413.000000, 0.000000)">
                        <circle id="Oval-2" fill="#FCF4F0" cx="35" cy="35" r="35"></circle>
                        <path d="M17.3861364,35.2085227 C17.3861364,25.3653409 25.3656818,17.3857955 35.2088636,17.3857955 C45.0509091,17.3857955 53.0304545,25.3653409 53.0304545,35.2085227 C53.0304545,45.0505682 45.0509091,53.03125 35.2088636,53.03125 C25.3656818,53.03125 17.3861364,45.0505682 17.3861364,35.2085227 Z" id="Stroke-1" stroke="#CB6D35" stroke-width="1.5"></path>
                        <path d="M28.3047727,35.2085227 C28.3047727,32.6289773 28.5172727,30.1778409 28.8979545,27.9653409 C29.0161364,27.2846591 29.1490909,26.6267045 29.2979545,25.9948864 C30.5070455,20.8357955 32.7013636,17.3857955 35.2081818,17.3857955 C37.7161364,17.3857955 39.9115909,20.8380682 41.1206818,26.0005682 C41.7502273,28.6892045 42.1115909,31.8392045 42.1115909,35.2085227 C42.1115909,38.5801136 41.7490909,41.7323864 41.1195455,44.4198864 C39.9093182,49.5801136 37.715,53.03125 35.2081818,53.03125 C32.7013636,53.03125 30.5070455,49.5801136 29.2979545,44.4198864 C28.6672727,41.7323864 28.3047727,38.5801136 28.3047727,35.2085227 Z" id="Stroke-3" stroke="#CB6D35" stroke-width="1.5"></path>
                        <path d="M17.3861364,35.2085227 C17.3861364,29.8164773 25.3656818,25.44375 35.2088636,25.44375 C45.0509091,25.44375 53.0304545,29.8164773 53.0304545,35.2085227 C53.0304545,40.6005682 45.0509091,44.9721591 35.2088636,44.9721591 C25.3656818,44.9721591 17.3861364,40.6005682 17.3861364,35.2085227 Z" id="Stroke-5" stroke="#CB6D35" stroke-width="1.5"></path>
                        <path d="M31.4014773,35.2085227 C31.4014773,33.1051136 33.1060227,31.4005682 35.2082955,31.4005682 C37.3105682,31.4005682 39.0151136,33.1051136 39.0151136,35.2085227 C39.0151136,37.3107955 37.3105682,39.0153409 35.2082955,39.0153409 C33.1060227,39.0153409 31.4014773,37.3107955 31.4014773,35.2085227" id="Fill-7" fill="#CB6D35"></path>
                        <path d="M57.3675,25.0845455 C58.7777273,28.1686364 59.5640909,31.5959091 59.5640909,35.2084091 C59.5640909,48.6595455 48.6595455,59.5652273 35.2084091,59.5652273 C31.5675,59.5652273 28.1140909,58.7663636 25.0118182,57.3345455" id="Stroke-9" stroke="#CB6D35" stroke-width="1.5" stroke-linecap="round"></path>
                        <path d="M13.2063636,45.6678409 C11.6972727,42.4985227 10.8518182,38.9519318 10.8518182,35.20875 C10.8518182,21.7564773 21.7563636,10.8519318 35.2086364,10.8519318 C39.0279545,10.8519318 42.6415909,11.7314773 45.8586364,13.2985227" id="Stroke-11" stroke="#CB6D35" stroke-width="1.5" stroke-linecap="round"></path>
                        <path d="M15.5872727,52.1486364 C15.5872727,50.8418182 16.6475,49.7815909 17.9543182,49.7815909 C19.2622727,49.7815909 20.3225,50.8418182 20.3225,52.1486364 C20.3225,53.4565909 19.2622727,54.5168182 17.9543182,54.5168182 C16.6475,54.5168182 15.5872727,53.4565909 15.5872727,52.1486364 Z" id="Stroke-13" stroke="#CB6D35" stroke-width="1.5" stroke-linecap="round"></path>
                        <path d="M49.6781818,18.2673864 C49.6781818,16.9605682 50.7384091,15.9003409 52.0452273,15.9003409 C53.3531818,15.9003409 54.4134091,16.9605682 54.4134091,18.2673864 C54.4134091,19.5742045 53.3531818,20.6355682 52.0452273,20.6355682 C50.7384091,20.6355682 49.6781818,19.5742045 49.6781818,18.2673864 Z" id="Stroke-15" stroke="#CB6D35" stroke-width="1.5" stroke-linecap="round"></path>
                    </g>
                </g>
            </g>
        </g>
    </g>
</svg>