
<svg width="39px" height="39px" viewBox="0 0 39 39" version="1.1" xmlns="http://www.w3.org/2000/svg" xmlns:xlink="http://www.w3.org/1999/xlink">
    <!-- Generator: Sketch 51.2 (57519) - http://www.bohemiancoding.com/sketch -->
    <desc>Created with Sketch.</desc>
    <defs></defs>
    <g id="Welcome" stroke="none" stroke-width="1" fill="none" fill-rule="evenodd">
        <g id="Factoring-Page" transform="translate(-606.000000, -3502.000000)" fill="#ABDEC9">
            <g id="Footer" transform="translate(-3.000000, 3440.000000)">
                <g id="Group-36" transform="translate(609.000000, 61.000000)">
                    <path d="M19.1885,2.5191 C9.4345,2.5191 1.5005,10.4541 1.5005,20.2071 C1.5005,29.9611 9.4345,37.8961 19.1885,37.8961 C28.9425,37.8961 36.8765,29.9611 36.8765,20.2071 C36.8765,10.4541 28.9425,2.5191 19.1885,2.5191 M19.1885,39.3961 C8.6085,39.3961 0.0005,30.7881 0.0005,20.2071 C0.0005,9.6271 8.6085,1.0191 19.1885,1.0191 C29.7685,1.0191 38.3765,9.6271 38.3765,20.2071 C38.3765,30.7881 29.7685,39.3961 19.1885,39.3961" id="Fill-1"></path>
                    <path d="M15.7344,38.105 L14.8304,37.676 C14.8954,37.461 14.9184,36.172 14.8044,33.825 L14.3754,33.88 C10.2504,34.563 8.0624,29.349 7.9714,29.126 C7.7984,28.52 6.8354,28.103 6.0564,27.913 C5.7484,27.838 5.5314,27.563 5.5314,27.244 L5.5314,26.921 C5.5314,26.581 5.7834,26.287 6.1174,26.237 C9.2224,25.767 12.0234,29.385 12.1424,29.54 C13.1164,30.412 14.1044,30.278 14.7514,30.001 C14.9224,29.927 15.0504,29.746 15.0914,29.515 C15.1704,29.087 15.3494,28.615 15.6274,28.108 C10.5364,27.293 8.9514,23.891 8.8854,23.745 C5.9894,18.608 8.8654,14.436 9.7134,13.383 C8.7494,10.915 9.8014,8.803 9.8484,8.71 L9.9774,8.459 L10.2594,8.439 C12.6304,8.283 15.0734,9.784 15.8114,10.286 C20.0224,8.841 23.4194,9.847 24.4884,10.248 C26.1674,8.539 29.1954,8.184 29.3294,8.169 L29.6344,8.135 L29.8034,8.393 C31.1074,10.39 30.4794,12.666 30.1864,13.472 C31.6914,15.376 32.1714,18.165 32.1914,18.288 C32.2274,18.514 32.2544,18.732 32.2724,18.948 C32.5994,22.856 29.9544,26.535 25.9814,27.697 C25.4064,27.865 24.8144,27.996 24.1734,28.098 C24.1094,28.108 24.0784,28.15 24.0644,28.173 C24.0514,28.197 24.0334,28.246 24.0584,28.306 L24.8744,30.224 C25.1604,30.897 25.3044,31.609 25.3044,32.34 L25.3044,37.507 L24.3044,37.507 L24.3044,32.34 C24.3044,31.744 24.1864,31.164 23.9544,30.615 L23.1384,28.697 C22.9994,28.368 23.0174,28.001 23.1894,27.689 C23.3624,27.378 23.6634,27.167 24.0154,27.111 C24.6154,27.015 25.1664,26.893 25.7004,26.737 C29.2184,25.709 31.5634,22.468 31.2764,19.032 C31.2594,18.842 31.2354,18.647 31.2044,18.448 C31.2004,18.424 30.7084,15.575 29.2364,13.893 L29.0244,13.65 L29.1574,13.356 C29.1684,13.333 30.1484,11.114 29.1274,9.21 C28.3084,9.35 26.1004,9.839 25.0094,11.161 L24.7644,11.458 L24.4144,11.296 C24.3774,11.279 20.6224,9.596 15.9064,11.313 L15.6544,11.404 L15.4374,11.245 C15.4124,11.226 12.9574,9.43 10.6304,9.427 C10.4094,10.029 9.9884,11.585 10.7494,13.266 L10.8884,13.573 L10.6554,13.818 C10.4964,13.985 6.7854,17.985 9.7774,23.294 C9.8554,23.461 11.2854,26.465 15.9474,27.146 C16.2414,27.188 16.4924,27.372 16.6204,27.636 C16.7434,27.893 16.7314,28.193 16.5874,28.44 C16.3174,28.904 16.1404,29.338 16.0764,29.694 C15.9744,30.255 15.6274,30.714 15.1454,30.92 C14.3954,31.243 12.9124,31.576 11.4094,30.214 C11.3344,30.127 9.3924,27.633 7.2294,27.246 C7.9254,27.536 8.6984,28.024 8.9164,28.802 C8.9204,28.802 10.8854,33.444 14.2944,32.887 L14.8604,32.88 C15.3644,32.88 15.7784,33.274 15.8024,33.776 C15.9874,37.571 15.8094,37.945 15.7344,38.105" id="Fill-3"></path>
                </g>
            </g>
        </g>
    </g>
</svg>
