
<svg width="39px" height="39px" viewBox="0 0 39 39" version="1.1" xmlns="http://www.w3.org/2000/svg" xmlns:xlink="http://www.w3.org/1999/xlink">
    <!-- Generator: Sketch 51.2 (57519) - http://www.bohemiancoding.com/sketch -->
    <desc>Created with Sketch.</desc>
    <defs></defs>
    <g id="Welcome" stroke="none" stroke-width="1" fill="none" fill-rule="evenodd">
        <g id="Factoring-Page" transform="translate(-765.000000, -3502.000000)" fill="#ABDEC9">
            <g id="Footer" transform="translate(-3.000000, 3440.000000)">
                <g id="Group-36" transform="translate(609.000000, 61.000000)">
                    <path d="M178.1152,14.6763 C172.6992,14.6763 168.2932,17.8433 168.2932,21.7363 C168.2932,25.6293 172.6992,28.7963 178.1152,28.7963 C183.5302,28.7963 187.9362,25.6293 187.9362,21.7363 C187.9362,17.8433 183.5302,14.6763 178.1152,14.6763 M178.1152,29.7963 C172.1472,29.7963 167.2932,26.1803 167.2932,21.7363 C167.2932,17.2923 172.1472,13.6763 178.1152,13.6763 C184.0822,13.6763 188.9362,17.2923 188.9362,21.7363 C188.9362,26.1803 184.0822,29.7963 178.1152,29.7963" id="Fill-12"></path>
                    <path d="M167.4102,22.4795 C166.0602,22.0415 165.2862,20.7385 165.2862,18.9045 C165.2862,16.6865 167.0902,14.8825 169.3072,14.8825 C170.0862,14.8825 170.8412,15.1045 171.4912,15.5255 L170.9482,16.3655 C170.4602,16.0495 169.8922,15.8825 169.3072,15.8825 C167.6412,15.8825 166.2862,17.2375 166.2862,18.9045 C166.2862,19.7105 166.4732,21.1245 167.7192,21.5285 L167.4102,22.4795 Z" id="Fill-14"></path>
                    <path d="M188.8232,22.3677 L188.5142,21.4167 C189.7602,21.0127 189.9472,19.5987 189.9472,18.7927 C189.9472,17.1257 188.5922,15.7707 186.9252,15.7707 C186.3412,15.7707 185.7732,15.9377 185.2852,16.2537 L184.7422,15.4137 C185.3922,14.9927 186.1472,14.7707 186.9252,14.7707 C189.1422,14.7707 190.9472,16.5747 190.9472,18.7927 C190.9472,20.6267 190.1732,21.9297 188.8232,22.3677" id="Fill-16"></path>
                    <path d="M172.7773,20.2076 C172.7773,19.3516 173.4703,18.6576 174.3273,18.6576 C175.1823,18.6576 175.8773,19.3516 175.8773,20.2076 C175.8773,21.0636 175.1823,21.7576 174.3273,21.7576 C173.4703,21.7576 172.7773,21.0636 172.7773,20.2076" id="Fill-18"></path>
                    <path d="M180.1562,20.2076 C180.1562,19.3516 180.8492,18.6576 181.7062,18.6576 C182.5612,18.6576 183.2562,19.3516 183.2562,20.2076 C183.2562,21.0636 182.5612,21.7576 181.7062,21.7576 C180.8492,21.7576 180.1562,21.0636 180.1562,20.2076" id="Fill-20"></path>
                    <path d="M178.2227,26.2881 C175.5807,26.2881 173.5137,24.6351 173.4827,24.6101 C173.2687,24.4351 173.2377,24.1211 173.4107,23.9071 C173.5837,23.6941 173.8997,23.6601 174.1147,23.8351 C174.2787,23.9681 178.1757,27.0571 181.8157,23.8481 C182.0257,23.6641 182.3387,23.6841 182.5217,23.8921 C182.7037,24.0991 182.6847,24.4151 182.4777,24.5981 C181.0387,25.8661 179.5577,26.2881 178.2227,26.2881" id="Fill-22"></path>
                    <path d="M177.9365,14.6778 C177.8765,14.6778 177.8175,14.6678 177.7585,14.6448 C177.5005,14.5468 177.3715,14.2578 177.4695,13.9998 L179.5865,8.4368 L183.8325,9.6358 C184.0975,9.7108 184.2525,9.9868 184.1775,10.2528 C184.1015,10.5178 183.8245,10.6748 183.5605,10.5978 L180.1965,9.6478 L178.4035,14.3558 C178.3285,14.5548 178.1375,14.6778 177.9365,14.6778" id="Fill-24"></path>
                    <path d="M185.9502,8.9283 C184.9352,8.9283 184.1102,9.7533 184.1102,10.7683 C184.1102,11.7823 184.9352,12.6083 185.9502,12.6083 C186.9652,12.6083 187.7902,11.7823 187.7902,10.7683 C187.7902,9.7533 186.9652,8.9283 185.9502,8.9283 M185.9502,13.6083 C184.3852,13.6083 183.1102,12.3343 183.1102,10.7683 C183.1102,9.2023 184.3852,7.9283 185.9502,7.9283 C187.5152,7.9283 188.7902,9.2023 188.7902,10.7683 C188.7902,12.3343 187.5152,13.6083 185.9502,13.6083" id="Fill-26"></path>
                    <path d="M178.3047,2.5791 C168.5507,2.5791 160.6167,10.5141 160.6167,20.2671 C160.6167,30.0211 168.5507,37.9561 178.3047,37.9561 C188.0587,37.9561 195.9927,30.0211 195.9927,20.2671 C195.9927,10.5141 188.0587,2.5791 178.3047,2.5791 M178.3047,39.4561 C167.7247,39.4561 159.1167,30.8481 159.1167,20.2671 C159.1167,9.6871 167.7247,1.0791 178.3047,1.0791 C188.8847,1.0791 197.4927,9.6871 197.4927,20.2671 C197.4927,30.8481 188.8847,39.4561 178.3047,39.4561" id="Fill-28"></path>
                </g>
            </g>
        </g>
    </g>
</svg>
