
<svg width="39px" height="39px" viewBox="0 0 39 39" version="1.1" xmlns="http://www.w3.org/2000/svg" xmlns:xlink="http://www.w3.org/1999/xlink">
    <!-- Generator: Sketch 51.2 (57519) - http://www.bohemiancoding.com/sketch -->
    <desc>Created with Sketch.</desc>
    <defs></defs>
    <g id="Welcome" stroke="none" stroke-width="1" fill="none" fill-rule="evenodd">
        <g id="Factoring-Page" transform="translate(-712.000000, -3502.000000)" fill="#ABDEC9">
            <g id="Footer" transform="translate(-3.000000, 3440.000000)">
                <g id="Group-36" transform="translate(609.000000, 61.000000)">
                    <path d="M125.459,2.5191 C115.705,2.5191 107.771,10.4541 107.771,20.2071 C107.771,29.9611 115.705,37.8961 125.459,37.8961 C135.213,37.8961 143.147,29.9611 143.147,20.2071 C143.147,10.4541 135.213,2.5191 125.459,2.5191 M125.459,39.3961 C114.879,39.3961 106.271,30.7881 106.271,20.2071 C106.271,9.6271 114.879,1.0191 125.459,1.0191 C136.039,1.0191 144.647,9.6271 144.647,20.2071 C144.647,30.7881 136.039,39.3961 125.459,39.3961" id="Fill-10"></path>
                    <path d="M124.4756,26.4249 C124.8766,26.4249 125.2806,26.5409 125.6326,26.7739 L130.6206,30.0779 L134.9956,12.0739 C135.0376,11.8989 134.9366,11.7869 134.8906,11.7479 C134.8456,11.7079 134.7216,11.6219 134.5546,11.6899 L134.5536,11.6899 L112.2046,20.4249 L117.6156,22.0899 C118.1796,22.2549 118.6326,22.6859 118.8276,23.2409 L120.7856,28.8449 L123.1776,26.8749 C123.5576,26.5759 124.0156,26.4249 124.4756,26.4249 M130.6426,31.0849 C130.4416,31.0849 130.2406,31.0259 130.0676,30.9119 L125.0806,27.6079 C124.6856,27.3459 124.1686,27.3679 123.7966,27.6609 L121.3246,29.6079 C121.0826,29.7969 120.7646,29.8589 120.4706,29.7729 C120.1776,29.6869 119.9426,29.4639 119.8416,29.1749 L117.8836,23.5709 C117.7946,23.3199 117.5896,23.1239 117.3336,23.0499 L111.9276,21.4629 C111.4936,21.3359 111.2006,20.9609 111.1806,20.5089 C111.1606,20.0569 111.4196,19.6579 111.8406,19.4929 L134.1906,10.7579 C134.6496,10.5769 135.1716,10.6669 135.5476,10.9939 C135.9226,11.3209 136.0836,11.8229 135.9676,12.3069 L131.6556,30.2869 C131.5756,30.6169 131.3396,30.8879 131.0246,31.0119 C130.9016,31.0609 130.7716,31.0849 130.6426,31.0849" id="Fill-30"></path>
                    <path d="M121.5107,29.273 L120.5187,29.156 L121.1157,24.092 L127.0077,18.379 L117.6977,23.017 L117.2517,22.122 L127.7207,16.907 C128.0787,16.731 128.5007,16.838 128.7287,17.161 C128.9577,17.485 128.9177,17.92 128.6337,18.196 L122.0677,24.563 L121.5107,29.273 Z" id="Fill-32"></path>
                    <polygon id="Fill-34" points="125.0547 27.5889 121.2887 24.7259 121.8947 23.9299 125.6597 26.7929"></polygon>
                </g>
            </g>
        </g>
    </g>
</svg>
