
<svg width="40px" height="39px" viewBox="0 0 40 39" version="1.1" xmlns="http://www.w3.org/2000/svg" xmlns:xlink="http://www.w3.org/1999/xlink">
    <!-- Generator: Sketch 51.2 (57519) - http://www.bohemiancoding.com/sketch -->
    <desc>Created with Sketch.</desc>
    <defs>
        <polygon id="path-1" points="0.9751 0.544 39.3511 0.544 39.3511 38.9209 0.9751 38.9209"></polygon>
    </defs>
    <g id="Welcome" stroke="none" stroke-width="1" fill="none" fill-rule="evenodd">
        <g id="Factoring-Page" transform="translate(-658.000000, -3502.000000)">
            <g id="Footer" transform="translate(-3.000000, 3440.000000)">
                <g id="Group-36" transform="translate(609.000000, 61.000000)">
                    <path d="M81.6074,14.4307 L81.6044,14.4317 L81.6074,14.4307 Z M63.1124,26.2187 C64.7954,27.2207 66.7104,27.7487 68.6734,27.7487 C72.5664,27.7487 75.0634,25.9897 76.4724,24.5137 C78.4764,22.4237 79.6314,19.4547 79.5644,16.5697 L79.5584,16.3157 L79.7604,16.1607 C80.3604,15.7027 80.8884,15.1597 81.3354,14.5457 C81.2094,14.5947 81.0854,14.6387 80.9534,14.6827 L79.4194,15.1967 L80.3954,13.9067 C80.6044,13.6307 80.7824,13.3057 80.9144,12.9567 C80.2984,13.3527 79.5754,13.6357 78.8404,13.7967 L78.5844,13.8527 L78.3924,13.6727 C77.6734,12.9997 76.7444,12.6287 75.7744,12.6287 C74.6154,12.6287 73.5414,13.1497 72.8284,14.0577 C72.2094,14.8347 71.9234,15.7997 72.0214,16.7787 L72.0834,17.3867 L71.4744,17.3257 C68.6154,17.0377 65.9284,15.6077 64.0824,13.3957 C63.4044,14.6467 63.4924,16.1957 64.3144,17.3717 L65.4424,18.9867 L63.6804,18.1057 C63.6444,18.0877 63.6114,18.0717 63.5824,18.0567 C63.5964,19.1767 64.1674,20.2897 65.1314,21.0067 L66.1784,21.7847 L64.9744,21.8967 C65.3874,23.0517 66.3224,23.9367 67.4944,24.2787 L68.6234,24.6067 L67.6034,25.1917 C66.2404,25.9737 64.6994,26.3237 63.1124,26.2187 Z M68.6734,28.7487 C66.3974,28.7487 64.1804,28.0987 62.2644,26.8687 C61.9174,26.6517 61.7564,26.2017 61.8894,25.8017 C62.0564,25.3697 62.4744,25.1267 62.8874,25.1957 C64.0024,25.3217 65.1164,25.1777 66.1474,24.7807 C65.1364,24.1927 64.3614,23.2467 63.9884,22.1037 C63.9174,21.8547 63.9434,21.6077 64.0524,21.3997 C63.1024,20.4807 62.5664,19.2157 62.5944,17.9077 C62.6154,17.5827 62.7724,17.3117 63.0274,17.1417 C63.0314,17.1397 63.0354,17.1377 63.0394,17.1357 C62.4284,15.7507 62.4984,14.1297 63.2714,12.7977 C63.4274,12.5317 63.6994,12.3607 63.9994,12.3397 C64.3024,12.3197 64.5684,12.4327 64.7664,12.6547 C66.3394,14.5817 68.5854,15.8687 71.0044,16.2567 C71.0354,15.2357 71.3944,14.2527 72.0434,13.4367 C72.9464,12.2887 74.3064,11.6287 75.7744,11.6287 C76.9084,11.6287 77.9984,12.0287 78.8714,12.7617 C79.4514,12.6087 80.0244,12.3657 80.5804,12.0377 C80.9274,11.8527 81.3184,11.8837 81.6124,12.1147 C81.9154,12.3517 82.0354,12.7417 81.9214,13.1067 C81.8804,13.2297 81.8364,13.3497 81.7864,13.4677 C81.9664,13.5127 82.1354,13.6137 82.2644,13.7637 C82.5304,14.0757 82.5564,14.5287 82.3294,14.8677 C81.8374,15.5997 81.2464,16.2487 80.5674,16.7987 C80.5704,19.8637 79.3204,22.9887 77.1954,25.2047 C75.6524,26.8207 72.9194,28.7487 68.6734,28.7487 Z" id="Fill-5" fill="#ABDEC9"></path>
                    <g id="Group-9" transform="translate(52.000000, 0.456100)">
                        <mask id="mask-2" fill="white">
                            <use xlink:href="#path-1"></use>
                        </mask>
                        <g id="Clip-8"></g>
                        <path d="M20.1631,2.0439 C10.4091,2.0439 2.4751,9.9789 2.4751,19.7319 C2.4751,29.4859 10.4091,37.4209 20.1631,37.4209 C29.9171,37.4209 37.8511,29.4859 37.8511,19.7319 C37.8511,9.9789 29.9171,2.0439 20.1631,2.0439 M20.1631,38.9209 C9.5831,38.9209 0.9751,30.3129 0.9751,19.7319 C0.9751,9.1519 9.5831,0.5439 20.1631,0.5439 C30.7431,0.5439 39.3511,9.1519 39.3511,19.7319 C39.3511,30.3129 30.7431,38.9209 20.1631,38.9209" id="Fill-7" fill="#ABDEC9" mask="url(#mask-2)"></path>
                    </g>
                </g>
            </g>
        </g>
    </g>
</svg>
