<?xml version="1.0" encoding="UTF-8"?>
<svg width="57px" height="31px" viewBox="0 0 57 31" version="1.1" xmlns="http://www.w3.org/2000/svg" xmlns:xlink="http://www.w3.org/1999/xlink">
    <!-- Generator: Sketch 51.2 (57519) - http://www.bohemiancoding.com/sketch -->
    <title>Whitepaper icon</title>
    <desc>Created with Sketch.</desc>
    <defs>
        <polygon id="path-1" points="0.000707317073 0.189518919 56.5903171 0.189518919 56.5903171 31 0.000707317073 31"></polygon>
    </defs>
    <g id="Welcome" stroke="none" stroke-width="1" fill="none" fill-rule="evenodd">
        <g id="Homepage" transform="translate(-569.000000, -2276.000000)">
            <g id="CTA" transform="translate(0.000000, 2019.000000)">
                <g id="Whitepaper-icon" transform="translate(569.000000, 257.000000)">
                    <g id="Group-3">
                        <mask id="mask-2" fill="white">
                            <use xlink:href="#path-1"></use>
                        </mask>
                        <g id="Clip-2"></g>
                        <path d="M2.41973171,16.4620054 L10.442122,16.4620054 L10.442122,27.1913568 C10.442122,28.5008973 8.64270732,29.5674649 6.43021951,29.5674649 C4.21914634,29.5674649 2.41973171,28.5008973 2.41973171,27.1913568 L2.41973171,16.4620054 Z M12.862561,27.1913568 L12.862561,1.62222162 L54.1712927,1.62222162 L54.1712927,26.4180324 C54.1712927,28.1540324 51.7848049,29.5674649 48.8536829,29.5674649 L11.455,29.5674649 C12.3349024,28.9147892 12.862561,28.0886811 12.862561,27.1913568 Z M6.43021951,31.0001676 L48.8536829,31.0001676 C53.1202195,31.0001676 56.5903171,28.9441135 56.5903171,26.4180324 L56.5903171,0.90587027 C56.5903171,0.510410811 56.0485122,0.189518919 55.3808049,0.189518919 L11.6516341,0.189518919 C10.9839268,0.189518919 10.442122,0.510410811 10.442122,0.90587027 L10.442122,15.0284649 L1.21021951,15.0284649 C0.541097561,15.0284649 0.000707317073,15.3501946 0.000707317073,15.7456541 L0.000707317073,27.1913568 C0.000707317073,29.2918162 2.88514634,31.0001676 6.43021951,31.0001676 Z" id="Fill-1" fill="#FCF4F0" mask="url(#mask-2)"></path>
                    </g>
                    <path d="M44.8744115,20 L19.9491179,20 C19.2952671,20 18.7647059,20.2239766 18.7647059,20.5 C18.7647059,20.7760234 19.2952671,21 19.9491179,21 L44.8744115,21 C45.5296476,21 46.0588235,20.7760234 46.0588235,20.5 C46.0588235,20.2239766 45.5296476,20 44.8744115,20" id="Fill-4" fill="#FCF4F0"></path>
                    <path d="M44.8744115,15 L19.9491179,15 C19.2952671,15 18.7647059,15.2238457 18.7647059,15.4997078 C18.7647059,15.7755698 19.2952671,16 19.9491179,16 L44.8744115,16 C45.5296476,16 46.0588235,15.7755698 46.0588235,15.4997078 C46.0588235,15.2238457 45.5296476,15 44.8744115,15" id="Fill-6" fill="#FCF4F0"></path>
                    <path d="M19.9418886,9 L32.9404643,9 C33.5917011,9 34.1176471,8.7761543 34.1176471,8.50029223 C34.1176471,8.22443016 33.5917011,8 32.9404643,8 L19.9418886,8 C19.2920287,8 18.7647059,8.22443016 18.7647059,8.50029223 C18.7647059,8.7761543 19.2920287,9 19.9418886,9" id="Fill-8" fill="#FCF4F0"></path>
                </g>
            </g>
        </g>
    </g>
</svg>