<?xml version="1.0" encoding="UTF-8"?>
<svg width="350px" height="312px" viewBox="0 0 350 312" version="1.1" xmlns="http://www.w3.org/2000/svg" xmlns:xlink="http://www.w3.org/1999/xlink">
    <!-- Generator: Sketch 51.2 (57519) - http://www.bohemiancoding.com/sketch -->
    <title>Group</title>
    <desc>Created with Sketch.</desc>
    <defs>
        <polygon id="path-1" points="0 312 350 312 350 0 0 0"></polygon>
    </defs>
    <g id="Welcome" stroke="none" stroke-width="1" fill="none" fill-rule="evenodd">
        <g id="Homepage" transform="translate(-212.000000, -2496.000000)">
            <g id="Factoring" transform="translate(0.000000, 2429.000000)">
                <g id="Group" transform="translate(212.000000, 67.000000)">
                    <path d="M159,120.709974 L140.742487,120.026719 C136.39057,119.857197 132.253472,118.117534 129.112924,115.138502 L115.382327,102.109113 C113.793715,100.600991 111.271426,100.635102 109.725778,102.185605 L82.1556025,129.825894 C80.6057625,131.379497 80.6162415,133.873739 82.1786562,135.415972 L111.156158,164" id="Stroke-1" stroke="#579170" stroke-width="2"></path>
                    <path d="M210.196916,102.304264 L196.089788,115.849143 C193.35055,118.479338 189.334468,119.309871 185.767064,117.985395 L177.278886,114.831037 C171.636873,112.735426 165.285153,114.03906 160.94095,118.185473 L135.5477,142.415779 C134.82751,143.103548 134.815979,144.244619 135.522541,144.946977 C141.46437,150.853453 151.058518,150.979544 157.154449,145.230422 L171.699772,131.515685 C173.690515,129.638909 176.828112,129.706644 178.736039,131.664701 L212.916236,166 L243.59717,136.116442 C245.444295,134.317822 245.470503,131.370836 243.656924,129.53887 L216.775071,102.386588 C214.977217,100.570253 212.041944,100.53378 210.196916,102.304264 Z" id="Stroke-3" stroke="#579170" stroke-width="2"></path>
                    <path d="M130.258792,171.976255 L112.97611,189.258811 C109.322213,192.91373 103.395106,192.91373 99.7412085,189.258811 C96.0862638,185.603893 96.0862638,179.678925 99.7412085,176.022959 L117.02389,158.740403 C120.677787,155.086532 126.604894,155.086532 130.258792,158.740403 C133.913736,162.395321 133.913736,168.321337 130.258792,171.976255 Z" id="Stroke-5" stroke="#579170" stroke-width="2"></path>
                    <path d="M143.258811,184.976255 L125.976255,202.258811 C122.321337,205.91373 116.395321,205.91373 112.740403,202.258811 C109.086532,198.603893 109.086532,192.678925 112.740403,189.022959 L130.022959,171.740403 C133.677877,168.086532 139.603893,168.086532 143.258811,171.740403 C146.91373,175.395321 146.91373,181.321337 143.258811,184.976255 Z" id="Stroke-7" stroke="#579170" stroke-width="2"></path>
                    <path d="M156.258871,197.976692 L138.976692,215.258871 C135.321854,218.91371 129.395967,218.91371 125.741129,215.258871 C122.08629,211.604033 122.08629,205.679193 125.741129,202.023308 L143.023308,184.741129 C146.678146,181.08629 152.604033,181.08629 156.258871,184.741129 C159.91371,188.395967 159.91371,194.321854 156.258871,197.976692 Z" id="Stroke-9" stroke="#579170" stroke-width="2"></path>
                    <path d="M170.258871,209.977041 L152.976692,227.259597 C149.321854,230.913468 143.395967,230.913468 139.741129,227.259597 C136.08629,223.604679 136.08629,217.67971 139.741129,214.023745 L157.023308,196.741189 C160.678146,193.08627 166.604033,193.08627 170.258871,196.741189 C173.91371,200.396107 173.91371,206.322123 170.258871,209.977041 Z" id="Stroke-11" stroke="#579170" stroke-width="2"></path>
                    <path d="M201,179.956877 L204.891684,183.58452 C208.444014,186.896192 214.092664,186.789526 217.508007,183.345025 C220.924387,179.900525 220.814382,174.424343 217.262052,171.111665 L212.878459,167" id="Stroke-13" stroke="#579170" stroke-width="2"></path>
                    <path d="M188,193.505656 L191.891868,197.404164 C195.444366,200.963108 201.093283,200.848477 204.508787,197.146787 C207.924291,193.445096 207.81428,187.560025 204.261783,184" id="Stroke-15" stroke="#579170" stroke-width="2"></path>
                    <path d="M175,206.504661 L178.891868,210.403205 C182.444366,213.963262 188.092245,213.848631 191.508787,210.146907 L191.508787,210.145825 C194.924291,206.445182 194.81428,200.558976 191.261783,197" id="Stroke-17" stroke="#579170" stroke-width="2"></path>
                    <path d="M162,218.504661 L165.891868,222.403205 C169.444366,225.963262 175.092245,225.848631 178.508787,222.146907 C181.924291,218.445182 181.81428,212.558976 178.261783,209" id="Stroke-19" stroke="#579170" stroke-width="2"></path>
                    <path d="M14,204 C9.45542068,188.927778 7,172.848787 7,156.155479 C7,140.817436 9.07353146,125.997429 12.9353984,112" id="Stroke-21" stroke="#579170" stroke-width="2"></path>
                    <path d="M266,270 C238.549099,295.470836 202.04252,311 161.975643,311 C123.373854,311 88.07865,296.585582 61,272.756694" id="Stroke-23" stroke="#579170" stroke-width="2"></path>
                    <path d="M316,166 C314.487996,189.492439 307.770596,211.548936 297,231" id="Stroke-25" stroke="#579170" stroke-width="2"></path>
                    <path d="M292,71 C303.311798,88.2369352 311.287814,107.879727 315,129" id="Stroke-27" stroke="#579170" stroke-width="2"></path>
                    <path d="M80,24 C103.875918,9.42648749 132.11742,1 162.381845,1 C190.655739,1 217.165845,8.35487578 240,21.2060826" id="Stroke-29" stroke="#579170" stroke-width="2"></path>
                    <path d="M33,70 C36.0835453,65.1297597 39.4243788,60.4551571 43,56" id="Stroke-31" stroke="#579170" stroke-width="2"></path>
                    <path d="M32.8569785,99.3002383 C32.0946127,100.037103 31.0675805,100.499188 29.7779908,100.68752 L29.7779908,101.953364 C29.7779908,102.262106 29.6809816,102.513216 29.4890721,102.708753 C29.2971626,102.902232 29.0419862,103 28.7267063,103 C28.4103719,103 28.15625,102.902232 27.9643405,102.708753 C27.772431,102.513216 27.6764762,102.262106 27.6764762,101.953364 L27.6764762,100.727657 C26.8930215,100.659734 26.1317101,100.499188 25.3893788,100.24499 C24.648102,99.9907919 24.0091066,99.655292 23.4745015,99.239519 C23.2952454,99.1191095 23.171875,98.9842921 23.1033359,98.838154 C23.0347968,98.6899578 23,98.5088289 23,98.2937385 C23,98.012783 23.0854103,97.7657892 23.2572853,97.5506987 C23.4291603,97.3366374 23.6252876,97.2285776 23.8446127,97.2285776 C23.981691,97.2285776 24.1092791,97.253277 24.2252684,97.2995883 C24.3423121,97.3469288 24.4962615,97.4241144 24.6892255,97.5301159 C25.3208397,97.93251 25.9419095,98.2278735 26.5534893,98.4151771 C27.165069,98.6024808 27.8061733,98.6971617 28.4799655,98.6971617 C29.399444,98.6971617 30.1101419,98.5222078 30.612059,98.173329 C31.1129218,97.8254794 31.3628259,97.3232586 31.3628259,96.6656375 C31.3628259,96.2766223 31.2257477,95.9627343 30.9515913,95.7208861 C30.6763804,95.4800672 30.3336848,95.2896761 29.9213957,95.1486838 C29.5091066,95.0076915 28.9323236,94.8430289 28.1910468,94.6557253 C27.1608512,94.4004983 26.3236196,94.1421839 25.6782975,93.8807821 C25.0329755,93.6193803 24.476227,93.2221319 24.0091066,92.6849204 C23.5430406,92.1497671 23.3089532,91.426281 23.3089532,90.5144621 C23.3089532,89.4276893 23.7075345,88.5035207 24.5036426,87.7398982 C25.2997508,86.9752465 26.3436541,86.4997833 27.6353528,86.3114505 L27.6353528,85.0445781 C27.6353528,84.7378941 27.7313075,84.4847254 27.923217,84.2912469 C28.1151265,84.0977684 28.3692485,84 28.6855828,84 C29.0008627,84 29.2549847,84.0977684 29.4479486,84.2912469 C29.6398581,84.4847254 29.7368673,84.7378941 29.7368673,85.0445781 L29.7368673,86.2908677 C31.1224118,86.4658217 32.3181557,86.9556928 33.3198811,87.7594518 C33.6499233,88.0013 33.8154716,88.315188 33.8154716,88.7042032 C33.8154716,88.9861878 33.7290069,89.2342108 33.5571319,89.4482721 C33.3852569,89.6633626 33.1828029,89.7693641 32.9497699,89.7693641 C32.8263995,89.7693641 32.705138,89.7498104 32.5891488,89.7096739 C32.4721051,89.6695374 32.3181557,89.5882353 32.1262462,89.4678258 C31.5621166,89.0798397 31.0306748,88.7885928 30.5287577,88.5940851 C30.0278949,88.3995775 29.4342408,88.3018091 28.7477952,88.3018091 C27.8958014,88.3018091 27.2156825,88.4860253 26.7074387,88.8554869 C26.2002492,89.2239194 25.9461273,89.7292276 25.9461273,90.3724407 C25.9461273,90.8160004 26.0905867,91.1741415 26.3784509,91.4489221 C26.6663152,91.7237027 27.0311541,91.9346766 27.4698044,92.0818438 C27.9095092,92.2300401 28.5073811,92.3967609 29.2623658,92.5850937 C30.2651457,92.8259127 31.0812883,93.0739357 31.7139571,93.3281335 C32.3455713,93.5833604 32.8843942,93.9682591 33.3304256,94.4838587 C33.7775115,95.0004875 34,95.7013325 34,96.5853645 C34,97.6577294 33.6193443,98.5623443 32.8569785,99.3002383" id="Fill-33" fill="#579170"></path>
                    <mask id="mask-2" fill="white">
                        <use xlink:href="#path-1"></use>
                    </mask>
                    <g id="Clip-36"></g>
                    <path d="M42.8019857,271.249635 L71.2490429,271.249635 L71.2490429,224.000209 L42.8019857,224.000209 L42.8019857,271.249635 Z M1.75095714,271.249635 L41.0520714,271.249635 L41.0520714,204.750365 L1.75095714,204.750365 L1.75095714,271.249635 Z M0,203 L0,273 L73,273 L73,222.249844 L42.8019857,222.249844 L42.8019857,203 L0,203 Z" id="Fill-35" fill="#579170" mask="url(#mask-2)"></path>
                    <polygon id="Fill-37" fill="#579170" mask="url(#mask-2)" points="20 245 22 245 22 233 20 233"></polygon>
                    <polygon id="Fill-38" fill="#579170" mask="url(#mask-2)" points="20 226 22 226 22 214 20 214"></polygon>
                    <polygon id="Fill-39" fill="#579170" mask="url(#mask-2)" points="20 265 22 265 22 253 20 253"></polygon>
                    <polygon id="Fill-40" fill="#579170" mask="url(#mask-2)" points="31 245 33 245 33 233 31 233"></polygon>
                    <polygon id="Fill-41" fill="#579170" mask="url(#mask-2)" points="31 226 33 226 33 214 31 214"></polygon>
                    <polygon id="Fill-42" fill="#579170" mask="url(#mask-2)" points="31 265 33 265 33 253 31 253"></polygon>
                    <polygon id="Fill-43" fill="#579170" mask="url(#mask-2)" points="10 245 12 245 12 233 10 233"></polygon>
                    <polygon id="Fill-44" fill="#579170" mask="url(#mask-2)" points="10 226 12 226 12 214 10 214"></polygon>
                    <polygon id="Fill-45" fill="#579170" mask="url(#mask-2)" points="10 265 12 265 12 253 10 253"></polygon>
                    <polygon id="Fill-46" fill="#579170" mask="url(#mask-2)" points="51 245 53 245 53 233 51 233"></polygon>
                    <polygon id="Fill-47" fill="#579170" mask="url(#mask-2)" points="51 265 53 265 53 253 51 253"></polygon>
                    <polygon id="Fill-48" fill="#579170" mask="url(#mask-2)" points="61 245 63 245 63 233 61 233"></polygon>
                    <polygon id="Fill-49" fill="#579170" mask="url(#mask-2)" points="61 265 63 265 63 253 61 253"></polygon>
                    <polygon id="Stroke-50" stroke="#579170" stroke-width="2" mask="url(#mask-2)" points="251.499479 11 251.499479 31.0766197 263 37.2227993 263 25.75 286 37.2227993 286 25.75 309 37.2227993 309 70 240 70 240 11"></polygon>
                    <path d="M84,38.0005172 C84,51.2543797 73.2543797,62 59.9994828,62 C53.8121404,62 48.1719568,59.6582843 43.9167367,55.8136919 C39.0554011,51.4219407 36,45.0680716 36,38.0005172 C36,24.7456203 46.7456203,14 59.9994828,14 C68.2844398,14 75.5878208,18.1972978 79.9009632,24.5811623 C82.4888487,28.4112742 84,33.029543 84,38.0005172 Z" id="Stroke-51" stroke="#579170" stroke-width="2" mask="url(#mask-2)"></path>
                    <path d="M47.0037313,34.7540843 C46.3973881,34.7540843 45.9328358,34.948655 45.6100746,35.338779 C45.2873134,35.7289031 45.1259328,36.2811694 45.1259328,36.9936126 C45.1259328,37.7158826 45.3050373,38.2710969 45.6632463,38.6622037 C46.0214552,39.051345 46.5037313,39.2459157 47.1100746,39.2459157 C47.4328358,39.2459157 47.7070896,39.2007124 47.9309701,39.1093232 C48.1557836,39.0179339 48.3703358,38.9137698 48.5755597,38.7978135 C48.7089552,38.9137698 48.8125,39.0533104 48.8880597,39.2154526 C48.9626866,39.3766122 49,39.5652868 49,39.7814765 C49,40.1214838 48.8208955,40.4094092 48.4626866,40.6462351 C48.1044776,40.8820784 47.5587687,41 46.8264925,41 C46.2994403,41 45.8031716,40.9213856 45.3386194,40.7641567 C44.8731343,40.6069279 44.4682836,40.3642059 44.1212687,40.0359907 C43.7751866,39.7087581 43.5018657,39.2940671 43.3003731,38.7919175 C43.0998134,38.2907505 43,37.6903329 43,36.9936126 C43,36.347009 43.0960821,35.7760717 43.2891791,35.2827662 C43.4822761,34.7894608 43.7453358,34.3718216 44.0802239,34.032797 C44.4151119,33.6918069 44.806903,33.4343447 45.255597,33.2604103 C45.704291,33.0864759 46.1847015,33 46.6968284,33 C47.4216418,33 47.9822761,33.1238177 48.380597,33.3734185 C48.7779851,33.6220366 48.9766791,33.9414077 48.9766791,34.3305491 C48.9766791,34.5467387 48.9253731,34.733448 48.8227612,34.8916595 C48.7201493,35.0488883 48.6026119,35.1736887 48.4682836,35.265078 C48.2639925,35.123572 48.045709,35.0027024 47.8134328,34.902469 C47.5811567,34.804201 47.3115672,34.7540843 47.0037313,34.7540843" id="Fill-52" fill="#579170" mask="url(#mask-2)"></path>
                    <path d="M53.2747349,36.9936126 C53.2747349,37.7492937 53.4304429,38.3133522 53.741859,38.6867707 C54.0542732,39.0601892 54.471491,39.2459157 54.9935122,39.2459157 C55.5245165,39.2459157 55.9457268,39.0601892 56.2571429,38.6867707 C56.5695571,38.3133522 56.7252651,37.7492937 56.7252651,36.9936126 C56.7252651,36.2467756 56.5715533,35.6866478 56.2641298,35.3132293 C55.9567062,34.9398108 55.5374922,34.7540843 55.0064878,34.7540843 C54.4834685,34.7540843 54.0652527,34.9378455 53.7488459,35.3073333 C53.4324392,35.676821 53.2747349,36.2379315 53.2747349,36.9936126 M51,36.9936126 C51,36.347009 51.1028072,35.7741064 51.3094198,35.2768702 C51.5160324,34.7786513 51.7985028,34.3610122 52.1558328,34.0249355 C52.5141609,33.6898415 52.9353712,33.4343447 53.4204616,33.2604103 C53.904554,33.0854932 54.4285714,33 54.9935122,33 C55.5584529,33 56.0824704,33.0854932 56.5675608,33.2604103 C57.0516532,33.4343447 57.4748596,33.6898415 57.8371803,34.0249355 C58.1995009,34.3610122 58.4839676,34.7786513 58.6905802,35.2768702 C58.8971928,35.7741064 59,36.347009 59,36.9936126 C59,37.6402162 58.899189,38.2150841 58.6975671,38.7172338 C58.494947,39.2193834 58.2144729,39.6380052 57.8561447,39.9740818 C57.4978166,40.3101585 57.0746101,40.5656553 56.5865253,40.7395897 C56.0974423,40.9135241 55.5664379,41 54.9935122,41 C54.4205864,41 53.889582,40.9105761 53.4004991,40.7336936 C52.9124142,40.5548458 52.491204,40.2954183 52.1368684,39.9554109 C51.7835309,39.6154035 51.505053,39.195799 51.3024329,38.6975801 C51.100811,38.2013266 51,37.6323547 51,36.9936126" id="Fill-53" fill="#579170" mask="url(#mask-2)"></path>
                    <path d="M63.2747349,36.9936126 C63.2747349,37.7492937 63.4304429,38.3133522 63.741859,38.6867707 C64.0542732,39.0601892 64.471491,39.2459157 64.9935122,39.2459157 C65.5245165,39.2459157 65.9457268,39.0601892 66.2571429,38.6867707 C66.5695571,38.3133522 66.7252651,37.7492937 66.7252651,36.9936126 C66.7252651,36.2467756 66.5715533,35.6866478 66.2641298,35.3132293 C65.9567062,34.9398108 65.5374922,34.7540843 65.0064878,34.7540843 C64.4834685,34.7540843 64.0652527,34.9378455 63.7488459,35.3073333 C63.4324392,35.676821 63.2747349,36.2379315 63.2747349,36.9936126 M61,36.9936126 C61,36.347009 61.1028072,35.7741064 61.3094198,35.2768702 C61.5160324,34.7786513 61.7985028,34.3610122 62.1558328,34.0249355 C62.5141609,33.6898415 62.9353712,33.4343447 63.4204616,33.2604103 C63.904554,33.0854932 64.4285714,33 64.9935122,33 C65.5584529,33 66.0824704,33.0854932 66.5675608,33.2604103 C67.0516532,33.4343447 67.4748596,33.6898415 67.8371803,34.0249355 C68.1995009,34.3610122 68.4839676,34.7786513 68.6905802,35.2768702 C68.8971928,35.7741064 69,36.347009 69,36.9936126 C69,37.6402162 68.899189,38.2150841 68.6975671,38.7172338 C68.494947,39.2193834 68.2144729,39.6380052 67.8561447,39.9740818 C67.4978166,40.3101585 67.0746101,40.5656553 66.5865253,40.7395897 C66.0974423,40.9135241 65.5664379,41 64.9935122,41 C64.4205864,41 63.889582,40.9105761 63.4004991,40.7336936 C62.9124142,40.5548458 62.491204,40.2954183 62.1368684,39.9554109 C61.7835309,39.6154035 61.505053,39.195799 61.3024329,38.6975801 C61.100811,38.2013266 61,37.6323547 61,36.9936126" id="Fill-54" fill="#579170" mask="url(#mask-2)"></path>
                    <path d="M73.7688604,36.7963033 C74.1097913,36.7963033 74.3717496,36.7128128 74.5547352,36.5478436 C74.7377207,36.3818685 74.8301766,36.1293851 74.8301766,35.7893877 C74.8301766,35.4674965 74.7338684,35.2190368 74.5431782,35.0450145 C74.3515249,34.8709921 74.0731942,34.7834779 73.7072231,34.7834779 C73.5772071,34.7834779 73.4693419,34.7854898 73.3845907,34.7895134 C73.2988764,34.7945429 73.211236,34.8056079 73.1216693,34.8217025 L73.1216693,36.7963033 L73.7688604,36.7963033 Z M73.1341894,40.8843204 C73.0446228,40.910474 72.9049759,40.9356218 72.7133226,40.9617754 C72.5226324,40.9869232 72.3329053,41 72.1460674,41 C71.9592295,41 71.7945425,40.9849114 71.6520064,40.9547341 C71.5104334,40.9245568 71.3900482,40.8722495 71.2927769,40.7958003 C71.1955056,40.7193512 71.1213483,40.6137307 71.0731942,40.4769269 C71.024077,40.3411291 71,40.1630831 71,39.9427889 L71,33.9425374 C71,33.7634855 71.0462279,33.6266818 71.14061,33.5291085 C71.2340289,33.4305294 71.3611557,33.3520684 71.5239165,33.2937256 C71.800321,33.1911228 72.1162119,33.1166855 72.4696629,33.0704137 C72.823114,33.0231359 73.1784912,33 73.5367576,33 C74.658748,33 75.5158909,33.2514774 76.1101124,33.7524205 C76.7033708,34.2533635 77,34.9313467 77,35.7893877 C77,36.2058343 76.9373997,36.5810386 76.811236,36.9170124 C76.6850722,37.2519804 76.4982343,37.5406765 76.2497592,37.7831007 C76.0012841,38.025525 75.6892456,38.2116183 75.3117175,38.3433924 C74.9332263,38.4751666 74.4959872,38.5405507 74,38.5405507 L73.1341894,38.5405507 L73.1341894,40.8843204 Z" id="Fill-55" fill="#579170" mask="url(#mask-2)"></path>
                    <path d="M52,93.4994867 C52,106.479588 41.4785619,117 28.4994867,117 C15.5214381,117 5,106.479588 5,93.4994867 C5,80.5204115 15.5214381,70 28.4994867,70 C41.4785619,70 52,80.5204115 52,93.4994867 Z" id="Stroke-56" stroke="#579170" stroke-width="2" mask="url(#mask-2)"></path>
                    <polygon id="Fill-57" fill="#579170" mask="url(#mask-2)" points="258 60 260 60 260 48 258 48"></polygon>
                    <polygon id="Fill-58" fill="#579170" mask="url(#mask-2)" points="268 60 270 60 270 48 268 48"></polygon>
                    <polygon id="Fill-59" fill="#579170" mask="url(#mask-2)" points="248 60 250 60 250 48 248 48"></polygon>
                    <polygon id="Fill-60" fill="#579170" mask="url(#mask-2)" points="291 60 293 60 293 48 291 48"></polygon>
                    <polygon id="Fill-61" fill="#579170" mask="url(#mask-2)" points="301 60 303 60 303 48 301 48"></polygon>
                    <polygon id="Fill-62" fill="#579170" mask="url(#mask-2)" points="280 60 282 60 282 48 280 48"></polygon>
                    <polygon id="Stroke-63" stroke="#579170" stroke-width="2" mask="url(#mask-2)" points="251.500521 211 251.500521 231.076266 263 237.222338 263 225.74974 286 237.222338 286 225.74974 309 237.222338 309 270 240 270 240 211"></polygon>
                    <polygon id="Fill-64" fill="#579170" mask="url(#mask-2)" points="258 259 260 259 260 247 258 247"></polygon>
                    <polygon id="Fill-65" fill="#579170" mask="url(#mask-2)" points="268 259 270 259 270 247 268 247"></polygon>
                    <polygon id="Fill-66" fill="#579170" mask="url(#mask-2)" points="248 259 250 259 250 247 248 247"></polygon>
                    <polygon id="Fill-67" fill="#579170" mask="url(#mask-2)" points="291 259 293 259 293 247 291 247"></polygon>
                    <polygon id="Fill-68" fill="#579170" mask="url(#mask-2)" points="301 259 303 259 303 247 301 247"></polygon>
                    <polygon id="Fill-69" fill="#579170" mask="url(#mask-2)" points="280 259 282 259 282 247 280 247"></polygon>
                    <path d="M303,166 L330,166" id="Stroke-70" stroke="#579170" stroke-width="2" mask="url(#mask-2)"></path>
                    <path d="M343.275861,166 L346.700712,166 C347.970765,166 349,164.98851 349,163.741382 L349,154.933288 C349,154.078203 348.507894,153.296176 347.729947,152.913394 L342.717791,150.451038 L336.435583,138.360487 L324.9182,138.360487 L324.9182,131.859372 C324.9182,130.832447 324.070102,130 323.025162,130 L286.891992,130 C285.847051,130 285,130.832447 285,131.859372 L285,164.139599 C285,165.166524 285.847051,166 286.891992,166 L290.281243,166" id="Stroke-71" stroke="#579170" stroke-width="2" mask="url(#mask-2)"></path>
                    <path d="M325,138 L325,166" id="Stroke-72" stroke="#579170" stroke-width="2" mask="url(#mask-2)"></path>
                    <path d="M343,150 L325,150" id="Stroke-73" stroke="#579170" stroke-width="2" mask="url(#mask-2)"></path>
                    <path d="M291,167.5 C291,163.910308 293.910075,161 297.499479,161 C301.089925,161 304,163.910308 304,167.5 C304,171.089692 301.089925,174 297.499479,174 C293.910075,174 291,171.089692 291,167.5 Z" id="Stroke-74" stroke="#579170" stroke-width="2" mask="url(#mask-2)"></path>
                    <path d="M330,166.500521 C330,162.910075 332.910075,160 336.499479,160 C340.089925,160 343,162.910075 343,166.500521 C343,170.089925 340.089925,173 336.499479,173 C332.910075,173 330,170.089925 330,166.500521 Z" id="Stroke-75" stroke="#579170" stroke-width="2" mask="url(#mask-2)"></path>
                    <path d="M269,155 L278,155" id="Stroke-76" stroke="#579170" stroke-width="2" stroke-linecap="round" mask="url(#mask-2)"></path>
                    <path d="M266,160 L275,160" id="Stroke-77" stroke="#579170" stroke-width="2" stroke-linecap="round" mask="url(#mask-2)"></path>
                </g>
            </g>
        </g>
    </g>
</svg>