<?xml version="1.0" encoding="UTF-8"?>
<svg width="1020px" height="669px" viewBox="0 0 1020 669" version="1.1" xmlns="http://www.w3.org/2000/svg" xmlns:xlink="http://www.w3.org/1999/xlink">
    <!-- Generator: Sketch 51.2 (57519) - http://www.bohemiancoding.com/sketch -->
    <title>Pattern</title>
    <desc>Created with Sketch.</desc>
    <defs>
        <rect id="path-1" x="0" y="0" width="1594" height="877"></rect>
    </defs>
    <g id="Welcome" stroke="none" stroke-width="1" fill="none" fill-rule="evenodd">
        <g id="Factoring-Page" transform="translate(-39.000000, -2864.000000)">
            <g id="Roadmap" transform="translate(-121.000000, 2311.000000)">
                <g id="Pattern" transform="translate(909.660925, 796.914009) rotate(-29.000000) translate(-909.660925, -796.914009) translate(112.660925, 358.414009)">
                    <mask id="mask-2" fill="white">
                        <use xlink:href="#path-1"></use>
                    </mask>
                    <g id="Mask"></g>
                    <g id="Group-2" opacity="0.437165179" mask="url(#mask-2)" fill="#E7E5D9">
                        <g transform="translate(543.205937, 401.853863) rotate(15.000000) translate(-543.205937, -401.853863) translate(26.205937, 124.353863)">
                            <path d="M282.50466,554.229402 C126.872927,554.229402 0.259500685,429.919478 0.259500685,277.122638 C0.259500685,124.324248 126.872927,0.0158738466 282.50466,0.0158738466 C341.466601,0.0158738466 397.963636,17.6955902 445.892715,51.145043 C492.708559,83.8193416 527.867814,128.981374 547.569692,181.747669 C559.575253,213.904164 542.756731,249.527149 510.003957,261.315694 C502.833464,263.895407 495.489276,265.120151 488.272992,265.120151 C462.52333,265.123251 438.340091,249.550404 428.963658,224.433859 C406.542646,164.385766 347.684922,124.040541 282.50466,124.040541 C196.529812,124.040541 126.583959,192.713 126.583959,277.122638 C126.583959,361.532276 196.529812,430.204735 282.50466,430.204735 C317.389159,430.204735 345.666889,457.967657 345.666889,492.217068 C345.666889,526.46648 317.389159,554.229402 282.50466,554.229402" id="Fill-1"></path>
                            <path d="M751.39236,554.229402 C629.437149,554.229402 521.747127,477.907722 483.420286,364.310429 C472.450586,331.798913 490.40287,296.713885 523.515669,285.943892 C556.636363,275.1739 592.368815,292.800906 603.335357,325.310872 C624.505757,388.051851 684.002999,430.204735 751.39236,430.204735 C837.367208,430.204735 907.31306,361.532276 907.31306,277.122638 C907.31306,192.713 837.367208,124.040541 751.39236,124.040541 C716.507861,124.040541 688.230131,96.2760692 688.230131,62.0282076 C688.230131,27.7787957 716.507861,0.0158738466 751.39236,0.0158738466 C907.024093,0.0158738466 1033.63752,124.324248 1033.63752,277.122638 C1033.63752,429.919478 907.024093,554.229402 751.39236,554.229402" id="Fill-3"></path>
                        </g>
                    </g>
                </g>
            </g>
        </g>
    </g>
</svg>