<?xml version="1.0" encoding="UTF-8"?>
<svg width="780px" height="521px" viewBox="0 0 846 521" version="1.1" xmlns="http://www.w3.org/2000/svg" xmlns:xlink="http://www.w3.org/1999/xlink">
    <!-- Generator: Sketch 51.2 (57519) - http://www.bohemiancoding.com/sketch -->
    <title>Factoring illustartion</title>
    <desc>Created with Sketch.</desc>
    <defs>
        <path d="M3.716,0.951 L0.702666667,1.607 C1.912,1.343 3.19333333,1.211 4.528,1.229 L7.54,0.572 C7.46266667,0.571 7.38666667,0.571 7.31066667,0.571 C6.06,0.571 4.856,0.702 3.716,0.951" id="path-1"></path>
        <path d="M3.716,0.951 L0.702666667,1.607 C1.912,1.343 3.19333333,1.211 4.528,1.229 L7.54,0.572 C7.46266667,0.571 7.38666667,0.571 7.31066667,0.571 C6.06,0.571 4.856,0.702 3.716,0.951" id="path-3"></path>
        <path d="M3.716,0.951 L0.702666667,1.607 C1.912,1.343 3.19333333,1.211 4.528,1.229 L7.54,0.572 C7.46266667,0.571 7.38666667,0.571 7.31066667,0.571 C6.06,0.571 4.856,0.702 3.716,0.951" id="path-5"></path>
        <path d="M3.716,0.951 L0.702666667,1.607 C1.912,1.343 3.19333333,1.211 4.528,1.229 L7.54,0.572 C7.46266667,0.571 7.38666667,0.571 7.31066667,0.571 C6.06,0.571 4.856,0.702 3.716,0.951" id="path-7"></path>
        <polygon id="path-9" points="0 0.322406059 29.8088142 0.322406059 29.8088142 34.855182 0 34.855182"></polygon>
        <path d="M0.5544,1.74896154 C9.0174,1.89838462 16.2288,9.78934615 16.6642,19.3495769 C17.0282,27.3387308 12.5566,33.9873462 6.1474,35.8814615 L9.3114,34.9465 C15.7206,33.0538077 20.1922,26.4051923 19.8282,18.4160385 C19.3928,8.85580769 12.1814,0.963423077 3.717,0.814" id="path-11"></path>
        <path d="M0.5544,1.74896154 C9.0174,1.89838462 16.2288,9.78934615 16.6642,19.3495769 C17.0282,27.3387308 12.5566,33.9873462 6.1474,35.8814615 L9.3114,34.9465 C15.7206,33.0538077 20.1922,26.4051923 19.8282,18.4160385 C19.3928,8.85580769 12.1814,0.963423077 3.717,0.814" id="path-13"></path>
        <path d="M0.5544,1.74896154 C9.0174,1.89838462 16.2288,9.78934615 16.6642,19.3495769 C17.0282,27.3387308 12.5566,33.9873462 6.1474,35.8814615 L9.3114,34.9465 C15.7206,33.0538077 20.1922,26.4051923 19.8282,18.4160385 C19.3928,8.85580769 12.1814,0.963423077 3.717,0.814" id="path-15"></path>
        <path d="M0.5544,1.74896154 C9.0174,1.89838462 16.2288,9.78934615 16.6642,19.3495769 C17.0282,27.3387308 12.5566,33.9873462 6.1474,35.8814615 L9.3114,34.9465 C15.7206,33.0538077 20.1922,26.4051923 19.8282,18.4160385 C19.3928,8.85580769 12.1814,0.963423077 3.717,0.814" id="path-17"></path>
        <path d="M0.5544,1.74896154 C9.0174,1.89838462 16.2288,9.78934615 16.6642,19.3495769 C17.0282,27.3387308 12.5566,33.9873462 6.1474,35.8814615 L9.3114,34.9465 C15.7206,33.0538077 20.1922,26.4051923 19.8282,18.4160385 C19.3928,8.85580769 12.1814,0.963423077 3.717,0.814" id="path-19"></path>
        <path d="M0.5544,1.74896154 C9.0174,1.89838462 16.2288,9.78934615 16.6642,19.3495769 C17.0282,27.3387308 12.5566,33.9873462 6.1474,35.8814615 L9.3114,34.9465 C15.7206,33.0538077 20.1922,26.4051923 19.8282,18.4160385 C19.3928,8.85580769 12.1814,0.963423077 3.717,0.814" id="path-21"></path>
        <path d="M0.5544,1.74896154 C9.0174,1.89838462 16.2288,9.78934615 16.6642,19.3495769 C17.0282,27.3387308 12.5566,33.9873462 6.1474,35.8814615 L9.3114,34.9465 C15.7206,33.0538077 20.1922,26.4051923 19.8282,18.4160385 C19.3928,8.85580769 12.1814,0.963423077 3.717,0.814" id="path-23"></path>
        <path d="M0.5544,1.74896154 C9.0174,1.89838462 16.2288,9.78934615 16.6642,19.3495769 C17.0282,27.3387308 12.5566,33.9873462 6.1474,35.8814615 L9.3114,34.9465 C15.7206,33.0538077 20.1922,26.4051923 19.8282,18.4160385 C19.3928,8.85580769 12.1814,0.963423077 3.717,0.814" id="path-25"></path>
        <path d="M0.5544,1.74896154 C9.0174,1.89838462 16.2288,9.78934615 16.6642,19.3495769 C17.0282,27.3387308 12.5566,33.9873462 6.1474,35.8814615 L9.3114,34.9465 C15.7206,33.0538077 20.1922,26.4051923 19.8282,18.4160385 C19.3928,8.85580769 12.1814,0.963423077 3.717,0.814" id="path-27"></path>
        <path d="M0.5544,1.74896154 C9.0174,1.89838462 16.2288,9.78934615 16.6642,19.3495769 C17.0282,27.3387308 12.5566,33.9873462 6.1474,35.8814615 L9.3114,34.9465 C15.7206,33.0538077 20.1922,26.4051923 19.8282,18.4160385 C19.3928,8.85580769 12.1814,0.963423077 3.717,0.814" id="path-29"></path>
        <path d="M0.5544,1.74896154 C9.0174,1.89838462 16.2288,9.78934615 16.6642,19.3495769 C17.0282,27.3387308 12.5566,33.9873462 6.1474,35.8814615 L9.3114,34.9465 C15.7206,33.0538077 20.1922,26.4051923 19.8282,18.4160385 C19.3928,8.85580769 12.1814,0.963423077 3.717,0.814" id="path-31"></path>
        <path d="M0.5544,1.74896154 C9.0174,1.89838462 16.2288,9.78934615 16.6642,19.3495769 C17.0282,27.3387308 12.5566,33.9873462 6.1474,35.8814615 L9.3114,34.9465 C15.7206,33.0538077 20.1922,26.4051923 19.8282,18.4160385 C19.3928,8.85580769 12.1814,0.963423077 3.717,0.814" id="path-33"></path>
        <path d="M0.5544,1.74896154 C9.0174,1.89838462 16.2288,9.78934615 16.6642,19.3495769 C17.0282,27.3387308 12.5566,33.9873462 6.1474,35.8814615 L9.3114,34.9465 C15.7206,33.0538077 20.1922,26.4051923 19.8282,18.4160385 C19.3928,8.85580769 12.1814,0.963423077 3.717,0.814" id="path-35"></path>
        <path d="M0.5544,1.74896154 C9.0174,1.89838462 16.2288,9.78934615 16.6642,19.3495769 C17.0282,27.3387308 12.5566,33.9873462 6.1474,35.8814615 L9.3114,34.9465 C15.7206,33.0538077 20.1922,26.4051923 19.8282,18.4160385 C19.3928,8.85580769 12.1814,0.963423077 3.717,0.814" id="path-37"></path>
        <path d="M0.5544,1.74896154 C9.0174,1.89838462 16.2288,9.78934615 16.6642,19.3495769 C17.0282,27.3387308 12.5566,33.9873462 6.1474,35.8814615 L9.3114,34.9465 C15.7206,33.0538077 20.1922,26.4051923 19.8282,18.4160385 C19.3928,8.85580769 12.1814,0.963423077 3.717,0.814" id="path-39"></path>
        <path d="M0.5544,1.74896154 C9.0174,1.89838462 16.2288,9.78934615 16.6642,19.3495769 C17.0282,27.3387308 12.5566,33.9873462 6.1474,35.8814615 L9.3114,34.9465 C15.7206,33.0538077 20.1922,26.4051923 19.8282,18.4160385 C19.3928,8.85580769 12.1814,0.963423077 3.717,0.814" id="path-41"></path>
        <path d="M0.5544,1.74896154 C9.0174,1.89838462 16.2288,9.78934615 16.6642,19.3495769 C17.0282,27.3387308 12.5566,33.9873462 6.1474,35.8814615 L9.3114,34.9465 C15.7206,33.0538077 20.1922,26.4051923 19.8282,18.4160385 C19.3928,8.85580769 12.1814,0.963423077 3.717,0.814" id="path-43"></path>
        <path d="M0.5544,1.74896154 C9.0174,1.89838462 16.2288,9.78934615 16.6642,19.3495769 C17.0282,27.3387308 12.5566,33.9873462 6.1474,35.8814615 L9.3114,34.9465 C15.7206,33.0538077 20.1922,26.4051923 19.8282,18.4160385 C19.3928,8.85580769 12.1814,0.963423077 3.717,0.814" id="path-45"></path>
        <path d="M0.5544,1.74896154 C9.0174,1.89838462 16.2288,9.78934615 16.6642,19.3495769 C17.0282,27.3387308 12.5566,33.9873462 6.1474,35.8814615 L9.3114,34.9465 C15.7206,33.0538077 20.1922,26.4051923 19.8282,18.4160385 C19.3928,8.85580769 12.1814,0.963423077 3.717,0.814" id="path-47"></path>
        <path d="M0.5544,1.74896154 C9.0174,1.89838462 16.2288,9.78934615 16.6642,19.3495769 C17.0282,27.3387308 12.5566,33.9873462 6.1474,35.8814615 L9.3114,34.9465 C15.7206,33.0538077 20.1922,26.4051923 19.8282,18.4160385 C19.3928,8.85580769 12.1814,0.963423077 3.717,0.814" id="path-49"></path>
        <path d="M0.5544,1.74896154 C9.0174,1.89838462 16.2288,9.78934615 16.6642,19.3495769 C17.0282,27.3387308 12.5566,33.9873462 6.1474,35.8814615 L9.3114,34.9465 C15.7206,33.0538077 20.1922,26.4051923 19.8282,18.4160385 C19.3928,8.85580769 12.1814,0.963423077 3.717,0.814" id="path-51"></path>
        <path d="M0.5544,1.74896154 C9.0174,1.89838462 16.2288,9.78934615 16.6642,19.3495769 C17.0282,27.3387308 12.5566,33.9873462 6.1474,35.8814615 L9.3114,34.9465 C15.7206,33.0538077 20.1922,26.4051923 19.8282,18.4160385 C19.3928,8.85580769 12.1814,0.963423077 3.717,0.814" id="path-53"></path>
        <path d="M0.5544,1.74896154 C9.0174,1.89838462 16.2288,9.78934615 16.6642,19.3495769 C17.0282,27.3387308 12.5566,33.9873462 6.1474,35.8814615 L9.3114,34.9465 C15.7206,33.0538077 20.1922,26.4051923 19.8282,18.4160385 C19.3928,8.85580769 12.1814,0.963423077 3.717,0.814" id="path-55"></path>
        <path d="M0.5544,1.74896154 C9.0174,1.89838462 16.2288,9.78934615 16.6642,19.3495769 C17.0282,27.3387308 12.5566,33.9873462 6.1474,35.8814615 L9.3114,34.9465 C15.7206,33.0538077 20.1922,26.4051923 19.8282,18.4160385 C19.3928,8.85580769 12.1814,0.963423077 3.717,0.814" id="path-57"></path>
        <path d="M0.5544,1.74896154 C9.0174,1.89838462 16.2288,9.78934615 16.6642,19.3495769 C17.0282,27.3387308 12.5566,33.9873462 6.1474,35.8814615 L9.3114,34.9465 C15.7206,33.0538077 20.1922,26.4051923 19.8282,18.4160385 C19.3928,8.85580769 12.1814,0.963423077 3.717,0.814" id="path-59"></path>
        <path d="M0.5544,1.74896154 C9.0174,1.89838462 16.2288,9.78934615 16.6642,19.3495769 C17.0282,27.3387308 12.5566,33.9873462 6.1474,35.8814615 L9.3114,34.9465 C15.7206,33.0538077 20.1922,26.4051923 19.8282,18.4160385 C19.3928,8.85580769 12.1814,0.963423077 3.717,0.814" id="path-61"></path>
        <path d="M0.5544,1.74896154 C9.0174,1.89838462 16.2288,9.78934615 16.6642,19.3495769 C17.0282,27.3387308 12.5566,33.9873462 6.1474,35.8814615 L9.3114,34.9465 C15.7206,33.0538077 20.1922,26.4051923 19.8282,18.4160385 C19.3928,8.85580769 12.1814,0.963423077 3.717,0.814" id="path-63"></path>
        <path d="M0.5544,1.74896154 C9.0174,1.89838462 16.2288,9.78934615 16.6642,19.3495769 C17.0282,27.3387308 12.5566,33.9873462 6.1474,35.8814615 L9.3114,34.9465 C15.7206,33.0538077 20.1922,26.4051923 19.8282,18.4160385 C19.3928,8.85580769 12.1814,0.963423077 3.717,0.814" id="path-65"></path>
        <path d="M0.5544,1.74896154 C9.0174,1.89838462 16.2288,9.78934615 16.6642,19.3495769 C17.0282,27.3387308 12.5566,33.9873462 6.1474,35.8814615 L9.3114,34.9465 C15.7206,33.0538077 20.1922,26.4051923 19.8282,18.4160385 C19.3928,8.85580769 12.1814,0.963423077 3.717,0.814" id="path-67"></path>
        <path d="M0.5544,1.74896154 C9.0174,1.89838462 16.2288,9.78934615 16.6642,19.3495769 C17.0282,27.3387308 12.5566,33.9873462 6.1474,35.8814615 L9.3114,34.9465 C15.7206,33.0538077 20.1922,26.4051923 19.8282,18.4160385 C19.3928,8.85580769 12.1814,0.963423077 3.717,0.814" id="path-69"></path>
        <path d="M0.5544,1.74896154 C9.0174,1.89838462 16.2288,9.78934615 16.6642,19.3495769 C17.0282,27.3387308 12.5566,33.9873462 6.1474,35.8814615 L9.3114,34.9465 C15.7206,33.0538077 20.1922,26.4051923 19.8282,18.4160385 C19.3928,8.85580769 12.1814,0.963423077 3.717,0.814" id="path-71"></path>
    </defs>
    <g id="Welcome" stroke="none" stroke-width="1" fill="none" fill-rule="evenodd">
        <g id="Factoring-Page" transform="translate(-548.000000, -104.000000)">
            <g id="Factoring-illustartion" transform="translate(548.000000, 101.000000)">
                <text id="PAYMENT" font-family="Barlow-Medium, Barlow" font-size="16" font-weight="400" fill="#DC7D48">
                    <tspan x="217" y="177">PAYMENT</tspan>
                </text>
                <text id="ACCOUNTS-RECEIVABLE" font-family="Barlow-Medium, Barlow" font-size="16" font-weight="400" fill="#DC7D48">
                    <tspan x="415" y="283">ACCOUNTS </tspan>
                    <tspan x="415" y="302">RECEIVABLE</tspan>
                </text>
                <text id="SHIPPING" font-family="Barlow-Medium, Barlow" font-size="16" font-weight="400" fill="#DC7D48">
                    <tspan x="731" y="158">SHIPPING</tspan>
                </text>
                <text id="SELLER" font-family="Barlow-Medium, Barlow" font-size="16" font-weight="400" fill="#DC7D48">
                    <tspan x="431" y="16">SELLER</tspan>
                </text>
                <text id="FACTOR" font-family="Barlow-Medium, Barlow" font-size="16" font-weight="400" fill="#DC7D48">
                    <tspan x="37" y="450">FACTOR</tspan>
                </text>
                <text id="BUYER-/-DEBTOR" font-family="Barlow-Medium, Barlow" font-size="16" font-weight="400" line-spacing="24" fill="#DC7D48">
                    <tspan x="661.016" y="443">BUYER / DEBTOR</tspan>
                </text>
                <text id="PAYMENT" font-family="Barlow-Medium, Barlow" font-size="16" font-weight="400" fill="#DC7D48">
                    <tspan x="517" y="524">PAYMENT</tspan>
                </text>
                <g id="Factoring-Illustartion" transform="translate(0.000000, 8.000000)">
                    <polygon id="Fill-1" fill="#ABDEC9" points="58 395.911392 177.885544 453 229 427.473038 229 363.422405 178.349752 387.093291 119.802392 358.780127 119.802392 261.776835 58 233"></polygon>
                    <polygon id="Fill-2" fill="#63AA83" points="58 233.060162 105.0495 211 169.521436 237.233217 169.521436 334.604508 229 363.352686 178.349752 387 119.802392 358.715031 119.802392 261.80834"></polygon>
                    <g id="Group-123" transform="translate(65.000000, 63.000000)">
                        <path d="M187.362732,343.707516 L276.504785,301.835657 C290.328211,294.875075 290.432449,275.182603 276.682686,268.07614 L176.87911,216.491422 C162.538661,209.079305 162.774935,188.496267 177.282166,181.414813 L318.934057,112.279981" id="Stroke-3" stroke="#E6C9B9" stroke-width="14" stroke-linecap="round"></path>
                        <path d="M134.811894,238.727077 C134.165615,238.749306 133.520726,238.451988 133.126009,237.879581 C132.766038,237.35719 124.279628,224.871212 122.078109,206.526397 C120.043372,189.57092 123.281717,164.31554 150.262831,140.293891 C151.073113,139.571436 152.314247,139.645071 153.034188,140.453665 C153.755519,141.263649 153.683247,142.504328 152.874355,143.224005 C132.228167,161.604942 123.177479,182.746493 125.976632,206.05819 C128.064183,223.451309 136.276794,235.532989 136.358795,235.652472 C136.974497,236.544427 136.749342,237.767044 135.85567,238.381132 C135.536005,238.602036 135.173255,238.714573 134.811894,238.727077" id="Fill-5" fill="#DC7D48"></path>
                        <path d="M154.014586,151.599071 C152.948573,151.635194 152.045172,150.812706 151.988188,149.742916 L151.532318,141.252673 L143.038959,141.706987 C141.942369,141.769507 141.032019,140.934515 140.973645,139.85361 C140.915271,138.771316 141.7464,137.847407 142.829092,137.789054 L155.243212,137.123562 L155.907559,149.533126 C155.965932,150.61542 155.134804,151.539329 154.053502,151.597682 L154.014586,151.599071 Z" id="Fill-7" fill="#DC7D48"></path>
                        <path d="M218.889482,374.728092 L313.46306,326.02347 C345.793698,309.373647 345.736714,263.146215 313.365771,246.576973 L230.318199,204.067408 C228.700417,203.231027 228.726824,200.909444 230.364064,200.110575 L352.633139,140.434353" id="Stroke-9" stroke="#CAD2BA" stroke-width="14" stroke-linecap="round"></path>
                        <path d="M488.944818,74.1536375 L508.352651,64.5811009 C514.946089,61.3286614 522.6931,61.3995176 529.225384,64.7728295 L757.373059,182.552542 C778.326403,193.369925 778.051213,223.41852 756.90329,233.849668 L682.046091,270.774095" id="Stroke-11" stroke="#E9D6CB" stroke-width="16" stroke-linecap="round"></path>
                        <polygon id="Fill-13" fill="#51966F" points="74.6955594 316.738248 74.6955594 337.172627 55.6212892 327.295825 55.6212892 306.96009"></polygon>
                        <polygon id="Fill-15" fill="#51966F" points="102.262355 330.781535 102.342966 351.393749 83.2673063 341.554459 83.1866951 321.007544"></polygon>
                        <polygon id="Fill-17" fill="#51966F" points="19.149739 289.105433 19.149739 309.539812 0.0754687317 299.66301 0.0754687317 279.327275"></polygon>
                        <polygon id="Fill-19" fill="#51966F" points="46.7173687 303.14872 46.7979798 323.760934 27.7223198 313.921644 27.6417086 293.37334"></polygon>
                        <polygon id="Fill-21" fill="#51966F" points="0.510352086 188.123369 0.510352086 202.147344 12.2601248 208.138168 12.2601248 194.230898"></polygon>
                        <polygon id="Fill-23" fill="#51966F" points="16.7541974 196.633063 16.7541974 210.657037 28.5039701 216.647861 28.5039701 202.740591"></polygon>
                        <polygon id="Fill-25" fill="#51966F" points="32.8243118 204.882255 32.8243118 218.90623 44.5740845 224.897054 44.5740845 210.989783"></polygon>
                        <polygon id="Fill-27" fill="#51966F" points="0.597217569 207.226762 0.597217569 221.250737 12.3469903 227.241561 12.3469903 213.334291"></polygon>
                        <polygon id="Fill-29" fill="#51966F" points="16.8410629 215.736456 16.8410629 229.76043 28.5908356 235.751254 28.5908356 221.843984"></polygon>
                        <polygon id="Fill-31" fill="#51966F" points="32.9111773 223.985648 32.9111773 238.009623 44.66095 244.000447 44.66095 230.093177"></polygon>
                        <polygon id="Fill-33" fill="#51966F" points="0.597217569 226.917012 0.597217569 240.940986 12.3469903 246.93181 12.3469903 233.02454"></polygon>
                        <polygon id="Fill-35" fill="#51966F" points="16.8410629 235.426705 16.8410629 249.450679 28.5908356 255.441504 28.5908356 241.534233"></polygon>
                        <polygon id="Fill-37" fill="#51966F" points="32.9111773 243.675897 32.9111773 257.699872 44.66095 263.690696 44.66095 249.783426"></polygon>
                        <polygon id="Fill-39" fill="#51966F" points="0.684083052 247.626062 0.684083052 261.650037 12.4338558 267.640861 12.4338558 253.733591"></polygon>
                        <polygon id="Fill-41" fill="#51966F" points="16.9279284 256.135756 16.9279284 270.15973 28.6777011 276.150554 28.6777011 262.243284"></polygon>
                        <polygon id="Fill-43" fill="#51966F" points="32.9980428 264.384948 32.9980428 278.408923 44.7478155 284.399747 44.7478155 270.492477"></polygon>
                        <polygon id="Fill-45" fill="#C96D3C" points="627.864407 268.761362 628.20075 329.329538 700.165675 294.00007 700.105912 218.771603 639.79069 248.50065"></polygon>
                        <polygon id="Fill-47" fill="#000000" points="553.637782 230.382853 553.637782 290.84544 652.004255 241.894905 619.174662 177.028119 559.094324 206.641851"></polygon>
                        <polygon id="Fill-49" fill="#D8C5BA" points="700.105217 218.770908 619.175774 177.028257 559.094046 206.64199 639.791385 248.499956"></polygon>
                        <polygon id="Fill-51" fill="#E9D6CB" points="553.637782 230.382853 627.86399 268.761918 639.790273 248.501206 559.094324 206.641851"></polygon>
                        <polygon id="Fill-53" fill="#DC7D48" points="553.637782 290.844884 628.200333 329.329538 627.86399 268.761362 553.637782 230.382298"></polygon>
                        <polygon id="Fill-55" fill="#D87745" points="598.422428 129.925264 597.114582 205.357964 611.502285 205.357964 608.558588 129.925264"></polygon>
                        <path d="M608.581659,129.946938 C608.581659,130.952818 606.306478,131.76836 603.501766,131.76836 C600.697053,131.76836 598.421872,130.952818 598.421872,129.946938 C598.421872,128.941057 600.697053,128.125516 603.501766,128.125516 C606.306478,128.125516 608.581659,128.941057 608.581659,129.946938" id="Fill-57" fill="#E8D6CB"></path>
                        <path d="M611.502424,205.35852 C611.502424,206.707567 608.282147,207.799586 604.308572,207.799586 C600.334998,207.799586 597.113331,206.707567 597.113331,205.35852 C597.113331,204.009473 600.334998,202.917454 604.308572,202.917454 C608.282147,202.917454 611.502424,204.009473 611.502424,205.35852" id="Fill-59" fill="#D87745"></path>
                        <polygon id="Fill-61" fill="#D87745" points="617.635961 140.210253 616.328115 215.642953 630.715818 215.642953 627.772121 140.210253"></polygon>
                        <path d="M627.795192,140.231927 C627.795192,141.237807 625.520011,142.053349 622.715299,142.053349 C619.909196,142.053349 617.635405,141.237807 617.635405,140.231927 C617.635405,139.226046 619.909196,138.410505 622.715299,138.410505 C625.520011,138.410505 627.795192,139.226046 627.795192,140.231927" id="Fill-63" fill="#E8D6CB"></path>
                        <polygon id="Fill-65" fill="#ABDEC9" points="648.580504 244.167723 677.500456 196.734345 677.500456 334.020359 649.148952 319.568468"></polygon>
                        <polygon id="Fill-67" fill="#579170" points="677.4999 196.734206 726.42254 172.691718 726.453116 309.799896 677.4999 334.02022"></polygon>
                        <polygon id="Fill-69" fill="#ABDEC9" points="677.4999 259.573255 706.419851 212.139877 706.419851 349.425891 676.114221 333.315131"></polygon>
                        <polygon id="Fill-71" fill="#63AA83" points="706.419295 212.139738 755.341935 188.09725 755.373902 325.205428 706.419295 349.425752"></polygon>
                        <path d="M630.715957,215.643509 C630.715957,216.992556 627.49568,218.085965 623.520715,218.085965 C619.548531,218.085965 616.326864,216.992556 616.326864,215.643509 C616.326864,214.295851 619.548531,213.202443 623.520715,213.202443 C627.49568,213.202443 630.715957,214.295851 630.715957,215.643509" id="Fill-73" fill="#D87745"></path>
                        <polygon id="Fill-75" fill="#2C2C2C" points="560.474443 261.819397 560.474443 294.329899 572.611983 300.595812 572.611983 267.993614"></polygon>
                        <polygon id="Fill-77" fill="#2C2C2C" points="581.896305 272.99648 581.896305 305.506982 594.035235 311.772894 594.035235 279.170696"></polygon>
                        <polygon id="Fill-79" fill="#2C2C2C" points="604.851864 284.827524 604.851864 317.338025 616.990794 323.603938 616.990794 291.00174"></polygon>
                        <path d="M367.069765,243.137946 C367.714654,243.079594 368.374832,243.3394 368.801515,243.888188 C369.190673,244.389739 378.373397,256.372777 381.613132,274.563375 C384.609643,291.37575 382.81118,316.774232 357.239372,342.289419 C356.470786,343.056333 355.228262,343.053554 354.463846,342.28664 C353.69804,341.519726 353.69804,340.277658 354.466626,339.512133 C374.034292,319.98777 381.867474,298.366897 377.749355,275.252486 C374.676402,258.005248 365.789715,246.409836 365.700765,246.294521 C365.036418,245.438689 365.190691,244.206347 366.048227,243.542243 C366.353994,243.303277 366.709795,243.17129 367.069765,243.137946" id="Fill-81" fill="#DC7D48"></path>
                        <path d="M352.850928,331.215703 C353.912772,331.118449 354.862038,331.889532 354.980175,332.953764 L355.916932,341.405105 L364.371376,340.468692 C365.461016,340.343651 366.420011,341.125848 366.538148,342.201196 C366.659065,343.279322 365.88075,344.24908 364.805008,344.367173 L352.447872,345.73706 L351.078872,333.385848 C350.959345,332.309111 351.73488,331.339354 352.813402,331.219871 C352.824521,331.218481 352.838419,331.217092 352.850928,331.215703" id="Fill-83" fill="#DC7D48"></path>
                        <path d="M723.221025,141.220996 C723.045905,140.169268 723.744998,139.166166 724.798503,138.970269 L733.159827,137.412822 L731.601807,129.054566 C731.398889,127.97644 732.109102,126.965002 733.172335,126.766327 C734.238348,126.567652 735.264056,127.270657 735.462804,128.336279 L737.737985,140.554114 L725.515664,142.82846 C724.451041,143.027135 723.425333,142.324131 723.227975,141.258509 C723.225195,141.246004 723.223805,141.2335 723.221025,141.220996" id="Fill-85" fill="#DC7D48"></path>
                        <path d="M732.776229,138.792434 C732.462123,138.792434 732.145238,138.721578 731.845031,138.571529 L658.131677,101.754081 C657.103189,101.240026 656.684845,99.9882327 657.199089,98.9587335 C657.713332,97.9292343 658.966975,97.5152117 659.996852,98.0264879 L733.710206,134.843936 C734.738694,135.357991 735.157038,136.609785 734.642794,137.639284 C734.277264,138.370075 733.540645,138.792434 732.776229,138.792434" id="Fill-87" fill="#DC7D48"></path>
                        <path d="M421.632129,431.360552 C422.589734,431.828759 423.001129,432.98052 422.549429,433.950277 L418.962232,441.661102 L426.674497,445.246982 C427.671018,445.706853 428.083802,446.871118 427.626543,447.85338 C427.169283,448.835641 426.0032,449.262168 425.020578,448.805076 L413.747523,443.563105 L418.991419,432.295576 C419.448678,431.313315 420.616151,430.886788 421.598773,431.34388 C421.609892,431.349437 421.62101,431.354995 421.632129,431.360552" id="Fill-89" fill="#DC7D48"></path>
                        <path d="M419.760421,443.843612 C419.014073,443.843612 418.291352,443.440704 417.917483,442.73631 C417.378222,441.719315 417.7646,440.457796 418.781969,439.917344 L491.569684,401.303482 C492.584273,400.767197 493.850424,401.150655 494.388295,402.16765 C494.927556,403.184645 494.541178,404.446164 493.52381,404.986616 L420.736094,443.600478 C420.426158,443.76442 420.089815,443.843612 419.760421,443.843612" id="Fill-91" fill="#DC7D48"></path>
                        <polygon id="Fill-93" fill="#63AA83" points="581.485049 56.867637 581.485049 72.0072497 621.277779 52.4273138 621.256932 37.4335816"></polygon>
                        <polygon id="Fill-95" fill="#579170" points="595.573518 80.1689139 635.555268 60.4139215 642.004161 84.9093341 602.936932 104.276701"></polygon>
                        <polygon id="Fill-97" fill="#579170" points="509.535968 19.7468961 509.535968 57.7258309 581.485605 94.8350404 581.485605 56.8672202"></polygon>
                        <polygon id="Fill-99" fill="#ABDEC9" points="509.535968 19.7468961 549.535785 0.204472326 621.257487 37.4331648 581.485605 56.8672202"></polygon>
                        <polygon id="Fill-101" fill="#ABDEC9" points="581.485049 72.0072497 595.573935 80.1696086 635.554295 60.4146161 621.277779 52.4273138"></polygon>
                        <polygon id="Fill-103" fill="#63AA83" points="514.418086 60.0988197 514.418086 72.6500963 581.485188 106.56244 581.485188 94.8350404"></polygon>
                        <polygon id="Fill-105" fill="#63AA83" points="581.485049 72.0072497 581.485049 106.039076 602.877585 118.299981 602.937349 104.276007 599.295948 82.3258607"></polygon>
                        <polygon id="Fill-107" fill="#579170" points="642.00305 84.9128074 642.00305 99.1535187 641.975253 99.167412 633.983628 103.071451 633.983628 103.085344 632.941242 103.585506 602.880226 118.298592 602.864938 115.950611 602.93582 104.280175 634.108714 88.8307397"></polygon>
                        <path d="M530.287367,74.2139348 C532.680685,78.3569397 532.576446,82.8945166 530.056652,84.3491532 C527.536858,85.8037897 523.553555,83.6239189 521.161627,79.4823033 C518.768309,75.337909 518.871158,70.8003321 521.392342,69.3456955 C523.912136,67.891059 527.894049,70.0709298 530.287367,74.2139348" id="Fill-109" fill="#2C2C2C"></path>
                        <path d="M583.070309,103.078675 C585.463627,107.22168 585.359388,111.759257 582.839594,113.213894 C580.319801,114.66853 576.336497,112.48866 573.944569,108.347044 C571.551251,104.20265 571.6541,99.6650728 574.175284,98.2104362 C576.695078,96.7557997 580.676991,98.9356705 583.070309,103.078675" id="Fill-111" fill="#2C2C2C"></path>
                        <path d="M545.518569,83.1700223 C547.911887,87.3130272 547.807649,91.8506041 545.287855,93.3052406 C542.768061,94.7598772 538.784757,92.5800064 536.392829,88.4383907 C533.999511,84.2939964 534.10236,79.7564196 536.623544,78.301783 C539.143338,76.8471465 543.125252,79.0270173 545.518569,83.1700223" id="Fill-113" fill="#2C2C2C"></path>
                        <polygon id="Fill-115" fill="#E8D6CB" points="600.246603 82.3960222 634.089396 65.6531139 637.436149 80.3328558 604.605166 96.3769273"></polygon>
                        <polygon id="Fill-117" fill="#E8D6CB" points="593.70459 82.7433567 597.918608 96.820126 583.813044 89.4830337 583.813044 77.3416118"></polygon>
                        <polygon id="Fill-119" fill="#F49864" points="642.00305 95.2494798 642.00305 98.7783975 641.975253 99.167412 641.975253 99.1813054 633.983628 103.085344 633.983628 103.071451 634.011425 100.098268 634.025324 99.1813054"></polygon>
                        <polygon id="Fill-121" fill="#F49864" points="610.907986 110.492181 610.928834 114.394831 602.877446 118.300259 602.874666 114.446236"></polygon>
                    </g>
                    <polygon id="Fill-124" fill="#F49864" points="17 395 65 395 65 316 17 316"></polygon>
                    <g id="Group-151" transform="translate(9.000000, 311.000000)">
                        <path d="M10.2079443,7.34790836 C4.36404181,4.83285836 9.28808362,1.8117397 21.2058537,0.598009104 C33.1236237,-0.617111791 47.5208362,0.438124776 53.3647387,2.95178448 C59.2086411,5.46683448 54.2845993,8.48934343 42.368223,9.70307403 C30.450453,10.9168046 16.0518467,9.86295836 10.2079443,7.34790836" id="Fill-125" fill="#DE7D41"></path>
                        <path d="M42.3555401,90.2696213 C30.4391638,91.8684646 16.0419512,90.478166 10.20223,87.1692556 C4.36250871,83.8603451 9.28236934,79.8840914 21.1987456,78.2852481 C33.115122,76.6864049 47.5123345,78.0767034 53.365993,81.3856138 C59.2057143,84.6945243 54.2858537,88.670778 42.3555401,90.2696213" id="Fill-127" fill="#F49864"></path>
                        <path d="M55.8185366,12.6973599 L55.8185366,15.1581883 C53.7279443,17.0768002 49.1425784,18.6200316 42.703554,19.4820166 C39.2610453,19.9408151 35.6234146,20.1632629 32.0275958,20.1632629 C22.7314286,20.1632629 13.7418815,18.7034495 9.35163763,16.2287181 C8.71052265,15.8672405 8.18090592,15.4918599 7.74885017,15.0886734 L7.74885017,12.613942 L7.87428571,12.613942 C7.87428571,13.3786062 8.62689895,14.2127853 10.0345645,15.0191584 C15.9021603,18.3419719 30.4666202,19.7183674 42.5223693,18.1056211 C51.5537282,16.8960614 55.6791638,14.449136 55.693101,12.6973599 L55.8185366,12.6973599 Z" id="Fill-129" fill="#CB6D35"></path>
                        <path d="M55.8185366,19.5518096 L55.8185366,22.012638 C53.7279443,23.9312499 49.1425784,25.4744813 42.703554,26.3364663 C39.2610453,26.7952649 35.6234146,27.0177126 32.0136585,27.0177126 C22.7314286,27.0177126 13.7418815,25.5578992 9.35163763,23.0831678 C8.71052265,22.7216902 8.18090592,22.3463096 7.74885017,21.9431231 L7.74885017,19.4683917 L7.87428571,19.4683917 C7.87428571,20.2191529 8.64083624,21.081138 10.0345645,21.8736081 C15.9021603,25.1964216 30.4666202,26.5728171 42.5223693,24.9600708 C51.5537282,23.7505111 55.6791638,21.3035857 55.693101,19.5518096 L55.8185366,19.5518096 Z" id="Fill-131" fill="#CB6D35"></path>
                        <path d="M55.8185366,26.8094459 L55.8185366,29.2702743 C53.7279443,31.1888862 49.1425784,32.7321175 42.703554,33.5941026 C39.2610453,34.0529011 35.6234146,34.2753489 32.0275958,34.2753489 C22.7314286,34.2753489 13.7418815,32.8155354 9.35163763,30.3269011 C8.71052265,29.9654235 8.18090592,29.5900429 7.74885017,29.1868563 L7.74885017,26.726028 L7.87428571,26.726028 C7.87428571,27.4906922 8.62689895,28.3248713 10.0345645,29.1173414 C15.9021603,32.4401549 30.4666202,33.8304534 42.5223693,32.2177071 C51.5537282,30.9942444 55.6791638,28.561222 55.693101,26.8094459 L55.8185366,26.8094459 Z" id="Fill-133" fill="#CB6D35"></path>
                        <path d="M55.8185366,33.6632004 L55.8185366,36.1240288 C53.7279443,38.0426407 49.1425784,39.5858721 42.703554,40.4478572 C39.2610453,40.9066557 35.6234146,41.1291034 32.0136585,41.1291034 C22.7314286,41.1291034 13.7418815,39.66929 9.35163763,37.1945587 C8.71052265,36.833081 8.18090592,36.4577004 7.74885017,36.0545139 L7.74885017,33.5797825 L7.87428571,33.5797825 C7.87428571,34.3444467 8.62689895,35.1786258 10.0345645,35.984999 C15.9021603,39.2939094 30.4666202,40.6842079 42.5223693,39.0714616 C51.5537282,37.8619019 55.6791638,35.4149766 55.693101,33.6632004 L55.8185366,33.6632004 Z" id="Fill-135" fill="#CB6D35"></path>
                        <path d="M55.8185366,40.5033301 L55.8185366,42.9641584 C53.7279443,44.8827704 49.1425784,46.4260017 42.703554,47.2879868 C39.2610453,47.7467853 35.6234146,47.9692331 32.0275958,47.9692331 C22.7314286,47.9692331 13.7418815,46.5094196 9.35163763,44.0346883 C8.71052265,43.6732107 8.18090592,43.2978301 7.74885017,42.8946435 L7.74885017,40.4199122 L7.87428571,40.4199122 C7.87428571,41.1845763 8.62689895,42.0187554 10.0345645,42.8251286 C15.9021603,46.147942 30.4666202,47.5243375 42.5223693,45.9115913 C51.5537282,44.7020316 55.6791638,42.2551062 55.693101,40.5033301 L55.8185366,40.5033301 Z" id="Fill-137" fill="#CB6D35"></path>
                        <path d="M55.8185366,47.3577798 L55.8185366,49.8186081 C53.7279443,51.7372201 49.1425784,53.2804514 42.703554,54.1424365 C39.2610453,54.601235 35.6234146,54.8236828 32.0136585,54.8236828 C22.7314286,54.8236828 13.7418815,53.3638693 9.35163763,50.889138 C8.71052265,50.5276604 8.18090592,50.1522798 7.74885017,49.7490932 L7.74885017,47.2743619 L7.87428571,47.2743619 C7.87428571,48.0251231 8.64083624,48.8871081 10.0345645,49.6795783 C15.9021603,53.0023917 30.4666202,54.3787872 42.5223693,52.766041 C51.5537282,51.5564813 55.6791638,49.1095559 55.693101,47.3577798 L55.8185366,47.3577798 Z" id="Fill-139" fill="#CB6D35"></path>
                        <path d="M55.8185366,54.615416 L55.8185366,57.0762444 C53.7279443,58.9948563 49.1425784,60.5380877 42.703554,61.4000728 C39.2610453,61.8588713 35.6234146,62.081319 32.0275958,62.081319 C22.7314286,62.081319 13.7418815,60.6215056 9.35163763,58.1328713 C8.71052265,57.7713937 8.18090592,57.3960131 7.74885017,56.9928265 L7.74885017,54.5319981 L7.87428571,54.5319981 C7.87428571,55.2966623 8.62689895,56.1308414 10.0345645,56.9233116 C15.9021603,60.246125 30.4666202,61.6364235 42.5223693,60.0236772 C51.5537282,58.8002146 55.6791638,56.3671922 55.693101,54.615416 L55.8185366,54.615416 Z" id="Fill-141" fill="#CB6D35"></path>
                        <path d="M55.8185366,61.4691706 L55.8185366,63.929999 C53.7279443,65.8486109 49.1425784,67.3918422 42.703554,68.2538273 C39.2610453,68.7126258 35.6234146,68.9350736 32.0136585,68.9350736 C22.7314286,68.9350736 13.7418815,67.4752601 9.35163763,65.0005288 C8.71052265,64.6390512 8.18090592,64.2636706 7.74885017,63.860484 L7.74885017,61.3857527 L7.87428571,61.3857527 C7.87428571,62.1504169 8.62689895,62.984596 10.0345645,63.7909691 C15.9021603,67.0998796 30.4666202,68.4901781 42.5223693,66.8774318 C51.5537282,65.6678721 55.6791638,63.2209467 55.693101,61.4691706 L55.8185366,61.4691706 Z" id="Fill-143" fill="#CB6D35"></path>
                        <path d="M55.8185366,68.1150755 L55.8185366,70.422971 C53.8115679,72.4110979 49.1565157,74.0238442 42.5502439,74.8997322 C39.1077352,75.3724337 35.4701045,75.5809785 31.8603484,75.5809785 C22.5781185,75.5809785 13.5746341,74.1350681 9.19832753,71.6464337 C8.62689895,71.3266651 8.15303136,70.9929934 7.74885017,70.6454188 L7.74885017,68.3375233 C7.91609756,69.0187696 8.64083624,69.7278218 9.88125436,70.436874 C15.7349129,73.7596875 30.3133101,75.136083 42.355122,73.5233367 C51.4004181,72.313777 55.5258537,69.8807546 55.5258537,68.1150755 L55.8185366,68.1150755 Z" id="Fill-145" fill="#CB6D35"></path>
                        <path d="M55.8185366,74.9688301 L55.8185366,77.2767256 C53.8115679,79.2648525 49.1565157,80.8775987 42.5502439,81.7673898 C39.1077352,82.2261883 35.4701045,82.4347331 31.8603484,82.4347331 C22.5781185,82.4347331 13.5746341,80.9888226 9.19832753,78.5001883 C8.62689895,78.1804196 8.15303136,77.846748 7.74885017,77.4991734 L7.74885017,75.1912778 C7.91609756,75.8725241 8.64083624,76.5815763 9.88125436,77.2906286 C15.7349129,80.613442 30.3133101,82.0037405 42.355122,80.3909943 C51.4004181,79.1675316 55.5258537,76.7345092 55.5258537,74.9688301 L55.8185366,74.9688301 Z" id="Fill-147" fill="#CB6D35"></path>
                        <path d="M0.734355401,62.4080392 L3.88418118,61.4946131 C5.14829268,61.1289646 6.48766551,60.9440549 7.88139373,60.9690802 L4.73296167,61.8825063 C3.33923345,61.857481 1.9984669,62.0410004 0.734355401,62.4080392" id="Fill-149" fill="#CB6D35"></path>
                    </g>
                    <g id="Group-164" transform="translate(9.000000, 372.000000)">
                        <g id="Group-154">
                            <mask id="mask-2" fill="white">
                                <use xlink:href="#path-1"></use>
                            </mask>
                            <g id="Clip-153"></g>
                            <path d="M0.702533333,1.6075 L3.71586667,0.9505 C4.12253333,0.8625 4.5372,0.7885 4.95986667,0.7305 L1.94653333,1.3865 C1.52386667,1.4445 1.1092,1.5185 0.702533333,1.6075" id="Fill-152" fill="#CB6D35" mask="url(#mask-2)"></path>
                        </g>
                        <g id="Group-157">
                            <mask id="mask-4" fill="white">
                                <use xlink:href="#path-3"></use>
                            </mask>
                            <g id="Clip-156"></g>
                            <path d="M1.94666667,1.3867 L4.96,0.7297 C5.34266667,0.6777 5.732,0.6367 6.128,0.6107 L3.11466667,1.2667 C2.72,1.2937 2.33066667,1.3337 1.94666667,1.3867" id="Fill-155" fill="#CB6D35" mask="url(#mask-4)"></path>
                        </g>
                        <g id="Group-160">
                            <mask id="mask-6" fill="white">
                                <use xlink:href="#path-5"></use>
                            </mask>
                            <g id="Clip-159"></g>
                            <path d="M3.11453333,1.2671 L6.12786667,0.6101 C6.4692,0.5871 6.8132,0.5741 7.16253333,0.5711 L4.1492,1.2281 C3.8012,1.2311 3.45586667,1.2441 3.11453333,1.2671" id="Fill-158" fill="#CB6D35" mask="url(#mask-6)"></path>
                        </g>
                        <g id="Group-163">
                            <mask id="mask-8" fill="white">
                                <use xlink:href="#path-7"></use>
                            </mask>
                            <g id="Clip-162"></g>
                            <path d="M4.14973333,1.2281 L7.16306667,0.5711 C7.2884,0.5701 7.41373333,0.5711 7.53906667,0.5721 L4.52706667,1.2291 C4.4004,1.2271 4.27506667,1.2271 4.14973333,1.2281" id="Fill-161" fill="#CB6D35" mask="url(#mask-8)"></path>
                        </g>
                    </g>
                    <g id="Group-170" transform="translate(0.000000, 372.000000)">
                        <g id="Group-167" transform="translate(0.000000, 1.417249)">
                            <mask id="mask-10" fill="white">
                                <use xlink:href="#path-9"></use>
                            </mask>
                            <g id="Clip-166"></g>
                            <path d="M14.13788,0.324550117 C22.35908,0.473361305 29.3658,8.33200932 29.78876,17.8530909 C30.21172,27.3855105 23.89316,35.0032261 15.67196,34.8529977 C7.45076,34.7041865 0.44404,26.8441212 0.01972,17.3117016 C-0.40324,7.7920373 5.91668,0.175738928 14.13788,0.324550117" id="Fill-165" fill="#F49864" mask="url(#mask-10)"></path>
                        </g>
                        <path d="M22.645224,34.8036774 L19.571624,35.7348103 C25.799064,33.8484513 30.142904,27.227062 29.787944,19.2706238 C29.364984,9.74954219 22.359624,1.89089417 14.138424,1.74208298 L17.210664,0.810950117 C25.433224,0.961178555 32.438584,8.81982657 32.861544,18.3394909 C33.215144,26.2973464 28.872664,32.9187357 22.645224,34.8036774" id="Fill-168" fill="#CB6D35"></path>
                    </g>
                    <g id="Group-264" transform="translate(14.000000, 372.000000)">
                        <g id="Group-173">
                            <mask id="mask-12" fill="white">
                                <use xlink:href="#path-11"></use>
                            </mask>
                            <g id="Clip-172"></g>
                            <path d="M0.5537,1.74896154 L3.7163,0.814 C3.9221,0.818269231 4.1265,0.826807692 4.3309,0.838192308 L1.1669,1.77315385 C0.9625,1.76034615 0.7581,1.75180769 0.5537,1.74896154" id="Fill-171" fill="#CB6D35" mask="url(#mask-12)"></path>
                        </g>
                        <g id="Group-176">
                            <mask id="mask-14" fill="white">
                                <use xlink:href="#path-13"></use>
                            </mask>
                            <g id="Clip-175"></g>
                            <path d="M1.1676,1.77329615 L4.3302,0.838334615 C4.648,0.858257692 4.963,0.889565385 5.2766,0.930834615 L2.1126,1.86437308 C1.799,1.82310385 1.484,1.79321923 1.1676,1.77329615" id="Fill-174" fill="#CB6D35" mask="url(#mask-14)"></path>
                        </g>
                        <g id="Group-179">
                            <mask id="mask-16" fill="white">
                                <use xlink:href="#path-15"></use>
                            </mask>
                            <g id="Clip-178"></g>
                            <path d="M2.11232,1.86437308 L5.27632,0.930834615 C5.57592,0.970680769 5.87552,1.01906538 6.17092,1.07741154 L3.00692,2.01237308 C2.71152,1.95260385 2.41332,1.90421923 2.11232,1.86437308" id="Fill-177" fill="#CB6D35" mask="url(#mask-16)"></path>
                        </g>
                        <g id="Group-182">
                            <mask id="mask-18" fill="white">
                                <use xlink:href="#path-17"></use>
                            </mask>
                            <g id="Clip-181"></g>
                            <path d="M3.00706,2.01166154 L6.17106,1.0767 C6.45946,1.13362308 6.74506,1.20050769 7.02926,1.27450769 L3.86526,2.20946923 C3.58106,2.13404615 3.29546,2.06858462 3.00706,2.01166154" id="Fill-180" fill="#CB6D35" mask="url(#mask-18)"></path>
                        </g>
                        <g id="Group-185">
                            <mask id="mask-20" fill="white">
                                <use xlink:href="#path-19"></use>
                            </mask>
                            <g id="Clip-184"></g>
                            <path d="M3.86498,2.20904231 L7.02898,1.27408077 C7.31178,1.34950385 7.59318,1.43204231 7.87038,1.52311923 L4.70638,2.45808077 C4.42918,2.36558077 4.14778,2.28304231 3.86498,2.20904231" id="Fill-183" fill="#CB6D35" mask="url(#mask-20)"></path>
                        </g>
                        <g id="Group-188">
                            <mask id="mask-22" fill="white">
                                <use xlink:href="#path-21"></use>
                            </mask>
                            <g id="Clip-187"></g>
                            <path d="M4.70652,2.45779615 L7.87052,1.52283462 C8.14912,1.61533462 8.42492,1.71495 8.69932,1.82310385 L5.53532,2.75664231 C5.26092,2.64991154 4.98512,2.54887308 4.70652,2.45779615" id="Fill-186" fill="#CB6D35" mask="url(#mask-22)"></path>
                        </g>
                        <g id="Group-191">
                            <mask id="mask-24" fill="white">
                                <use xlink:href="#path-23"></use>
                            </mask>
                            <g id="Clip-190"></g>
                            <path d="M5.53504,2.75721154 L8.69904,1.82367308 C8.97764,1.93325 9.25484,2.05278846 9.52784,2.18086538 L6.36384,3.11440385 C6.09084,2.98775 5.81504,2.86821154 5.53504,2.75721154" id="Fill-189" fill="#CB6D35" mask="url(#mask-24)"></path>
                        </g>
                        <g id="Group-194">
                            <mask id="mask-26" fill="white">
                                <use xlink:href="#path-25"></use>
                            </mask>
                            <g id="Clip-193"></g>
                            <path d="M6.36426,3.11511538 L9.52686,2.18015385 C9.81106,2.31392308 10.09106,2.45480769 10.36686,2.60423077 L7.20426,3.53919231 C6.92846,3.38834615 6.64846,3.24746154 6.36426,3.11511538" id="Fill-192" fill="#CB6D35" mask="url(#mask-26)"></path>
                        </g>
                        <g id="Group-197">
                            <mask id="mask-28" fill="white">
                                <use xlink:href="#path-27"></use>
                            </mask>
                            <g id="Clip-196"></g>
                            <path d="M7.2044,3.53890769 L10.367,2.60394615 C10.6568,2.76190769 10.9424,2.92840769 11.2238,3.10344615 L8.0598,4.03840769 C7.7798,3.86336923 7.4942,3.69544615 7.2044,3.53890769" id="Fill-195" fill="#CB6D35" mask="url(#mask-28)"></path>
                        </g>
                        <g id="Group-200">
                            <mask id="mask-30" fill="white">
                                <use xlink:href="#path-29"></use>
                            </mask>
                            <g id="Clip-199"></g>
                            <path d="M8.05952,4.03855 L11.22352,3.10358846 C11.52312,3.29285769 11.81852,3.49066538 12.10832,3.69843462 L8.94432,4.63339615 C8.65452,4.42420385 8.36052,4.22639615 8.05952,4.03855" id="Fill-198" fill="#CB6D35" mask="url(#mask-30)"></path>
                        </g>
                        <g id="Group-203">
                            <mask id="mask-32" fill="white">
                                <use xlink:href="#path-31"></use>
                            </mask>
                            <g id="Clip-202"></g>
                            <path d="M8.94418,4.63339615 L12.10818,3.69843462 C12.42878,3.93039615 12.74098,4.17374231 13.04758,4.42705 L9.88358,5.36201154 C9.57838,5.10728077 9.26478,4.86393462 8.94418,4.63339615" id="Fill-201" fill="#CB6D35" mask="url(#mask-32)"></path>
                        </g>
                        <g id="Group-206">
                            <mask id="mask-34" fill="white">
                                <use xlink:href="#path-33"></use>
                            </mask>
                            <g id="Clip-205"></g>
                            <path d="M9.88414,5.36229615 L13.04814,4.42733462 C13.40654,4.72618077 13.75514,5.04210385 14.09254,5.37083462 L10.92854,6.30579615 C10.59114,5.97564231 10.24254,5.66114231 9.88414,5.36229615" id="Fill-204" fill="#CB6D35" mask="url(#mask-34)"></path>
                        </g>
                        <g id="Group-209">
                            <mask id="mask-36" fill="white">
                                <use xlink:href="#path-35"></use>
                            </mask>
                            <g id="Clip-208"></g>
                            <path d="M10.92868,6.30593846 L14.09268,5.37097692 C14.53088,5.80216923 14.95088,6.25613077 15.34848,6.73428462 L12.18448,7.66924615 C11.78688,7.19109231 11.36688,6.73570769 10.92868,6.30593846" id="Fill-207" fill="#CB6D35" mask="url(#mask-36)"></path>
                        </g>
                        <g id="Group-212">
                            <mask id="mask-38" fill="white">
                                <use xlink:href="#path-37"></use>
                            </mask>
                            <g id="Clip-211"></g>
                            <path d="M12.18504,7.66853462 L15.34904,6.73499615 C16.90724,8.60491923 18.13504,10.8291885 18.91204,13.2740346 L15.74804,14.2089962 C14.97104,11.76415 13.74324,9.53988077 12.18504,7.66853462" id="Fill-210" fill="#CB6D35" mask="url(#mask-38)"></path>
                        </g>
                        <g id="Group-215">
                            <mask id="mask-40" fill="white">
                                <use xlink:href="#path-39"></use>
                            </mask>
                            <g id="Clip-214"></g>
                            <path d="M15.7479,14.2085692 L18.9119,13.2736077 C19.1009,13.8670308 19.2619,14.4732615 19.3949,15.0894538 L16.2323,16.0244154 C16.0979,15.4068 15.9369,14.8019923 15.7479,14.2085692" id="Fill-213" fill="#CB6D35" mask="url(#mask-40)"></path>
                        </g>
                        <g id="Group-218">
                            <mask id="mask-42" fill="white">
                                <use xlink:href="#path-41"></use>
                            </mask>
                            <g id="Clip-217"></g>
                            <path d="M16.23188,16.0242731 L19.39588,15.0893115 C19.49808,15.5631962 19.58488,16.0427731 19.65208,16.5280423 L16.48948,17.4615808 C16.42088,16.9763115 16.33408,16.4967346 16.23188,16.0242731" id="Fill-216" fill="#CB6D35" mask="url(#mask-42)"></path>
                        </g>
                        <g id="Group-221">
                            <mask id="mask-44" fill="white">
                                <use xlink:href="#path-43"></use>
                            </mask>
                            <g id="Clip-220"></g>
                            <path d="M16.48892,17.4618654 L19.65292,16.5269038 C19.71172,16.9424423 19.75652,17.36225 19.79012,17.7849038 L16.62612,18.7184423 C16.59392,18.2957885 16.54772,17.8774038 16.48892,17.4618654" id="Fill-219" fill="#CB6D35" mask="url(#mask-44)"></path>
                        </g>
                        <g id="Group-224">
                            <mask id="mask-46" fill="white">
                                <use xlink:href="#path-45"></use>
                            </mask>
                            <g id="Clip-223"></g>
                            <path d="M16.6264,18.7188692 L19.7904,17.7839077 C19.8058,17.9945231 19.8184,18.2037154 19.8282,18.4157538 C19.8366,18.5922154 19.8422,18.7686769 19.845,18.9437154 L16.6824,19.8786769 C16.6782,19.7022154 16.6726,19.5257538 16.6642,19.3492923 C16.6558,19.1386769 16.6418,18.9280615 16.6264,18.7188692" id="Fill-222" fill="#CB6D35" mask="url(#mask-46)"></path>
                        </g>
                        <g id="Group-227">
                            <mask id="mask-48" fill="white">
                                <use xlink:href="#path-47"></use>
                            </mask>
                            <g id="Clip-226"></g>
                            <path d="M16.6817,19.8786769 L19.8457,18.9437154 C19.8527,19.3066 19.8499,19.6666385 19.8359,20.0224077 L16.6733,20.9559462 C16.6859,20.6001769 16.6887,20.2401385 16.6817,19.8786769" id="Fill-225" fill="#CB6D35" mask="url(#mask-48)"></path>
                        </g>
                        <g id="Group-230">
                            <mask id="mask-50" fill="white">
                                <use xlink:href="#path-49"></use>
                            </mask>
                            <g id="Clip-229"></g>
                            <path d="M16.67288,20.9563731 L19.83688,20.0214115 C19.82428,20.3615269 19.80328,20.6973731 19.77388,21.0303731 L16.61128,21.9639115 C16.64068,21.6323346 16.66168,21.2950654 16.67288,20.9563731" id="Fill-228" fill="#CB6D35" mask="url(#mask-50)"></path>
                        </g>
                        <g id="Group-233">
                            <mask id="mask-52" fill="white">
                                <use xlink:href="#path-51"></use>
                            </mask>
                            <g id="Clip-232"></g>
                            <path d="M16.61058,21.9646231 L19.77458,21.0296615 C19.74518,21.3555462 19.70738,21.6771615 19.66398,21.9959308 L16.49998,22.9308923 C16.54478,22.6121231 16.58118,22.2905077 16.61058,21.9646231" id="Fill-231" fill="#CB6D35" mask="url(#mask-52)"></path>
                        </g>
                        <g id="Group-236">
                            <mask id="mask-54" fill="white">
                                <use xlink:href="#path-53"></use>
                            </mask>
                            <g id="Clip-235"></g>
                            <path d="M16.49984,22.9311769 L19.66384,21.9962154 C19.61904,22.3135615 19.56584,22.6280615 19.50564,22.9382923 L16.34304,23.8718308 C16.40324,23.5616 16.45504,23.2485231 16.49984,22.9311769" id="Fill-234" fill="#CB6D35" mask="url(#mask-54)"></path>
                        </g>
                        <g id="Group-239">
                            <mask id="mask-56" fill="white">
                                <use xlink:href="#path-55"></use>
                            </mask>
                            <g id="Clip-238"></g>
                            <path d="M16.34262,23.8719731 L19.50662,22.9384346 C19.44502,23.2486654 19.37782,23.5546269 19.30222,23.8577423 L16.13822,24.7912808 C16.21522,24.4895885 16.28242,24.1822038 16.34262,23.8719731" id="Fill-237" fill="#CB6D35" mask="url(#mask-56)"></path>
                        </g>
                        <g id="Group-242">
                            <mask id="mask-58" fill="white">
                                <use xlink:href="#path-57"></use>
                            </mask>
                            <g id="Clip-241"></g>
                            <path d="M16.13892,24.7919923 L19.30292,23.8570308 C19.22592,24.1686846 19.14052,24.4746462 19.04812,24.7763385 L15.88412,25.7113 C15.97652,25.4081846 16.06192,25.1022231 16.13892,24.7919923" id="Fill-240" fill="#CB6D35" mask="url(#mask-58)"></path>
                        </g>
                        <g id="Group-245">
                            <mask id="mask-60" fill="white">
                                <use xlink:href="#path-59"></use>
                            </mask>
                            <g id="Clip-244"></g>
                            <path d="M15.88468,25.7105885 L19.04868,24.77705 C18.95208,25.0887038 18.84988,25.3946654 18.73788,25.6977808 L15.57388,26.6313192 C15.68588,26.3296269 15.78948,26.0222423 15.88468,25.7105885" id="Fill-243" fill="#CB6D35" mask="url(#mask-60)"></path>
                        </g>
                        <g id="Group-248">
                            <mask id="mask-62" fill="white">
                                <use xlink:href="#path-61"></use>
                            </mask>
                            <g id="Clip-247"></g>
                            <path d="M15.5743,26.6320308 L18.7383,25.6970692 C18.6221,26.0129923 18.4961,26.3232231 18.3645,26.6277615 L15.2005,27.5627231 C15.3335,27.2581846 15.4581,26.9479538 15.5743,26.6320308" id="Fill-246" fill="#CB6D35" mask="url(#mask-62)"></path>
                        </g>
                        <g id="Group-251">
                            <mask id="mask-64" fill="white">
                                <use xlink:href="#path-63"></use>
                            </mask>
                            <g id="Clip-250"></g>
                            <path d="M15.20036,27.5624385 L18.36436,26.6274769 C18.22156,26.9519385 18.07176,27.2707077 17.91216,27.5809385 L14.74816,28.5159 C14.90776,28.2042462 15.05896,27.8869 15.20036,27.5624385" id="Fill-249" fill="#CB6D35" mask="url(#mask-64)"></path>
                        </g>
                        <g id="Group-254">
                            <mask id="mask-66" fill="white">
                                <use xlink:href="#path-65"></use>
                            </mask>
                            <g id="Clip-253"></g>
                            <path d="M14.74788,28.5157577 L17.91188,27.5807962 C17.73408,27.9237577 17.54788,28.2596038 17.34908,28.5854885 L14.18648,29.52045 C14.38388,29.1945654 14.57148,28.8587192 14.74788,28.5157577" id="Fill-252" fill="#CB6D35" mask="url(#mask-66)"></path>
                        </g>
                        <g id="Group-257">
                            <mask id="mask-68" fill="white">
                                <use xlink:href="#path-67"></use>
                            </mask>
                            <g id="Clip-256"></g>
                            <path d="M14.18592,29.5198808 L17.34992,28.5849192 C17.12032,28.9620346 16.87672,29.3277654 16.62052,29.6806885 L13.45652,30.61565 C13.71412,30.2627269 13.95632,29.8969962 14.18592,29.5198808" id="Fill-255" fill="#CB6D35" mask="url(#mask-68)"></path>
                        </g>
                        <g id="Group-260">
                            <mask id="mask-70" fill="white">
                                <use xlink:href="#path-69"></use>
                            </mask>
                            <g id="Clip-259"></g>
                            <path d="M13.45652,30.6149385 L16.62052,29.6814 C16.28872,30.1367846 15.93592,30.5694 15.56212,30.9792462 L12.39812,31.9142077 C12.77192,31.5043615 13.12612,31.0703231 13.45652,30.6149385" id="Fill-258" fill="#CB6D35" mask="url(#mask-70)"></path>
                        </g>
                        <g id="Group-263">
                            <mask id="mask-72" fill="white">
                                <use xlink:href="#path-71"></use>
                            </mask>
                            <g id="Clip-262"></g>
                            <path d="M12.3984,31.91435 L15.5624,30.9793885 C13.8544,32.8535808 11.7194,34.2353885 9.3114,34.9469269 L6.1474,35.8818885 C8.5554,35.17035 10.6904,33.7871192 12.3984,31.91435" id="Fill-261" fill="#CB6D35" mask="url(#mask-72)"></path>
                        </g>
                    </g>
                    <g id="Group-335" transform="translate(8.000000, 0.000000)">
                        <path d="M8.31842662,402.658119 L8.34622699,402.920849 C8.35039704,403.17663 8.37680739,403.357344 8.37958743,403.525547 L6.04991645,402.972284 C6.05408651,402.741525 6.14582773,402.464893 6.16250795,402.084003 C6.18474824,401.543251 6.27787948,401.174871 6.27787948,400.913531 L6.27787948,400.482597 L5.77608281,400.301882 C4.28598299,399.731937 2.8125634,398.896481 1.49899593,397.86224 C1.02777967,397.453547 0.760896118,397.213058 0.633014418,397.080998 C0.901287985,396.469349 1.49482588,395.551877 2.42196821,394.345262 C2.54011978,394.423108 2.69163179,394.541267 2.89318447,394.723371 C3.39081109,395.172377 3.55622329,395.305827 3.65352458,395.368382 C4.73217893,396.196888 5.99987579,396.777954 7.42325471,397.097679 C9.41932126,397.548075 9.71539519,396.438767 9.71539519,395.736762 C9.71539519,394.728932 9.23027874,393.740564 8.25031571,392.782778 C8.02930277,392.585382 7.52194603,392.17252 6.69766506,391.517778 C5.90118447,390.886668 5.34239704,390.436273 5.03798299,390.177712 C4.73912902,389.924712 4.28876303,389.492388 3.69800518,388.897421 C3.12948762,388.324696 2.72916229,387.840937 2.5039793,387.457267 C2.27184621,387.058305 2.04388318,386.552305 1.8270403,385.953168 C1.61992754,385.381833 1.51428614,384.796597 1.51428614,384.215531 C1.51428614,381.453382 2.94183512,380.085514 5.89006433,380.02852 L6.27787948,380.018789 L6.27787948,379.612877 C6.27787948,379.419652 6.27231941,379.116608 6.24868909,378.702355 C6.2264488,378.313124 6.21810869,377.850218 6.21810869,377.645871 C6.21810869,377.594437 6.22922884,377.552734 6.23756895,377.523542 L8.5199793,377.950305 C8.56723993,378.125459 8.58948022,378.272811 8.58948022,378.315904 C8.58948022,378.787152 8.60199039,379.440503 8.6631512,379.885338 L8.71875194,380.28847 L9.1065671,380.399679 C9.7459756,380.583174 10.5480163,380.929311 11.6225006,381.490915 C11.6961715,381.55486 11.7906928,381.625756 11.9032843,381.700822 C12.0408961,381.792569 12.184068,381.900998 12.33141,382.016377 L12.8165264,382.395877 C12.8971475,382.459822 12.9694285,382.518207 13.0403194,382.576591 C12.9471882,382.762866 12.7525856,383.110393 12.3550403,383.745674 C11.8143231,384.607542 11.5377094,384.988432 11.3987076,385.156635 C11.2305153,385.060718 10.9177612,384.877223 10.3395135,384.524135 C9.44156155,383.977822 8.74655231,383.660877 8.21695527,383.556619 C7.67901811,383.44958 7.17722144,383.509355 6.72546543,383.734553 C6.22366876,383.983382 5.95817523,384.436558 5.95817523,385.042646 C5.95817523,385.291476 6.00404584,385.544476 6.09717708,385.798866 C6.17779815,386.018503 6.26675933,386.217289 6.36406063,386.391053 C6.47526211,386.591229 6.66430462,386.823377 6.93952828,387.104179 C7.18695157,387.355789 7.39267431,387.550404 7.56781664,387.701926 C7.72905878,387.839547 8.00984251,388.084207 8.41294787,388.435904 C8.80910314,388.782042 9.13019741,389.073965 9.40959113,389.335305 C9.59168355,389.489608 9.90443771,389.763459 10.3478536,390.158251 L11.281946,390.990926 C11.4487482,391.139668 11.6989516,391.381547 12.033946,391.713784 C12.4301013,392.109965 12.6177538,392.337943 12.705325,392.461663 C12.8457168,392.657668 13.0250292,392.92874 13.232142,393.267926 C13.4225745,393.573751 13.5574063,393.851773 13.6324673,394.090871 C13.7186484,394.363333 13.8006595,394.690009 13.8757205,395.062558 C13.9480015,395.419816 13.985532,395.797926 13.985532,396.185767 C13.985532,397.724619 13.5018055,398.890921 12.5107224,399.748619 C11.5154691,400.603536 10.2019017,401.005278 8.69651165,400.962185 L8.25448577,400.939943 L8.25448577,401.351415 C8.25448577,401.634998 8.30591645,402.078443 8.31842662,402.658119" id="Fill-265" fill="#CB6D35"></path>
                        <polygon id="Fill-267" fill="#F8E5D9" points="525.598654 103.967709 525.598654 164.187269 447.952222 200.093808 447.882721 200.066005 447.82712 200.038203 436.331667 195.353533 436.331667 159.433093 405.765161 143.029797 371.612407 124.708148 371.362203 124.569137 371.362203 159.433093 265.720799 103.967709 265.720799 64.0576538 293.187564 34.2397967 293.326566 34.1702912 343.450632 10.7747418 364.496902 0.960565934 364.496902 32.1268297 378.397087 25.287489 399.885383 14.6948516 399.885383 50.6152912 400.289878 50.4192857 416.2598 42.7736813 436.331667 33.155511 436.331667 58.1496868"></polygon>
                        <polygon id="Fill-269" fill="#C96D3C" points="328.581187 47.842717 328.581187 98.1563544 365.422237 68.0479643 400.282511 50.6159863 400.282511 15.3558489"></polygon>
                        <polygon id="Fill-271" fill="#DC7D48" points="525.598654 103.967709 447.82712 139.749137 365.428214 94.6678736 365.428214 68.0472692 416.2598 42.7736813 436.331667 32.7940824 436.331667 58.1496868"></polygon>
                        <polygon id="Fill-273" fill="#DC7D48" points="293.323091 33.1841473 293.323091 80.3283341 328.580909 47.842856 365.421959 31.2032407 365.421959 0.96279011"></polygon>
                        <polygon id="Fill-275" fill="#2C2C2C" points="371.618801 158.835068 371.618801 124.463211 406.006468 142.91692"></polygon>
                        <polygon id="Fill-277" fill="#2C2C2C" points="326.679503 104.911871 335.262867 109.351882 335.262867 118.231904 326.679503 114.140811"></polygon>
                        <polygon id="Fill-279" fill="#2C2C2C" points="326.679503 116.258226 335.262867 120.698237 335.262867 129.578259 326.679503 125.487166"></polygon>
                        <polygon id="Fill-281" fill="#2C2C2C" points="309.513331 95.595911 318.096695 100.035922 318.096695 108.915944 309.513331 104.824851"></polygon>
                        <polygon id="Fill-283" fill="#2C2C2C" points="309.513331 106.942822 318.096695 111.382833 318.096695 120.262855 309.513331 116.171762"></polygon>
                        <polygon id="Fill-285" fill="#2C2C2C" points="292.478793 86.3673885 301.062157 90.8073995 301.062157 99.6874214 292.478793 95.596328"></polygon>
                        <polygon id="Fill-287" fill="#2C2C2C" points="292.478793 97.7142995 301.062157 102.15431 301.062157 111.034332 292.478793 106.943239"></polygon>
                        <polygon id="Fill-289" fill="#2C2C2C" points="276.368618 78.0945665 284.953372 82.5345775 284.953372 91.4145995 276.368618 87.323506"></polygon>
                        <polygon id="Fill-291" fill="#2C2C2C" points="276.368618 89.4409214 284.953372 93.8809324 284.953372 102.760954 276.368618 98.669861"></polygon>
                        <polygon id="Fill-293" fill="#C96D3C" points="447.82017 139.754281 447.82017 200.094781 525.597264 164.185462 525.597264 103.967292"></polygon>
                        <polygon id="Fill-295" fill="#E8D6CB" points="278.645051 175.880874 278.645051 206.363203 230.230708 230.253632 230.230708 200.236989"></polygon>
                        <polygon id="Fill-297" fill="#CAD2BA" points="283.949918 178.510405 283.949918 208.992735 235.536964 232.883164 235.536964 202.866521"></polygon>
                        <polygon id="Fill-299" fill="#63AA83" points="289.907815 182.483201 289.907815 212.96553 241.494861 236.855959 241.494861 206.839316"></polygon>
                        <path d="M266.600541,220.047445 L266.626952,220.260132 C266.629732,220.476989 266.653362,220.62017 266.656142,220.761962 L264.576674,221.37222 C264.580844,221.170654 264.661465,220.888462 264.676756,220.550665 C264.697606,220.071077 264.779617,219.708258 264.779617,219.48167 L264.779617,219.109121 L264.332031,219.181407 C263.003173,219.364901 261.688216,219.303736 260.51643,218.985401 C260.095255,218.836659 259.857562,218.743522 259.74358,218.683747 C259.982663,218.016495 260.51226,216.934989 261.340711,215.458692 C261.446353,215.475374 261.581184,215.514297 261.761887,215.586582 C262.203913,215.764516 262.351255,215.809 262.438826,215.821511 C263.400719,216.073121 264.532194,216.021687 265.802671,215.674159 C267.583284,215.184841 267.847388,214.111676 267.847388,213.515319 C267.847388,212.657621 267.415092,212.020951 266.54077,211.610868 C266.343388,211.533022 265.890242,211.388451 265.156312,211.167423 C264.444623,210.950566 263.945606,210.789313 263.674552,210.690615 C263.407669,210.591918 263.004563,210.400082 262.477746,210.11928 C261.97178,209.848209 261.613155,209.584088 261.414382,209.335258 C261.205879,209.076698 261.002937,208.72083 260.808334,208.277385 C260.623462,207.852011 260.53033,207.373813 260.53033,206.856692 C260.53033,204.404538 261.803587,202.659951 264.434892,201.528401 L264.779617,201.379659 L264.779617,201.027962 C264.779617,200.859758 264.776837,200.599808 264.754597,200.2495 C264.733746,199.920044 264.726796,199.521082 264.726796,199.344538 C264.726796,199.300055 264.736526,199.261132 264.744867,199.23194 L266.781244,198.798225 C266.822944,198.930286 266.842404,199.051225 266.843794,199.087368 C266.843794,199.48911 266.854915,200.045154 266.909125,200.403802 L266.959166,200.729088 L267.305281,200.683214 C267.875188,200.609538 268.591048,200.615099 269.55016,200.702676 C269.615491,200.730478 269.698892,200.7555 269.800364,200.777742 C269.924075,200.805544 270.049177,200.845857 270.181229,200.88756 L270.614915,201.030742 C270.685806,201.054374 270.751136,201.078005 270.813687,201.100247 C270.731676,201.290692 270.557924,201.653511 270.203469,202.329104 C269.721133,203.254918 269.473709,203.680291 269.349998,203.874907 C269.199876,203.858225 268.920482,203.820692 268.404785,203.740066 C267.604135,203.612176 266.982796,203.602445 266.51158,203.712264 C266.030634,203.823473 265.584438,204.063962 265.179942,204.42817 C264.730966,204.835473 264.494663,205.330352 264.494663,205.855813 C264.494663,206.07128 264.537754,206.274236 264.618375,206.457731 C264.690656,206.616203 264.771277,206.753824 264.857458,206.866423 C264.956149,206.995703 265.124342,207.123593 265.370375,207.255654 C265.591388,207.375203 265.77626,207.46278 265.933332,207.522555 C266.075114,207.578159 266.326708,207.676857 266.685332,207.818648 C267.038397,207.957659 267.326131,208.078599 267.573554,208.191198 C267.736186,208.248192 268.01697,208.356621 268.411735,208.513703 L269.245746,208.841769 C269.395868,208.900154 269.618271,209.003022 269.917125,209.147593 C270.27158,209.318577 270.438382,209.433956 270.514833,209.502071 C270.641325,209.60911 270.799787,209.763412 270.98605,209.959418 C271.155632,210.138742 271.275173,210.315286 271.343284,210.482099 C271.419735,210.673934 271.493406,210.913033 271.560127,211.189665 C271.624068,211.459346 271.658818,211.75683 271.658818,212.079335 C271.658818,213.358236 271.227913,214.53983 270.342471,215.689451 C269.454249,216.851582 268.282464,217.778786 266.939706,218.422407 L266.54494,218.603121 L266.54494,218.956209 C266.54494,219.199478 266.590811,219.555346 266.600541,220.047445" id="Fill-301" fill="#E9D6CB"></path>
                        <path d="M630.052288,388.912434 L409.350713,495.542203 C380.50783,509.728275 346.66088,509.469714 318.039009,494.841588 L269.334152,469.94889" id="Stroke-303" stroke="#E9D6CB" stroke-width="16" stroke-linecap="round"></path>
                        <polygon id="Fill-305" fill="#C96D3C" points="365.427519 68.0468522 365.427519 94.6674566 436.332362 58.1492698 436.332362 32.7936654"></polygon>
                        <polygon id="Fill-307" fill="#2C2C2C" points="344.402239 113.602143 352.985603 118.042154 352.985603 126.922176 344.402239 122.831083"></polygon>
                        <polygon id="Fill-309" fill="#2C2C2C" points="344.402239 124.948359 352.985603 129.38837 352.985603 138.268392 344.402239 134.177299"></polygon>
                        <polygon id="Fill-311" fill="#51966F" points="170.395416 385.743957 170.395416 451.542028 220.898957 426.057143 220.898957 362.112088"></polygon>
                        <polygon id="Fill-313" fill="#579170" points="738.973303 335.339684 751.140135 341.632712 751.140135 354.221547 738.973303 348.422008"></polygon>
                        <polygon id="Fill-315" fill="#579170" points="738.973303 358.374222 751.140135 364.66864 751.140135 377.256085 738.973303 371.456546"></polygon>
                        <polygon id="Fill-317" fill="#579170" points="716.135716 323.611188 728.303938 329.905605 728.303938 342.493051 716.135716 336.693512"></polygon>
                        <polygon id="Fill-319" fill="#579170" points="716.135716 346.646421 728.303938 352.939448 728.303938 365.528284 716.135716 359.728745"></polygon>
                        <polygon id="Fill-321" fill="#E6C9B9" points="346.514372 202.453102 395.659865 228.933305 395.659865 300.903465 346.569973 274.391289"></polygon>
                        <polygon id="Fill-323" fill="#DC7D48" points="339.667419 207.125679 388.811522 233.605882 388.811522 305.576041 339.72302 279.063865"></polygon>
                        <polygon id="Fill-325" fill="#F8E5D9" points="334.02728 211.411526 383.171383 237.89173 383.171383 309.861889 334.082881 283.349713"></polygon>
                        <path d="M342.786898,232.883442 L358.599749,241.606381" id="Stroke-327" stroke="#63AA83" stroke-linecap="round"></path>
                        <path d="M342.786898,243.424645 L375.96386,261.728222" id="Stroke-329" stroke="#63AA83" stroke-linecap="round"></path>
                        <path d="M342.693211,253.068532 L375.870172,271.372109" id="Stroke-331" stroke="#63AA83" stroke-linecap="round"></path>
                        <path d="M342.693211,262.219765 L375.870172,280.523342" id="Stroke-333" stroke="#63AA83" stroke-linecap="round"></path>
                    </g>
                </g>
            </g>
        </g>
    </g>
</svg>
