<?xml version="1.0" encoding="UTF-8"?>
<svg width="1326px" height="410px" viewBox="0 0 1326 410" version="1.1" xmlns="http://www.w3.org/2000/svg" xmlns:xlink="http://www.w3.org/1999/xlink">
    <!-- Generator: Sketch 51.2 (57519) - http://www.bohemiancoding.com/sketch -->
    <title>Group 2</title>
    <desc>Created with Sketch.</desc>
    <defs></defs>
    <g id="Welcome" stroke="none" stroke-width="1" fill="none" fill-rule="evenodd" opacity="0.126116071">
        <g id="Homepage" transform="translate(-114.000000, -2019.000000)" fill="#DE7D41">
            <g id="CTA" transform="translate(0.000000, 2019.000000)">
                <g id="pattern">
                    <g id="Group-2" transform="translate(787.000000, 209.000000) rotate(15.000000) translate(-787.000000, -209.000000) translate(103.000000, -158.000000)">
                        <path d="M373.610934,733.618371 C167.599545,733.618371 0,569.067995 0,366.809185 C0,164.548323 167.599545,0 373.610934,0 C451.659485,0 526.445214,23.4028295 589.889448,67.6802276 C651.860082,110.931546 698.400763,170.713011 724.48035,240.560319 C740.372239,283.126216 718.109381,330.280742 674.754184,345.885365 C665.262527,349.300159 655.540947,350.921365 645.988674,350.921365 C611.903571,350.925469 579.89196,330.311525 567.480275,297.064485 C537.801341,217.578182 459.890744,164.172778 373.610934,164.172778 C259.805109,164.172778 167.217036,255.075245 167.217036,366.809185 C167.217036,478.543126 259.805109,569.445593 373.610934,569.445593 C419.787918,569.445593 457.219452,606.195669 457.219452,651.531982 C457.219452,696.868294 419.787918,733.618371 373.610934,733.618371" id="Fill-1"></path>
                        <path d="M994.282594,733.618371 C832.849177,733.618371 690.298744,632.590547 639.565095,482.220596 C625.044386,439.184754 648.808017,392.742328 692.639782,378.485974 C736.481999,364.229621 783.781428,387.562677 798.297957,430.596466 C826.321442,513.64737 905.078576,569.445593 994.282594,569.445593 C1108.08842,569.445593 1200.67649,478.543126 1200.67649,366.809185 C1200.67649,255.075245 1108.08842,164.172778 994.282594,164.172778 C948.105609,164.172778 910.674076,127.420649 910.674076,82.0863889 C910.674076,36.7500763 948.105609,0 994.282594,0 C1200.29398,0 1367.89353,164.548323 1367.89353,366.809185 C1367.89353,569.067995 1200.29398,733.618371 994.282594,733.618371" id="Fill-3"></path>
                    </g>
                </g>
            </g>
        </g>
    </g>
</svg>