<?xml version="1.0" encoding="utf-8"?>
<!-- Generator: Adobe Illustrator 21.1.0, SVG Export Plug-In . SVG Version: 6.00 Build 0)  -->
<svg version="1.1" id="Homepage" xmlns="http://www.w3.org/2000/svg" xmlns:xlink="http://www.w3.org/1999/xlink" x="0px" y="0px"
	 viewBox="0 0 68.5 69.8" style="enable-background:new 0 0 68.5 69.8;" xml:space="preserve">
<style type="text/css">
	.st0{fill:#86C7A4;}
	.st1{fill:#FCF4F0;}
</style>
<g>
	<g>
		<circle class="st0" cx="34.7" cy="35.1" r="31.7"/>
	</g>
	<g>
		<path class="st1" d="M23.6,60.6c-0.4,0-0.7-0.3-0.7-0.7c0-0.4,0.3-0.8,0.7-0.8l8.9-0.9L43,51.3c1.4-0.9,2.2-2.4,2.2-4.1v-1.1
			c0-1-0.8-1.8-1.8-1.8c-1,0-1.8,0.8-1.8,1.8c0,1.2-0.7,2.2-1.8,2.6l-9.6,3.5c-1,0.4-2.2,0-2.7-1C27,50.7,27,50,27.2,49.4
			c0.2-0.6,0.7-1.1,1.3-1.4l4.5-1.7c0.4-0.2,0.8-0.5,0.9-0.9c0.2-0.4,0.2-0.9,0-1.3c-0.4-0.7-1.2-1.1-2-0.8l-17.4,6.1
			c-0.4,0.1-0.8-0.1-1-0.5c-0.1-0.4,0.1-0.8,0.5-1l17.4-6.1c1.5-0.5,3.1,0.2,3.8,1.6c0.4,0.8,0.4,1.7,0.1,2.5s-1,1.4-1.8,1.8
			l-4.5,1.7c-0.2,0.1-0.4,0.2-0.5,0.5c-0.1,0.2-0.1,0.4,0.1,0.6c0.2,0.3,0.6,0.5,0.9,0.3l9.6-3.5c0.5-0.2,0.8-0.7,0.8-1.2
			c0-1.8,1.5-3.3,3.3-3.3c1.8,0,3.3,1.5,3.3,3.3v1.1c0,2.2-1.1,4.2-2.9,5.3l-10.9,7L23.6,60.6C23.7,60.6,23.6,60.6,23.6,60.6z"/>
	</g>
	<g>
		<circle class="st1" cx="34.7" cy="33" r="5.7"/>
	</g>
	<g>
		<circle class="st1" cx="45.9" cy="34.8" r="3.6"/>
	</g>
	<g>
		<circle class="st1" cx="23.4" cy="34.8" r="3.6"/>
	</g>
	<g>
		<path class="st1" d="M34.7,24.1c-0.4,0-0.8-0.3-0.8-0.8V11.6c0-0.4,0.3-0.8,0.8-0.8s0.8,0.3,0.8,0.8v11.7
			C35.5,23.7,35.1,24.1,34.7,24.1z"/>
	</g>
	<g>
		<path class="st1" d="M40.4,24.5c-0.4,0-0.8-0.3-0.8-0.8v-3.8c0-1.2,1-2.2,2.2-2.2h7.5c0.4,0,0.8,0.3,0.8,0.8s-0.3,0.8-0.8,0.8
			h-7.5c-0.4,0-0.7,0.3-0.7,0.7v3.8C41.2,24.1,40.8,24.5,40.4,24.5z"/>
	</g>
	<g>
		<path class="st1" d="M29.1,24.3c-0.4,0-0.8-0.3-0.8-0.8v-3.8c0-0.4-0.3-0.7-0.7-0.7h-7.5c-0.4,0-0.8-0.3-0.8-0.8s0.3-0.8,0.8-0.8
			h7.5c1.2,0,2.2,1,2.2,2.2v3.8C29.8,23.9,29.5,24.3,29.1,24.3z"/>
	</g>
	<g>
		<path class="st1" d="M46.6,22.7c-0.2,0-0.4-0.1-0.5-0.2c-0.3-0.3-0.3-0.8,0-1.1l2.9-3l-3-2.9c-0.3-0.3-0.3-0.8,0-1.1
			c0.3-0.3,0.8-0.3,1.1,0l4.1,4l-4,4.1C47,22.7,46.8,22.7,46.6,22.7z"/>
	</g>
	<g>
		<path class="st1" d="M22.8,22.5c-0.2,0-0.4-0.1-0.5-0.2l-3.9-4l4-3.9c0.3-0.3,0.8-0.3,1.1,0c0.3,0.3,0.3,0.8,0,1.1l-2.9,2.9
			l2.9,2.9c0.3,0.3,0.3,0.8,0,1.1C23.2,22.4,23,22.5,22.8,22.5z"/>
	</g>
	<g>
		<path class="st1" d="M31.2,14.7c-0.2,0-0.4-0.1-0.5-0.2c-0.3-0.3-0.3-0.8,0-1.1l4-4.1l4.1,4c0.3,0.3,0.3,0.8,0,1.1
			c-0.3,0.3-0.8,0.3-1.1,0l-3-2.9l-2.9,3C31.6,14.6,31.4,14.7,31.2,14.7z"/>
	</g>
</g>
</svg>
