<?xml version="1.0" encoding="utf-8"?>
<!-- Generator: Adobe Illustrator 21.1.0, SVG Export Plug-In . SVG Version: 6.00 Build 0)  -->
<svg version="1.1" id="Homepage" xmlns="http://www.w3.org/2000/svg" xmlns:xlink="http://www.w3.org/1999/xlink" x="0px" y="0px"
	 viewBox="0 0 68.5 69.8" style="enable-background:new 0 0 68.5 69.8;" xml:space="preserve">
<style type="text/css">
	.st0{fill:#87C7A4;}
	.st1{fill:#FCF4EF;}
</style>
<g>
	<g>
		<circle class="st0" cx="34.2" cy="34.9" r="31.7"/>
	</g>
	<g>
		<path class="st1" d="M34.2,53.8c-10.4,0-18.9-8.5-18.9-18.9c0-10.4,8.5-18.9,18.9-18.9s18.9,8.5,18.9,18.9
			C53.2,45.3,44.7,53.8,34.2,53.8z M34.2,17.5c-9.6,0-17.4,7.8-17.4,17.4c0,9.6,7.8,17.4,17.4,17.4s17.4-7.8,17.4-17.4
			C51.7,25.3,43.8,17.5,34.2,17.5z"/>
	</g>
	<g>
		<circle class="st1" cx="34.2" cy="16.8" r="3.6"/>
	</g>
	<g>
		<circle class="st1" cx="34.2" cy="53.1" r="3.6"/>
	</g>
	<g>
		<circle class="st1" cx="52.4" cy="34.9" r="3.6"/>
	</g>
	<g>
		<circle class="st1" cx="16.1" cy="34.9" r="3.6"/>
	</g>
	<g>
		<ellipse transform="matrix(0.7138 -0.7003 0.7003 0.7138 -2.0325 39.4121)" class="st1" cx="47.2" cy="22.2" rx="3.6" ry="3.6"/>
	</g>
	<g>
		<ellipse transform="matrix(0.7138 -0.7003 0.7003 0.7138 -27.2544 28.5402)" class="st1" cx="21.3" cy="47.6" rx="3.6" ry="3.6"/>
	</g>
	<g>
		<ellipse transform="matrix(0.6655 -0.7464 0.7464 0.6655 -19.0817 51.3904)" class="st1" cx="47.8" cy="47" rx="3.6" ry="3.6"/>
	</g>
	<g>
		<ellipse transform="matrix(0.6655 -0.7464 0.7464 0.6655 -10.1116 23.0859)" class="st1" cx="20.7" cy="22.8" rx="3.6" ry="3.6"/>
	</g>
	<g>
		<path class="st1" d="M34.2,41.7c-0.2,0-0.5-0.1-0.7-0.2l-7.4-6c-0.4-0.3-0.5-1-0.1-1.4c0.3-0.4,1-0.5,1.4-0.2l6.6,5.3l6.6-10.7
			c0.3-0.5,0.9-0.6,1.4-0.3c0.5,0.3,0.6,0.9,0.3,1.4l-7.4,12l-0.5,0.1C34.4,41.7,34.3,41.7,34.2,41.7z M33.5,40.2
			C33.5,40.2,33.5,40.2,33.5,40.2L33.5,40.2z"/>
	</g>
</g>
</svg>
