<?xml version="1.0" encoding="utf-8"?>
<!-- Generator: Adobe Illustrator 21.1.0, SVG Export Plug-In . SVG Version: 6.00 Build 0)  -->
<svg version="1.1" id="Homepage" xmlns="http://www.w3.org/2000/svg" xmlns:xlink="http://www.w3.org/1999/xlink" x="0px" y="0px"
	 viewBox="0 0 68.5 69.8" style="enable-background:new 0 0 68.5 69.8;" xml:space="preserve">
<style type="text/css">
	.st0{fill:#87C7A4;}
	.st1{fill:#FCF4EF;}
</style>
<g>
	<g>
		<circle class="st0" cx="34.2" cy="34.9" r="31.7"/>
	</g>
	<g>
		<g>
			<path class="st1" d="M35,24c-6.8,0-12.3,5.5-12.3,12.3c0,6.8,5.5,12.3,12.3,12.3c6.8,0,12.3-5.5,12.3-12.3
				C47.3,29.6,41.8,24,35,24z M35.6,43.6l0,0.2c0,0.2,0,0.3,0,0.4h-1.5c0-0.1,0.1-0.3,0.1-0.6c0-0.3,0.1-0.6,0.1-0.7v-0.3l-0.3,0
				c-0.9-0.1-1.9-0.4-2.7-0.9c-0.3-0.2-0.5-0.3-0.5-0.4c0.2-0.4,0.5-1.1,1.1-2c0.1,0,0.2,0.1,0.3,0.2c0.3,0.2,0.4,0.3,0.5,0.3
				c0.7,0.4,1.5,0.6,2.4,0.6c1.3,0,1.4-0.7,1.4-1.2c0-0.6-0.3-1.2-0.9-1.6c-0.1-0.1-0.5-0.3-1-0.6c-0.5-0.3-0.9-0.5-1-0.6
				c-0.2-0.1-0.5-0.3-0.8-0.6c-0.4-0.3-0.6-0.5-0.8-0.7c-0.1-0.2-0.3-0.5-0.4-0.9c-0.1-0.3-0.2-0.7-0.2-1.1c0-1.7,0.9-2.8,2.8-3.2
				l0.2-0.1v-0.3c0-0.1,0-0.3,0-0.6c0-0.2,0-0.5,0-0.7c0,0,0-0.1,0-0.1h1.4c0,0.1,0,0.2,0,0.2c0,0.3,0,0.7,0,1l0,0.2l0.2,0
				c0.4,0,0.9,0.2,1.6,0.4c0,0,0.1,0.1,0.2,0.1c0.1,0,0.2,0.1,0.3,0.1l0.3,0.2c0.1,0,0.1,0.1,0.1,0.1c-0.1,0.1-0.2,0.4-0.4,0.8
				c-0.3,0.6-0.5,0.9-0.6,1c-0.1,0-0.3-0.1-0.7-0.3c-0.6-0.2-1-0.3-1.3-0.3c-0.3,0-0.7,0.1-0.9,0.3c-0.3,0.2-0.5,0.5-0.5,0.9
				c0,0.2,0,0.3,0.1,0.5c0.1,0.1,0.1,0.2,0.2,0.3c0.1,0.1,0.2,0.2,0.4,0.4c0.2,0.1,0.3,0.2,0.4,0.3c0.1,0.1,0.3,0.2,0.5,0.3
				c0.2,0.2,0.5,0.3,0.6,0.4c0.1,0.1,0.3,0.2,0.6,0.4l0.6,0.4c0.1,0.1,0.3,0.2,0.5,0.3c0.2,0.2,0.4,0.3,0.4,0.4
				c0.1,0.1,0.2,0.2,0.3,0.4c0.1,0.2,0.2,0.3,0.3,0.5c0.1,0.2,0.1,0.3,0.2,0.6c0,0.2,0.1,0.4,0.1,0.7c0,0.9-0.3,1.7-0.9,2.4
				c-0.6,0.7-1.5,1.1-2.4,1.3l-0.3,0.1v0.3C35.6,43,35.6,43.2,35.6,43.6z"/>
		</g>
	</g>
	<g>
		<g>
			<path class="st1" d="M19.5,15.3c-0.5,0.3-0.8,0.7-0.9,1.1c-0.1,0.5,0,1,0.3,1.5c0.3,0.6,0.7,0.9,1.2,1.1c0.5,0.1,1,0.1,1.5-0.2
				c0.3-0.2,0.5-0.3,0.6-0.5c0.1-0.2,0.3-0.4,0.4-0.5c0.2,0,0.3,0.1,0.4,0.2c0.1,0.1,0.2,0.2,0.3,0.4c0.2,0.3,0.1,0.6-0.1,0.9
				c-0.2,0.4-0.6,0.7-1.2,1c-0.4,0.2-0.9,0.4-1.3,0.5c-0.5,0.1-0.9,0.1-1.3,0c-0.4-0.1-0.8-0.3-1.2-0.6c-0.4-0.3-0.7-0.7-1-1.3
				c-0.3-0.5-0.5-1-0.5-1.5c-0.1-0.5,0-0.9,0.1-1.4c0.1-0.4,0.3-0.8,0.6-1.2c0.3-0.3,0.7-0.6,1.1-0.9c0.6-0.3,1.1-0.5,1.6-0.5
				c0.4,0,0.7,0.2,0.9,0.5c0.1,0.2,0.1,0.3,0.1,0.5c0,0.2-0.1,0.3-0.1,0.5c-0.2,0-0.5,0-0.7,0C20,15.1,19.8,15.1,19.5,15.3z"/>
		</g>
		<g>
			<path class="st1" d="M25.5,14.7c-0.1-0.6-0.1-1.1,0-1.6c0.1-0.5,0.3-0.9,0.5-1.2c0.3-0.4,0.6-0.7,1-0.9c0.4-0.2,0.8-0.4,1.3-0.5
				c0.5-0.1,1-0.1,1.4,0s0.9,0.2,1.2,0.5c0.4,0.2,0.7,0.6,0.9,1c0.3,0.4,0.4,0.9,0.6,1.5c0.1,0.6,0.1,1.1,0,1.6
				c-0.1,0.5-0.3,0.9-0.5,1.2c-0.3,0.4-0.6,0.7-1,0.9c-0.4,0.2-0.8,0.4-1.3,0.5c-0.5,0.1-1,0.1-1.4,0c-0.5-0.1-0.9-0.2-1.2-0.5
				c-0.4-0.2-0.7-0.6-0.9-1C25.7,15.8,25.6,15.3,25.5,14.7z M27.4,14.4c0.1,0.7,0.4,1.1,0.7,1.4c0.3,0.3,0.7,0.4,1.2,0.3
				c0.5-0.1,0.8-0.3,1-0.7c0.2-0.4,0.3-0.9,0.1-1.6c-0.1-0.7-0.3-1.1-0.7-1.4c-0.3-0.3-0.7-0.4-1.2-0.3c-0.5,0.1-0.8,0.3-1,0.7
				C27.4,13.2,27.3,13.7,27.4,14.4z"/>
		</g>
		<g>
			<path class="st1" d="M36.1,13.5c0.1-0.6,0.3-1.1,0.6-1.5c0.3-0.4,0.6-0.7,1-1c0.4-0.2,0.8-0.4,1.2-0.5c0.5-0.1,0.9-0.1,1.4,0
				c0.5,0.1,0.9,0.3,1.3,0.5c0.4,0.2,0.7,0.5,1,0.9c0.3,0.4,0.4,0.8,0.5,1.3c0.1,0.5,0.1,1,0,1.6c-0.1,0.6-0.3,1.1-0.6,1.5
				c-0.3,0.4-0.6,0.7-1,1c-0.4,0.2-0.8,0.4-1.2,0.5c-0.5,0.1-0.9,0.1-1.4,0c-0.5-0.1-0.9-0.3-1.3-0.5s-0.7-0.5-1-0.9
				c-0.2-0.4-0.4-0.8-0.5-1.3C36,14.6,36,14.1,36.1,13.5z M38.1,13.9c-0.1,0.7-0.1,1.2,0.1,1.6c0.2,0.4,0.5,0.6,1,0.7
				c0.5,0.1,0.9,0,1.2-0.3c0.3-0.3,0.6-0.7,0.7-1.4c0.1-0.7,0.1-1.2-0.1-1.6c-0.2-0.4-0.5-0.6-1-0.7c-0.5-0.1-0.9,0-1.2,0.3
				C38.5,12.8,38.2,13.2,38.1,13.9z"/>
		</g>
		<g>
			<path class="st1" d="M46.8,20.3c-0.1,0-0.2-0.1-0.4-0.1c-0.2-0.1-0.3-0.1-0.5-0.2c-0.2-0.1-0.3-0.2-0.4-0.2
				c-0.1-0.1-0.2-0.2-0.2-0.3c0-0.1-0.1-0.2,0-0.3c0-0.1,0.1-0.3,0.2-0.4l2.5-4.7c0.1-0.1,0.2-0.2,0.3-0.3c0.1,0,0.3,0,0.4,0
				c0.3,0,0.6,0.1,0.9,0.2c0.3,0.1,0.6,0.3,0.9,0.4c0.9,0.5,1.5,1,1.8,1.7c0.3,0.6,0.2,1.3-0.1,2c-0.2,0.3-0.4,0.6-0.6,0.8
				c-0.2,0.2-0.5,0.4-0.8,0.4c-0.3,0.1-0.6,0.1-1,0c-0.4-0.1-0.7-0.2-1.1-0.4l-0.7-0.4L46.8,20.3z M49,17.4c0.3,0.1,0.5,0.2,0.7,0.1
				c0.2,0,0.4-0.2,0.5-0.5c0.1-0.3,0.2-0.5,0.1-0.7c-0.1-0.2-0.3-0.4-0.6-0.6c-0.1-0.1-0.2-0.1-0.3-0.1c-0.1,0-0.1-0.1-0.2-0.1
				l-0.8,1.5L49,17.4z"/>
		</g>
	</g>
	<g>
		<path class="st1" d="M19.3,52.6c-0.2,0-0.4-0.1-0.5-0.2c-4.5-4.3-7.1-10.3-7.1-16.5c0-3.9,1-7.8,3-11.2c0.2-0.4,0.7-0.5,1-0.3
			c0.4,0.2,0.5,0.7,0.3,1c-1.8,3.2-2.8,6.8-2.8,10.5c0,5.9,2.4,11.4,6.7,15.4c0.3,0.3,0.3,0.8,0,1.1C19.7,52.5,19.5,52.6,19.3,52.6z
			"/>
	</g>
	<g>
		<path class="st1" d="M50,53.3c-0.2,0-0.4-0.1-0.5-0.2c-0.3-0.3-0.3-0.8,0-1.1c4-4,6.2-9.3,6.2-14.9c0-4.2-1.2-8.3-3.6-11.8
			c-0.2-0.3-0.1-0.8,0.2-1c0.3-0.2,0.8-0.1,1,0.2c2.5,3.7,3.9,8.1,3.9,12.7c0,6-2.4,11.7-6.6,16C50.4,53.3,50.2,53.3,50,53.3z"/>
	</g>
	<g>
		<path class="st1" d="M20.5,53.2l-6.6-0.5c-0.4,0-0.7-0.4-0.7-0.8c0-0.4,0.4-0.7,0.8-0.7l5.1,0.4l0.4-5.1c0-0.4,0.4-0.7,0.8-0.7
			c0.4,0,0.7,0.4,0.7,0.8L20.5,53.2z"/>
	</g>
	<g>
		<path class="st1" d="M50.5,30.7c-0.1,0-0.2,0-0.2,0c-0.4-0.1-0.6-0.6-0.5-1l2.2-6.3l6.3,2.2c0.4,0.1,0.6,0.6,0.5,1
			c-0.1,0.4-0.6,0.6-1,0.5l-4.9-1.7l-1.7,4.9C51.1,30.5,50.8,30.7,50.5,30.7z"/>
	</g>
</g>
</svg>
