<?xml version="1.0" encoding="utf-8"?>
<!-- Generator: Adobe Illustrator 21.1.0, SVG Export Plug-In . SVG Version: 6.00 Build 0)  -->
<svg version="1.1" id="Homepage" xmlns="http://www.w3.org/2000/svg" xmlns:xlink="http://www.w3.org/1999/xlink" x="0px" y="0px"
	 viewBox="0 0 68.5 69.8" style="enable-background:new 0 0 68.5 69.8;" xml:space="preserve">
<style type="text/css">
	.st0{fill:#86C7A4;}
	.st1{fill:#FCF4F0;}
</style>
<g>
	<g>
		<circle class="st0" cx="34.7" cy="35.1" r="31.7"/>
	</g>
	<g>
		<path class="st1" d="M43.7,54.2l-9-5.1l-9,5.1L16,48.7V37.6l9-4.8V23l9.8-6l9.8,6v9.8l9,5.1v10.7L43.7,54.2z M34.7,47.4l9,5.1
			l8.2-4.6v-9l-9-5.1v-9.8l-8.2-5l-8.2,5v9.8l-9,4.8v9.3l8.2,4.6L34.7,47.4z M25.7,33.2L25.7,33.2L25.7,33.2z"/>
	</g>
	<g>
		<path class="st1" d="M34.7,17.9l-9,5.5v9.8l9,4.8l9-4.8v-9.8L34.7,17.9z M42.2,24.9l-7,4.1v6.7c0,0.3-0.2,0.5-0.5,0.5
			c-0.3,0-0.5-0.2-0.5-0.5V29l-6.8-4c-0.2-0.1-0.3-0.4-0.2-0.7c0.1-0.2,0.5-0.3,0.7-0.2l6.8,4l7-4.1c0.2-0.1,0.5-0.1,0.7,0.2
			C42.5,24.4,42.5,24.8,42.2,24.9z"/>
	</g>
	<g>
		<path class="st1" d="M44.8,20.4C44.8,20.4,44.8,20.4,44.8,20.4c-0.3,0-0.5-0.3-0.5-0.6l0.6-5.1c0-0.3,0.3-0.5,0.6-0.4
			c0.3,0,0.5,0.3,0.4,0.6l-0.6,5.1C45.3,20.2,45.1,20.4,44.8,20.4z"/>
	</g>
	<g>
		<path class="st1" d="M46.4,22.5c-0.2,0-0.3-0.1-0.4-0.2c-0.2-0.2-0.1-0.5,0.1-0.7l4.4-3c0.2-0.2,0.5-0.1,0.7,0.1
			c0.2,0.2,0.1,0.5-0.1,0.7l-4.4,3C46.6,22.5,46.5,22.5,46.4,22.5z"/>
	</g>
	<g>
		<path class="st1" d="M52.3,26.4c0,0-0.1,0-0.1,0l-4.9-1.3c-0.3-0.1-0.4-0.3-0.4-0.6c0.1-0.3,0.3-0.4,0.6-0.4l4.9,1.3
			c0.3,0.1,0.4,0.3,0.4,0.6C52.7,26.3,52.5,26.4,52.3,26.4z"/>
	</g>
	<g>
		<path class="st0" d="M34.7,36.7c-0.4,0-0.8-0.3-0.8-0.8v-7.1c0-0.4,0.3-0.8,0.8-0.8s0.8,0.3,0.8,0.8v7.1
			C35.5,36.3,35.1,36.7,34.7,36.7z"/>
	</g>
	<g>
		<path class="st1" d="M25.7,44.1l-9.4-5.4c-0.4-0.2-0.5-0.7-0.3-1c0.2-0.4,0.7-0.5,1-0.3l8.6,5l9-5.2l9,5.2l8.6-4.7
			c0.4-0.2,0.8-0.1,1,0.3s0.1,0.8-0.3,1l-9.4,5.1l-9-5.2L25.7,44.1z"/>
	</g>
	<g>
		<path class="st1" d="M34.7,49c-0.4,0-0.8-0.3-0.8-0.8V38c0-0.4,0.3-0.8,0.8-0.8s0.8,0.3,0.8,0.8v10.2C35.5,48.6,35.1,49,34.7,49z"
			/>
	</g>
	<g>
		<path class="st1" d="M25.7,54c-0.4,0-0.8-0.3-0.8-0.8V43.2c0-0.4,0.3-0.8,0.8-0.8s0.8,0.3,0.8,0.8v10.1C26.5,53.7,26.1,54,25.7,54
			z"/>
	</g>
	<g>
		<path class="st1" d="M43.7,54c-0.4,0-0.8-0.3-0.8-0.8V43.2c0-0.4,0.3-0.8,0.8-0.8s0.8,0.3,0.8,0.8v10.1C44.5,53.7,44.1,54,43.7,54
			z"/>
	</g>
	<g>
		<path class="st1" d="M34.7,38.6l-9.5-5.1V23.4c0-0.3,0.2-0.5,0.5-0.5s0.5,0.2,0.5,0.5v9.5l8.5,4.6l8.8-4.7c0.2-0.1,0.5,0,0.7,0.2
			s0,0.5-0.2,0.7L34.7,38.6z"/>
	</g>
	<g>
		<path class="st0" d="M34.7,29.7L26.9,25c-0.4-0.2-0.5-0.7-0.3-1c0.2-0.4,0.7-0.5,1-0.3l7.1,4.3l7.3-4.4c0.4-0.2,0.8-0.1,1,0.3
			c0.2,0.4,0.1,0.8-0.3,1L34.7,29.7z"/>
	</g>
</g>
</svg>
