<?xml version="1.0" encoding="utf-8"?>
<!-- Generator: Adobe Illustrator 21.1.0, SVG Export Plug-In . SVG Version: 6.00 Build 0)  -->
<svg version="1.1" id="Homepage" xmlns="http://www.w3.org/2000/svg" xmlns:xlink="http://www.w3.org/1999/xlink" x="0px" y="0px"
	 viewBox="0 0 68.5 69.8" style="enable-background:new 0 0 68.5 69.8;" xml:space="preserve">
<style type="text/css">
	.st0{fill:#87C7A4;}
	.st1{fill:#FCF4EF;}
</style>
<g>
	<g>
		<circle class="st0" cx="34.2" cy="34.9" r="31.7"/>
	</g>
	<g>
		<g>
			<path class="st1" d="M46,52.2c-1.6,0-3.2-0.6-4.4-1.9l-8.3-9c-1.1-1.2-1.7-2.7-1.6-4.3c0.1-1.6,0.7-3.1,1.9-4.2l0.5-0.5
				c1.2-1.1,2.7-1.7,4.3-1.6c1.6,0.1,3.1,0.7,4.2,1.9l8.3,9c1.1,1.2,1.7,2.7,1.6,4.3c-0.1,1.6-0.7,3.1-1.9,4.2l-0.5,0.5
				C48.9,51.6,47.5,52.2,46,52.2z M38.2,32.2c-1.1,0-2.2,0.4-3.1,1.2l-0.5,0.5c-0.9,0.8-1.4,1.9-1.4,3.2c0,1.2,0.4,2.4,1.2,3.3
				l8.3,9c1.7,1.8,4.6,1.9,6.4,0.2l0.5-0.5c0.9-0.8,1.4-1.9,1.4-3.2c0-1.2-0.4-2.4-1.2-3.3l-8.3-9c-0.8-0.9-1.9-1.4-3.2-1.4
				C38.4,32.2,38.3,32.2,38.2,32.2z"/>
		</g>
		<g>
			<path class="st1" d="M21.2,45.3c-2.4,0-4.8-1.4-5.9-3.8c-0.2-0.4,0-0.8,0.4-1c0.4-0.2,0.8,0,1,0.4c1.1,2.5,4,3.6,6.5,2.5
				l10.5-4.7c2.5-1.1,3.6-4,2.5-6.5c-0.2-0.4,0-0.8,0.4-1c0.4-0.2,0.8,0,1,0.4c1.4,3.2,0,7-3.2,8.5l-10.5,4.7
				C23,45.1,22.1,45.3,21.2,45.3z"/>
		</g>
		<g>
			<path class="st1" d="M16.4,42.6c-0.2,0-0.5-0.1-0.6-0.3c-2-2.9-1.2-6.9,1.7-8.9l9.5-6.5c2.9-2,6.9-1.2,8.9,1.7
				c0.2,0.3,0.1,0.8-0.2,1c-0.3,0.2-0.8,0.1-1-0.2c-1.5-2.2-4.6-2.8-6.8-1.3l-9.5,6.5c-2.2,1.5-2.8,4.6-1.3,6.8
				c0.2,0.3,0.1,0.8-0.2,1C16.7,42.5,16.6,42.6,16.4,42.6z"/>
		</g>
		<g>
			<path class="st1" d="M36.6,25.5c-0.3,0-0.6-0.2-0.7-0.5c-0.1-0.4,0.1-0.8,0.5-1l4.4-1.5c0.4-0.1,0.8,0.1,1,0.5
				c0.1,0.4-0.1,0.8-0.5,1l-4.4,1.5C36.8,25.5,36.7,25.5,36.6,25.5z"/>
		</g>
		<g>
			<path class="st1" d="M33.9,23.2c-0.1,0-0.2,0-0.2,0c-0.4-0.1-0.6-0.6-0.5-1l1.5-4.4c0.1-0.4,0.6-0.6,1-0.5c0.4,0.1,0.6,0.6,0.5,1
				l-1.5,4.4C34.5,23,34.2,23.2,33.9,23.2z"/>
		</g>
		<g>
			<path class="st1" d="M30.5,23.5c-0.2,0-0.4-0.1-0.6-0.3L27,19.6c-0.3-0.3-0.2-0.8,0.1-1.1c0.3-0.3,0.8-0.2,1.1,0.1l2.9,3.7
				c0.3,0.3,0.2,0.8-0.1,1.1C30.8,23.5,30.7,23.5,30.5,23.5z"/>
		</g>
	</g>
</g>
</svg>
