<?xml version="1.0" encoding="utf-8"?>
<!-- Generator: Adobe Illustrator 21.1.0, SVG Export Plug-In . SVG Version: 6.00 Build 0)  -->
<svg version="1.1" id="Homepage" xmlns="http://www.w3.org/2000/svg" xmlns:xlink="http://www.w3.org/1999/xlink" x="0px" y="0px"
	 viewBox="0 0 68.5 69.8" style="enable-background:new 0 0 68.5 69.8;" xml:space="preserve">
<style type="text/css">
	.st0{fill:#87C7A4;}
	.st1{fill:#FCF4EF;}
</style>
<g>
	<g>
		<circle class="st0" cx="34.2" cy="34.9" r="31.7"/>
	</g>
	<g>
		<path class="st1" d="M30.9,28.1c-0.3,0-0.7-0.1-1-0.2l-17.4-6.1c-0.4-0.1-0.6-0.6-0.5-1c0.1-0.4,0.6-0.6,1-0.5l17.4,6.1
			c0.8,0.3,1.6-0.1,2-0.8c0.2-0.4,0.2-0.9,0-1.3c-0.2-0.4-0.5-0.7-0.9-0.9L27,21.9c-0.6-0.2-1.1-0.7-1.3-1.4s-0.2-1.3,0.2-1.9
			c0.6-0.9,1.7-1.4,2.7-1l9.6,3.5c1.1,0.4,1.8,1.5,1.8,2.6c0,1,0.8,1.8,1.8,1.8c1,0,1.8-0.8,1.8-1.8v-1.1c0-1.7-0.8-3.2-2.2-4.1
			l-10.6-6.8L22,10.8c-0.4,0-0.7-0.4-0.7-0.8s0.4-0.7,0.8-0.7l9.3,0.9l10.9,7c1.8,1.2,2.9,3.2,2.9,5.3v1.1c0,1.8-1.5,3.3-3.3,3.3
			c-1.8,0-3.3-1.5-3.3-3.3c0-0.5-0.3-1-0.8-1.2L28.1,19c-0.4-0.1-0.7,0-0.9,0.3C27,19.6,27,19.8,27.1,20c0.1,0.2,0.2,0.4,0.5,0.5
			l4.5,1.7c0.8,0.3,1.5,0.9,1.8,1.8c0.3,0.8,0.3,1.7-0.1,2.5C33.2,27.5,32.1,28.1,30.9,28.1z"/>
	</g>
	<g>
		<path class="st1" d="M37.7,34.8c-2.2,0-3.9-1.8-3.9-3.9c0-1,0.4-1.9,1-2.6c1.2-1.3,3.2-1.6,4.8-0.8c0.9,0.5,1.6,1.4,1.9,2.5
			c0.1,0.3,0.1,0.6,0.1,1C41.6,33.1,39.8,34.8,37.7,34.8z M37.7,28.5c-0.7,0-1.3,0.3-1.8,0.8c-0.4,0.4-0.6,1-0.6,1.6
			c0,1.3,1.1,2.4,2.4,2.4s2.4-1.1,2.4-2.4c0-0.2,0-0.4-0.1-0.6c-0.2-0.6-0.6-1.2-1.2-1.5C38.5,28.6,38.1,28.5,37.7,28.5z"/>
	</g>
	<g>
		<path class="st1" d="M37.7,39.9c-0.4,0-0.8-0.3-0.8-0.8v-4.5c0-0.4,0.3-0.8,0.8-0.8s0.8,0.3,0.8,0.8v4.5
			C38.4,39.6,38.1,39.9,37.7,39.9z"/>
	</g>
	<g>
		<path class="st1" d="M37.7,36.8c-3.7,0-6.6,3-6.6,6.6c0,3.7,3,6.6,6.6,6.6c3.7,0,6.6-3,6.6-6.6C44.3,39.8,41.4,36.8,37.7,36.8z
			 M37.7,45.6c-1.2,0-2.1-1-2.1-2.1c0-1.2,1-2.1,2.1-2.1s2.1,1,2.1,2.1C39.8,44.6,38.9,45.6,37.7,45.6z"/>
	</g>
	<g>
		<path class="st1" d="M36.4,46.3v12.7c0,0.5,0.6,0.8,1,0.6l2.2-1.5c0.3-0.2,0.4-0.7,0.1-1l-0.9-0.9c-0.3-0.3-0.3-0.8,0.1-1.1
			l0.6-0.6c0.4-0.3,0.4-0.9,0.1-1.3l-0.9-1c-0.3-0.3-0.3-0.7-0.2-1l1.3-4L36.4,46.3z"/>
	</g>
</g>
</svg>
