<?xml version="1.0" encoding="utf-8"?>
<!-- Generator: Adobe Illustrator 21.1.0, SVG Export Plug-In . SVG Version: 6.00 Build 0)  -->
<svg version="1.1" id="Homepage" xmlns="http://www.w3.org/2000/svg" xmlns:xlink="http://www.w3.org/1999/xlink" x="0px" y="0px"
	 viewBox="0 0 68.5 69.8" style="enable-background:new 0 0 68.5 69.8;" xml:space="preserve">
<style type="text/css">
	.st0{fill:#87C7A4;}
	.st1{fill:#FCF4EF;}
</style>
<g>
	<g>
		<circle class="st0" cx="34.2" cy="34.9" r="31.7"/>
	</g>
	<g>
		<path class="st1" d="M34.3,30.4c-4.3,0-7.8-3.5-7.8-7.8s3.5-7.8,7.8-7.8s7.8,3.5,7.8,7.8S38.6,30.4,34.3,30.4z M34.3,16.2
			c-3.5,0-6.3,2.8-6.3,6.3s2.8,6.3,6.3,6.3s6.3-2.8,6.3-6.3S37.7,16.2,34.3,16.2z"/>
	</g>
	<g>
		<path class="st1" d="M34.3,50.3H23.6v-8.1c0-5.7,4.7-10.4,10.4-10.4h0.3c4.8,0,8.9,3.2,10.1,7.9c0.1,0.4-0.1,0.8-0.5,0.9
			c-0.4,0.1-0.8-0.1-0.9-0.5c-1-4-4.6-6.7-8.6-6.7H34c-4.9,0-8.9,4-8.9,8.9v6.6h9.1c0.4,0,0.8,0.3,0.8,0.8S34.7,50.3,34.3,50.3z"/>
	</g>
	<g>
		<path class="st1" d="M50.4,53.6H38c-0.6,0-1.1-0.5-1.1-1.1V43c0-0.6,0.5-1.1,1.1-1.1h12.5c0.6,0,1.1,0.5,1.1,1.1v9.5
			C51.5,53.1,51,53.6,50.4,53.6z"/>
	</g>
	<g>
		<path class="st0" d="M52.5,50.4H46c-0.9,0-1.7-0.8-1.7-1.7v-1.8c0-0.9,0.8-1.7,1.7-1.7h6.6c0.9,0,1.7,0.8,1.7,1.7v1.8
			C54.2,49.6,53.5,50.4,52.5,50.4z M46,46.2c-0.4,0-0.7,0.3-0.7,0.7v1.8c0,0.4,0.3,0.7,0.7,0.7h6.6c0.4,0,0.7-0.3,0.7-0.7v-1.8
			c0-0.4-0.3-0.7-0.7-0.7H46z"/>
	</g>
</g>
</svg>
